STARTFONT 2.1
COMMENT ========================================================== 
COMMENT                Wen Quan Yi Bitmap Song 
COMMENT ----------------------------------------------------------
COMMENT Summary:
COMMENT 
COMMENT     Developer: The WenQuanYi Project
COMMENT     Webpage  : http://wqy.sourceforge.net/en/
COMMENT     Font Name: WenQuanYi Bitmap Song
COMMENT     Version  : 0.6 (half-teal)
COMMENT     Release  : 2
COMMENT     Date     : 2005/8/8
COMMENT     Copyright: 2004,2005, The WenQuanYi Project Board of Trustees
COMMENT     License  : GPL
COMMENT 
COMMENT           May the Font be with you, forever!
COMMENT ----------------------------------------------------------
COMMENT The bitmap font in this package includes complete CJK Unified 
COMMENT Ideographics (U4E00~U9FA5) glyphs at four different sizes 
COMMENT (9pt-12X12 pixel, 10pt-13X13 pixel, 11pt-15X15 pixel,
COMMENT and 12pt-16X16pt) and two weights (medium and bold). 
COMMENT This font can be used for displaying Chinese on various 
COMMENT computer operating systems, especially on all distributions 
COMMENT of Linux. Using bitmap Chinese font can overcome the 
COMMENT blurring problem for many True-Type Chinese font due to 
COMMENT anti-aliasing and insufficiency in hinting methods for 
COMMENT Chinese characters.
COMMENT ----------------------------------------------------------
COMMENT Project start date          2004/10/26
COMMENT GBK char complete date      2005/4/10
COMMENT Sourceforge registration    2005/1/7
COMMENT CJK char. total             20902
COMMENT Total glyphs from firefly   15832X3
COMMENT Total glyphs from Redflag   20902(12pt)
COMMENT New glyphs number           15210
COMMENT Improved glyph number       > 35,000
COMMENT Group number(101 char each) 207
COMMENT Online editing group        53
COMMENT Offline editing group       154
COMMENT Webspace provider           sitaphi.com,Dartmouth CSSA,sourceforge
COMMENT 
COMMENT New wiki page number        3663+34

STARTCHAR .notdef
ENCODING 0
SWIDTH 600 0
DWIDTH 7 0
BBX 7 12 0 -3
BITMAP
FE
82
82
82
82
82
82
82
82
82
82
FE
ENDCHAR
STARTCHAR zero
ENCODING 48
SWIDTH 636 0
DWIDTH 8 0
BBX 6 9 1 0
BITMAP
78
84
84
84
84
84
84
84
78
ENDCHAR
STARTCHAR one
ENCODING 49
SWIDTH 636 0
DWIDTH 8 0
BBX 5 9 2 0
BITMAP
E0
20
20
20
20
20
20
20
F8
ENDCHAR
STARTCHAR two
ENCODING 50
SWIDTH 636 0
DWIDTH 8 0
BBX 5 9 1 0
BITMAP
70
88
88
08
10
20
40
80
F8
ENDCHAR
STARTCHAR three
ENCODING 51
SWIDTH 636 0
DWIDTH 8 0
BBX 6 9 0 0
BITMAP
78
84
04
04
38
04
04
84
78
ENDCHAR
STARTCHAR four
ENCODING 52
SWIDTH 636 0
DWIDTH 8 0
BBX 6 9 1 0
BITMAP
18
28
48
88
88
88
FC
08
08
ENDCHAR
STARTCHAR five
ENCODING 53
SWIDTH 636 0
DWIDTH 8 0
BBX 5 9 1 0
BITMAP
F8
80
80
F0
08
08
08
88
70
ENDCHAR
STARTCHAR six
ENCODING 54
SWIDTH 636 0
DWIDTH 8 0
BBX 6 9 1 0
BITMAP
78
80
80
B8
C4
84
84
84
78
ENDCHAR
STARTCHAR seven
ENCODING 55
SWIDTH 636 0
DWIDTH 8 0
BBX 6 9 1 0
BITMAP
FC
08
08
10
10
10
20
20
20
ENDCHAR
STARTCHAR eight
ENCODING 56
SWIDTH 636 0
DWIDTH 8 0
BBX 6 9 1 0
BITMAP
78
84
84
84
78
84
84
84
78
ENDCHAR
STARTCHAR nine
ENCODING 57
SWIDTH 636 0
DWIDTH 8 0
BBX 6 9 1 0
BITMAP
78
84
84
84
8C
74
04
88
70
ENDCHAR
STARTCHAR A
ENCODING 65
SWIDTH 684 0
DWIDTH 8 0
BBX 8 9 0 0
BITMAP
18
18
24
24
42
42
7E
81
81
ENDCHAR
STARTCHAR B
ENCODING 66
SWIDTH 686 0
DWIDTH 8 0
BBX 6 9 1 0
BITMAP
F8
84
84
84
F8
84
84
84
F8
ENDCHAR
STARTCHAR C
ENCODING 67
SWIDTH 698 0
DWIDTH 8 0
BBX 6 9 1 0
BITMAP
3C
40
80
80
80
80
80
40
3C
ENDCHAR
STARTCHAR D
ENCODING 68
SWIDTH 770 0
DWIDTH 9 0
BBX 7 9 1 0
BITMAP
F8
84
82
82
82
82
82
84
F8
ENDCHAR
STARTCHAR E
ENCODING 69
SWIDTH 631 0
DWIDTH 8 0
BBX 6 9 1 0
BITMAP
FC
80
80
80
F8
80
80
80
FC
ENDCHAR
STARTCHAR F
ENCODING 70
SWIDTH 575 0
DWIDTH 7 0
BBX 6 9 1 0
BITMAP
FC
80
80
80
F8
80
80
80
80
ENDCHAR
STARTCHAR G
ENCODING 71
SWIDTH 774 0
DWIDTH 9 0
BBX 7 9 1 0
BITMAP
3C
42
80
80
8E
82
82
42
3E
ENDCHAR
STARTCHAR H
ENCODING 72
SWIDTH 751 0
DWIDTH 9 0
BBX 7 9 1 0
BITMAP
82
82
82
82
FE
82
82
82
82
ENDCHAR
STARTCHAR I
ENCODING 73
SWIDTH 294 0
DWIDTH 4 0
BBX 1 9 1 0
BITMAP
80
80
80
80
80
80
80
80
80
ENDCHAR
STARTCHAR J
ENCODING 74
SWIDTH 294 0
DWIDTH 4 0
BBX 3 12 -1 -3
BITMAP
20
20
20
20
20
20
20
20
20
20
20
C0
ENDCHAR
STARTCHAR K
ENCODING 75
SWIDTH 655 0
DWIDTH 8 0
BBX 6 9 1 0
BITMAP
84
88
90
A0
C0
A0
90
88
84
ENDCHAR
STARTCHAR L
ENCODING 76
SWIDTH 557 0
DWIDTH 7 0
BBX 6 9 1 0
BITMAP
80
80
80
80
80
80
80
80
FC
ENDCHAR
STARTCHAR M
ENCODING 77
SWIDTH 862 0
DWIDTH 10 0
BBX 8 9 1 0
BITMAP
C3
C3
A5
A5
99
99
81
81
81
ENDCHAR
STARTCHAR N
ENCODING 78
SWIDTH 748 0
DWIDTH 9 0
BBX 7 9 1 0
BITMAP
C2
C2
A2
A2
92
92
8A
8A
86
ENDCHAR
STARTCHAR O
ENCODING 79
SWIDTH 787 0
DWIDTH 9 0
BBX 7 9 1 0
BITMAP
38
44
82
82
82
82
82
44
38
ENDCHAR
STARTCHAR P
ENCODING 80
SWIDTH 603 0
DWIDTH 7 0
BBX 6 9 1 0
BITMAP
F8
84
84
84
84
F8
80
80
80
ENDCHAR
STARTCHAR Q
ENCODING 81
SWIDTH 787 0
DWIDTH 9 0
BBX 7 10 1 -1
BITMAP
38
44
82
82
82
82
82
44
38
06
ENDCHAR
STARTCHAR R
ENCODING 82
SWIDTH 694 0
DWIDTH 8 0
BBX 7 9 1 0
BITMAP
F8
84
84
84
F8
88
84
84
82
ENDCHAR
STARTCHAR S
ENCODING 83
SWIDTH 634 0
DWIDTH 8 0
BBX 6 9 1 0
BITMAP
78
84
80
80
78
04
04
84
78
ENDCHAR
STARTCHAR T
ENCODING 84
SWIDTH 610 0
DWIDTH 7 0
BBX 7 9 0 0
BITMAP
FE
10
10
10
10
10
10
10
10
ENDCHAR
STARTCHAR U
ENCODING 85
SWIDTH 731 0
DWIDTH 9 0
BBX 7 9 1 0
BITMAP
82
82
82
82
82
82
82
44
38
ENDCHAR
STARTCHAR V
ENCODING 86
SWIDTH 684 0
DWIDTH 8 0
BBX 7 9 0 0
BITMAP
82
82
82
44
44
28
28
10
10
ENDCHAR
STARTCHAR W
ENCODING 87
SWIDTH 988 0
DWIDTH 12 0
BBX 11 9 0 0
BITMAP
8420
8420
8A20
4A40
5140
5140
5140
2080
2080
ENDCHAR
STARTCHAR X
ENCODING 88
SWIDTH 685 0
DWIDTH 8 0
BBX 7 9 0 0
BITMAP
82
82
44
28
10
28
44
82
82
ENDCHAR
STARTCHAR Y
ENCODING 89
SWIDTH 610 0
DWIDTH 7 0
BBX 7 9 0 0
BITMAP
82
44
28
10
10
10
10
10
10
ENDCHAR
STARTCHAR Z
ENCODING 90
SWIDTH 685 0
DWIDTH 8 0
BBX 7 9 1 0
BITMAP
FE
02
04
08
10
20
40
80
FE
ENDCHAR
STARTCHAR a
ENCODING 97
SWIDTH 612 0
DWIDTH 7 0
BBX 5 7 1 0
BITMAP
F0
08
78
88
88
88
78
ENDCHAR
STARTCHAR b
ENCODING 98
SWIDTH 634 0
DWIDTH 8 0
BBX 6 10 1 0
BITMAP
80
80
80
B8
C4
84
84
84
C4
B8
ENDCHAR
STARTCHAR c
ENCODING 99
SWIDTH 549 0
DWIDTH 7 0
BBX 5 7 1 0
BITMAP
78
80
80
80
80
80
78
ENDCHAR
STARTCHAR d
ENCODING 100
SWIDTH 634 0
DWIDTH 8 0
BBX 6 10 1 0
BITMAP
04
04
04
74
8C
84
84
84
8C
74
ENDCHAR
STARTCHAR e
ENCODING 101
SWIDTH 615 0
DWIDTH 7 0
BBX 6 7 1 0
BITMAP
78
84
84
FC
80
84
78
ENDCHAR
STARTCHAR f
ENCODING 102
SWIDTH 352 0
DWIDTH 4 0
BBX 4 10 0 0
BITMAP
30
40
40
F0
40
40
40
40
40
40
ENDCHAR
STARTCHAR g
ENCODING 103
SWIDTH 634 0
DWIDTH 8 0
BBX 6 10 1 -3
BITMAP
78
84
84
84
84
84
7C
04
84
78
ENDCHAR
STARTCHAR h
ENCODING 104
SWIDTH 633 0
DWIDTH 8 0
BBX 5 10 1 0
BITMAP
80
80
80
B0
C8
88
88
88
88
88
ENDCHAR
STARTCHAR i
ENCODING 105
SWIDTH 277 0
DWIDTH 3 0
BBX 1 9 1 0
BITMAP
80
00
80
80
80
80
80
80
80
ENDCHAR
STARTCHAR j
ENCODING 106
SWIDTH 277 0
DWIDTH 3 0
BBX 2 12 0 -3
BITMAP
40
00
40
40
40
40
40
40
40
40
40
80
ENDCHAR
STARTCHAR k
ENCODING 107
SWIDTH 579 0
DWIDTH 7 0
BBX 5 10 1 0
BITMAP
80
80
80
88
90
A0
C0
A0
90
88
ENDCHAR
STARTCHAR l
ENCODING 108
SWIDTH 277 0
DWIDTH 3 0
BBX 1 10 1 0
BITMAP
80
80
80
80
80
80
80
80
80
80
ENDCHAR
STARTCHAR m
ENCODING 109
SWIDTH 974 0
DWIDTH 12 0
BBX 10 7 1 0
BITMAP
B380
CC40
8440
8440
8440
8440
8440
ENDCHAR
STARTCHAR n
ENCODING 110
SWIDTH 633 0
DWIDTH 8 0
BBX 6 7 1 0
BITMAP
B8
C4
84
84
84
84
84
ENDCHAR
STARTCHAR o
ENCODING 111
SWIDTH 611 0
DWIDTH 7 0
BBX 7 7 0 0
BITMAP
38
44
82
82
82
44
38
ENDCHAR
STARTCHAR p
ENCODING 112
SWIDTH 634 0
DWIDTH 8 0
BBX 6 10 1 -3
BITMAP
B8
C4
84
84
84
C4
B8
80
80
80
ENDCHAR
STARTCHAR q
ENCODING 113
SWIDTH 634 0
DWIDTH 8 0
BBX 6 10 1 -3
BITMAP
74
8C
84
84
84
8C
74
04
04
04
ENDCHAR
STARTCHAR r
ENCODING 114
SWIDTH 411 0
DWIDTH 5 0
BBX 4 7 1 0
BITMAP
B0
C0
80
80
80
80
80
ENDCHAR
STARTCHAR s
ENCODING 115
SWIDTH 520 0
DWIDTH 6 0
BBX 5 7 0 0
BITMAP
70
88
80
70
08
88
70
ENDCHAR
STARTCHAR t
ENCODING 116
SWIDTH 392 0
DWIDTH 5 0
BBX 4 9 0 0
BITMAP
40
40
F0
40
40
40
40
40
30
ENDCHAR
STARTCHAR u
ENCODING 117
SWIDTH 633 0
DWIDTH 8 0
BBX 5 7 1 0
BITMAP
88
88
88
88
88
98
68
ENDCHAR
STARTCHAR v
ENCODING 118
SWIDTH 591 0
DWIDTH 7 0
BBX 7 7 0 0
BITMAP
82
44
44
28
28
10
10
ENDCHAR
STARTCHAR w
ENCODING 119
SWIDTH 817 0
DWIDTH 10 0
BBX 9 7 0 0
BITMAP
8880
8880
5500
5500
5500
2200
2200
ENDCHAR
STARTCHAR x
ENCODING 120
SWIDTH 591 0
DWIDTH 7 0
BBX 5 7 1 0
BITMAP
88
88
50
20
50
88
88
ENDCHAR
STARTCHAR y
ENCODING 121
SWIDTH 591 0
DWIDTH 7 0
BBX 7 10 0 -3
BITMAP
82
82
44
44
28
28
10
10
20
20
ENDCHAR
STARTCHAR z
ENCODING 122
SWIDTH 524 0
DWIDTH 6 0
BBX 5 7 1 0
BITMAP
F8
08
10
20
40
80
F8
ENDCHAR
STARTCHAR nonbreakingspace
ENCODING 160
SWIDTH 636 0
DWIDTH 8 0
BBX 1 1 0 0
BITMAP
00
ENDCHAR
STARTCHAR U_4E00
ENCODING 19968
SWIDTH 1000 0
DWIDTH 13 0
BBX 12 12 0 -1
BITMAP
0000
0000
0000
0000
0020
FFF0
0000
0000
0000
0000
0000
0000
ENDCHAR
STARTCHAR U_4E01
ENCODING 19969
SWIDTH 1000 0
DWIDTH 13 0
BBX 12 12 0 -1
BITMAP
0000
FFF0
0200
0200
0200
0200
0200
0200
0200
0200
0A00
0400
ENDCHAR
STARTCHAR U_4E02
ENCODING 19970
SWIDTH 1000 0
DWIDTH 13 0
BBX 12 12 0 -1
BITMAP
FFF0
0800
0800
1000
3FC0
0040
0040
0040
0080
0080
0500
0200
ENDCHAR
STARTCHAR U_4E03
ENCODING 19971
SWIDTH 1000 0
DWIDTH 13 0
BBX 12 12 0 -1
BITMAP
0800
0800
0800
0870
0F80
F800
0800
0800
0800
0810
0810
07F0
ENDCHAR
STARTCHAR U_4E04
ENCODING 19972
SWIDTH 1000 0
DWIDTH 13 0
BBX 12 12 0 -1
BITMAP
0400
0400
0400
0400
0400
0400
0400
0400
0400
0420
FFF0
0000
ENDCHAR
STARTCHAR U_4E05
ENCODING 19973
SWIDTH 1000 0
DWIDTH 13 0
BBX 12 12 0 -1
BITMAP
0020
FFF0
0400
0400
0400
0400
0400
0400
0400
0400
0400
0400
ENDCHAR
STARTCHAR U_4E06
ENCODING 19974
SWIDTH 1000 0
DWIDTH 13 0
BBX 12 12 0 -1
BITMAP
0000
0040
7FE0
0400
0400
0800
0800
1000
6000
0000
0000
0000
ENDCHAR
STARTCHAR U_4E07
ENCODING 19975
SWIDTH 1000 0
DWIDTH 13 0
BBX 12 12 0 -1
BITMAP
0000
FFF0
0800
0800
0FC0
0840
0840
0840
1040
1040
2280
4100
ENDCHAR
STARTCHAR U_4E08
ENCODING 19976
SWIDTH 1000 0
DWIDTH 13 0
BBX 12 12 0 -1
BITMAP
0400
0400
0400
FFE0
0400
2400
2400
1400
0800
1400
2200
C1E0
ENDCHAR
STARTCHAR U_4E09
ENCODING 19977
SWIDTH 1000 0
DWIDTH 13 0
BBX 12 12 0 -1
BITMAP
0040
7FE0
0000
0000
0000
0000
3FC0
0000
0000
0000
0020
FFF0
ENDCHAR
STARTCHAR U_4E0A
ENCODING 19978
SWIDTH 1000 0
DWIDTH 13 0
BBX 12 12 0 -1
BITMAP
0400
0400
0400
0400
07E0
0400
0400
0400
0400
0400
0400
FFF0
ENDCHAR
STARTCHAR U_4E0B
ENCODING 19979
SWIDTH 1000 0
DWIDTH 13 0
BBX 12 12 0 -1
BITMAP
FFF0
0400
0400
0600
0500
04C0
0440
0400
0400
0400
0400
0400
ENDCHAR
STARTCHAR U_4E0C
ENCODING 19980
SWIDTH 1000 0
DWIDTH 13 0
BBX 12 12 0 -1
BITMAP
0020
FFF0
0880
0880
0880
0880
0880
0880
1080
1080
2080
4080
ENDCHAR
STARTCHAR U_4E0D
ENCODING 19981
SWIDTH 1000 0
DWIDTH 13 0
BBX 12 12 0 -1
BITMAP
FFF0
0200
0200
0400
0D00
1480
2440
4430
8410
0400
0400
0400
ENDCHAR
STARTCHAR U_4E0E
ENCODING 19982
SWIDTH 1000 0
DWIDTH 13 0
BBX 12 12 0 -1
BITMAP
1000
1000
1FE0
1000
1000
1FC0
0040
0040
FE40
0040
0280
0100
ENDCHAR
STARTCHAR U_4E0F
ENCODING 19983
SWIDTH 1000 0
DWIDTH 13 0
BBX 12 12 0 -1
BITMAP
FFF0
0400
0400
27C0
2440
4440
7FC0
0040
0040
0040
0280
0100
ENDCHAR
STARTCHAR U_4E10
ENCODING 19984
SWIDTH 1000 0
DWIDTH 13 0
BBX 12 12 0 -1
BITMAP
FFF0
0200
1200
13E0
1200
2200
3FE0
0020
0020
0020
0140
0080
ENDCHAR
STARTCHAR U_4E11
ENCODING 19985
SWIDTH 1000 0
DWIDTH 13 0
BBX 12 12 0 -1
BITMAP
0040
3FE0
0440
0440
0440
0440
7FC0
0840
0840
0840
0840
FFF0
ENDCHAR
STARTCHAR U_4E12
ENCODING 19986
SWIDTH 1000 0
DWIDTH 13 0
BBX 12 12 0 -1
BITMAP
7FC0
0840
0840
2840
1840
0C40
1440
2040
4280
8100
0000
FFF0
ENDCHAR
STARTCHAR U_4E13
ENCODING 19987
SWIDTH 1000 0
DWIDTH 13 0
BBX 12 12 0 -1
BITMAP
0440
7FE0
0400
0420
FFF0
0800
1FC0
0080
0D00
0200
0180
0080
ENDCHAR
STARTCHAR U_4E14
ENCODING 19988
SWIDTH 1000 0
DWIDTH 13 0
BBX 12 12 0 -1
BITMAP
3F80
2080
2080
2080
3F80
2080
2080
3F80
2080
2080
2080
FFF0
ENDCHAR
STARTCHAR U_4E15
ENCODING 19989
SWIDTH 1000 0
DWIDTH 13 0
BBX 12 12 0 -1
BITMAP
0020
FFF0
0200
0400
0C80
1440
2420
4420
0400
0400
0420
FFF0
ENDCHAR
STARTCHAR U_4E16
ENCODING 19990
SWIDTH 1000 0
DWIDTH 13 0
BBX 12 12 0 -1
BITMAP
0440
2440
2440
FFF0
2440
2440
2440
27C0
2440
2000
2000
3FF0
ENDCHAR
STARTCHAR U_4E17
ENCODING 19991
SWIDTH 1000 0
DWIDTH 13 0
BBX 12 12 0 -1
BITMAP
0400
2440
2440
2440
FFF0
2440
2440
2440
2440
2440
3FC0
2040
ENDCHAR
STARTCHAR U_4E18
ENCODING 19992
SWIDTH 1000 0
DWIDTH 13 0
BBX 12 12 0 -1
BITMAP
03C0
3C00
2000
2000
2000
3FE0
2100
2100
2100
2100
2100
FFF0
ENDCHAR
STARTCHAR U_4E19
ENCODING 19993
SWIDTH 1000 0
DWIDTH 13 0
BBX 12 12 0 -1
BITMAP
0020
FFF0
0400
0400
7FE0
4420
4620
4920
5120
4020
40A0
4040
ENDCHAR
STARTCHAR U_4E1A
ENCODING 19994
SWIDTH 1000 0
DWIDTH 13 0
BBX 12 12 0 -1
BITMAP
0900
0900
0900
8920
8920
4940
4940
2980
2900
0900
0900
FFF0
ENDCHAR
STARTCHAR U_4E1B
ENCODING 19995
SWIDTH 1000 0
DWIDTH 13 0
BBX 12 12 0 -1
BITMAP
1080
1080
1080
1080
1080
2880
2540
4540
4220
8C10
0000
FFF0
ENDCHAR
STARTCHAR U_4E1C
ENCODING 19996
SWIDTH 1000 0
DWIDTH 13 0
BBX 12 12 0 -1
BITMAP
0400
0400
FFF0
1200
1200
2200
3FE0
0200
1240
2230
4A10
0400
ENDCHAR
STARTCHAR U_4E1D
ENCODING 19997
SWIDTH 1000 0
DWIDTH 13 0
BBX 12 12 0 -1
BITMAP
2080
2080
2080
4120
5140
F3C0
2080
4100
FBE0
0000
0000
FFF0
ENDCHAR
STARTCHAR U_4E1E
ENCODING 19998
SWIDTH 1000 0
DWIDTH 13 0
BBX 12 12 0 -1
BITMAP
3F80
0100
0220
F440
1680
2500
2480
4440
9430
0800
0000
FFF0
ENDCHAR
STARTCHAR U_4E1F
ENCODING 19999
SWIDTH 1000 0
DWIDTH 13 0
BBX 12 12 0 -1
BITMAP
0040
7FE0
0400
3FC0
0400
0400
FFF0
0400
0900
1080
3FC0
1040
ENDCHAR
STARTCHAR U_4E20
ENCODING 20000
SWIDTH 1000 0
DWIDTH 13 0
BBX 12 12 0 -1
BITMAP
0900
0900
0910
F920
09C0
0900
0900
3910
C910
08F0
0000
FFF0
ENDCHAR
STARTCHAR U_4E21
ENCODING 20001
SWIDTH 1000 0
DWIDTH 13 0
BBX 12 12 0 -1
BITMAP
0000
FFF0
0200
7FF0
4210
5250
5250
5250
5FD0
5050
4010
4030
ENDCHAR
STARTCHAR U_4E22
ENCODING 20002
SWIDTH 1000 0
DWIDTH 13 0
BBX 12 12 0 -1
BITMAP
00C0
7F00
0400
7FC0
0400
0400
FFE0
0400
0900
1080
3FC0
1040
ENDCHAR
STARTCHAR U_4E23
ENCODING 20003
SWIDTH 1000 0
DWIDTH 13 0
BBX 12 12 0 -1
BITMAP
0020
FFF0
0900
0900
79E0
4920
4920
79E0
0900
1100
1100
2100
ENDCHAR
STARTCHAR U_4E24
ENCODING 20004
SWIDTH 1000 0
DWIDTH 13 0
BBX 12 12 0 -1
BITMAP
FFF0
0900
0900
7FE0
4920
4920
4920
55A0
5260
6420
40A0
4040
ENDCHAR
STARTCHAR U_4E25
ENCODING 20005
SWIDTH 1000 0
DWIDTH 13 0
BBX 12 12 0 -1
BITMAP
7FF0
0480
24A0
14C0
3FF0
2000
2000
2000
2000
2000
4000
8000
ENDCHAR
STARTCHAR U_4E26
ENCODING 20006
SWIDTH 1000 0
DWIDTH 13 0
BBX 12 12 0 -1
BITMAP
2040
1080
1100
FFF0
1100
9120
5120
5140
1180
1100
1100
FFF0
ENDCHAR
STARTCHAR U_4E27
ENCODING 20007
SWIDTH 1000 0
DWIDTH 13 0
BBX 12 12 0 -1
BITMAP
0400
FFF0
0400
2480
1500
FFE0
2400
2440
2280
2100
28C0
3030
ENDCHAR
STARTCHAR U_4E28
ENCODING 20008
SWIDTH 1000 0
DWIDTH 13 0
BBX 12 12 0 -1
BITMAP
0200
0300
0200
0200
0200
0200
0200
0200
0200
0200
0200
0200
ENDCHAR
STARTCHAR U_4E29
ENCODING 20009
SWIDTH 1000 0
DWIDTH 13 0
BBX 12 12 0 -1
BITMAP
0080
1080
1080
1080
1080
1180
1680
1880
1080
0080
0080
0080
ENDCHAR
STARTCHAR U_4E2A
ENCODING 20010
SWIDTH 1000 0
DWIDTH 13 0
BBX 12 12 0 -1
BITMAP
0400
0400
0A00
1100
2480
4440
8430
0400
0400
0400
0400
0400
ENDCHAR
STARTCHAR U_4E2B
ENCODING 20011
SWIDTH 1000 0
DWIDTH 13 0
BBX 12 12 0 -1
BITMAP
2020
1020
0C40
0480
0200
0200
0200
0200
0200
0200
0200
0200
ENDCHAR
STARTCHAR U_4E2C
ENCODING 20012
SWIDTH 1000 0
DWIDTH 13 0
BBX 12 12 0 -1
BITMAP
0100
1100
0900
0900
0100
0500
0900
3100
1100
0100
0100
0100
ENDCHAR
STARTCHAR U_4E2D
ENCODING 20013
SWIDTH 1000 0
DWIDTH 13 0
BBX 12 12 0 -1
BITMAP
0400
0400
0400
7FE0
4420
4420
4420
7FE0
4420
0400
0400
0400
ENDCHAR
STARTCHAR U_4E2E
ENCODING 20014
SWIDTH 1000 0
DWIDTH 13 0
BBX 12 12 0 -1
BITMAP
0000
FF80
1080
1080
FE80
1080
1080
FE80
1090
1050
1030
1010
ENDCHAR
STARTCHAR U_4E2F
ENCODING 20015
SWIDTH 1000 0
DWIDTH 13 0
BBX 12 12 0 -1
BITMAP
0200
0260
0F80
7200
0260
0F80
7210
0260
0F80
F200
0200
0200
ENDCHAR
STARTCHAR U_4E30
ENCODING 20016
SWIDTH 1000 0
DWIDTH 13 0
BBX 12 12 0 -1
BITMAP
0400
0400
FFE0
0400
0400
7FC0
0400
0400
FFE0
0400
0400
0400
ENDCHAR
STARTCHAR U_4E31
ENCODING 20017
SWIDTH 1000 0
DWIDTH 13 0
BBX 12 12 0 -1
BITMAP
0900
0900
4920
4920
4920
4920
59E0
6920
0900
1100
2100
4100
ENDCHAR
STARTCHAR U_4E32
ENCODING 20018
SWIDTH 1000 0
DWIDTH 13 0
BBX 12 12 0 -1
BITMAP
0400
0400
7FC0
4440
7FC0
0400
FFE0
8420
FFE0
8420
0400
0400
ENDCHAR
STARTCHAR U_4E33
ENCODING 20019
SWIDTH 1000 0
DWIDTH 13 0
BBX 12 12 0 -1
BITMAP
0900
0900
3FC0
2940
3FC0
0900
7FE0
4920
7FE0
0900
1100
6100
ENDCHAR
STARTCHAR U_4E34
ENCODING 20020
SWIDTH 1000 0
DWIDTH 13 0
BBX 12 12 0 -1
BITMAP
2400
2420
A7F0
A800
B100
A080
AFE0
A920
A920
2920
2FE0
2820
ENDCHAR
STARTCHAR U_4E35
ENCODING 20021
SWIDTH 1000 0
DWIDTH 13 0
BBX 12 12 0 -1
BITMAP
0500
4520
3520
1540
FFF0
0880
0500
7FF0
0200
FFF0
0200
0200
ENDCHAR
STARTCHAR U_4E36
ENCODING 20022
SWIDTH 1000 0
DWIDTH 13 0
BBX 12 12 0 -1
BITMAP
0000
0000
0800
0400
0200
0300
0100
0000
0000
0000
0000
0000
ENDCHAR
STARTCHAR U_4E37
ENCODING 20023
SWIDTH 1000 0
DWIDTH 13 0
BBX 12 12 0 -1
BITMAP
0000
0000
0000
4060
2040
1880
0900
0200
0000
0000
0000
0000
ENDCHAR
STARTCHAR U_4E38
ENCODING 20024
SWIDTH 1000 0
DWIDTH 13 0
BBX 12 12 0 -1
BITMAP
0800
0800
0900
7F80
0900
2900
1900
0900
1500
2510
4110
80F0
ENDCHAR
STARTCHAR U_4E39
ENCODING 20025
SWIDTH 1000 0
DWIDTH 13 0
BBX 12 12 0 -1
BITMAP
1FC0
1040
1440
1240
1240
1040
FFF0
1040
1040
2040
2140
4080
ENDCHAR
STARTCHAR U_4E3A
ENCODING 20026
SWIDTH 1000 0
DWIDTH 13 0
BBX 12 12 0 -1
BITMAP
0400
2400
1400
0400
7FE0
0420
0520
08A0
08A0
1020
2140
4080
ENDCHAR
STARTCHAR U_4E3B
ENCODING 20027
SWIDTH 1000 0
DWIDTH 13 0
BBX 12 12 0 -1
BITMAP
0800
0400
FFE0
0400
0400
0400
7FC0
0400
0400
0400
0400
FFE0
ENDCHAR
STARTCHAR U_4E3C
ENCODING 20028
SWIDTH 1000 0
DWIDTH 13 0
BBX 12 12 0 -1
BITMAP
0880
0880
0880
7FE0
0880
0C80
0A80
FFF0
0880
0880
1080
2080
ENDCHAR
STARTCHAR U_4E3D
ENCODING 20029
SWIDTH 1000 0
DWIDTH 13 0
BBX 12 12 0 -1
BITMAP
0040
FFE0
0000
7BC0
4A40
4A40
6B40
5AC0
4A40
4A40
4A40
5AC0
ENDCHAR
STARTCHAR U_4E3E
ENCODING 20030
SWIDTH 1000 0
DWIDTH 13 0
BBX 12 12 0 -1
BITMAP
4880
2480
2500
FFE0
1100
2480
5F70
8420
0400
FFE0
0400
0400
ENDCHAR
STARTCHAR U_4E3F
ENCODING 20031
SWIDTH 1000 0
DWIDTH 13 0
BBX 12 12 0 -1
BITMAP
0100
0100
0100
0100
0100
0100
0100
0100
0200
0200
0400
0800
ENDCHAR
STARTCHAR U_4E40
ENCODING 20032
SWIDTH 1000 0
DWIDTH 13 0
BBX 12 12 0 -1
BITMAP
0000
2000
2000
5000
9000
0800
0400
0200
0180
0070
0020
0000
ENDCHAR
STARTCHAR U_4E41
ENCODING 20033
SWIDTH 1000 0
DWIDTH 13 0
BBX 12 12 0 -1
BITMAP
0000
FF80
0080
0080
0080
0080
0080
0040
0040
0020
0020
0010
ENDCHAR
STARTCHAR U_4E42
ENCODING 20034
SWIDTH 1000 0
DWIDTH 13 0
BBX 12 12 0 -1
BITMAP
0040
1060
1040
1080
0880
0880
0500
0200
0500
0880
1070
6020
ENDCHAR
STARTCHAR U_4E43
ENCODING 20035
SWIDTH 1000 0
DWIDTH 13 0
BBX 12 12 0 -1
BITMAP
7FC0
0840
0880
0880
0900
11E0
1020
1020
2020
2020
4240
8180
ENDCHAR
STARTCHAR U_4E44
ENCODING 20036
SWIDTH 1000 0
DWIDTH 13 0
BBX 12 12 0 -1
BITMAP
0020
0020
0020
0840
0440
0280
0180
0140
0260
8420
9800
E000
ENDCHAR
STARTCHAR U_4E45
ENCODING 20037
SWIDTH 1000 0
DWIDTH 13 0
BBX 12 12 0 -1
BITMAP
0800
0900
1F80
1100
2100
4200
0200
0500
0500
0880
3070
C020
ENDCHAR
STARTCHAR U_4E46
ENCODING 20038
SWIDTH 1000 0
DWIDTH 13 0
BBX 12 12 0 -1
BITMAP
1000
1100
1100
2100
3E00
0200
0200
0500
0880
1040
2030
C020
ENDCHAR
STARTCHAR U_4E47
ENCODING 20039
SWIDTH 1000 0
DWIDTH 13 0
BBX 12 12 0 -1
BITMAP
00C0
0300
7C00
0400
0400
07E0
FC00
0400
0400
0410
0410
03F0
ENDCHAR
STARTCHAR U_4E48
ENCODING 20040
SWIDTH 1000 0
DWIDTH 13 0
BBX 12 12 0 -1
BITMAP
0400
0400
0800
0900
1100
2200
4200
0400
0880
1040
3FE0
0020
ENDCHAR
STARTCHAR U_4E49
ENCODING 20041
SWIDTH 1000 0
DWIDTH 13 0
BBX 12 12 0 -1
BITMAP
0440
2240
2240
1040
1080
0880
0900
0500
0200
0500
18C0
6030
ENDCHAR
STARTCHAR U_4E4A
ENCODING 20042
SWIDTH 1000 0
DWIDTH 13 0
BBX 12 12 0 -1
BITMAP
0000
00E0
0700
7840
0060
4040
2080
1080
1100
0200
0000
0000
ENDCHAR
STARTCHAR U_4E4B
ENCODING 20043
SWIDTH 1000 0
DWIDTH 13 0
BBX 12 12 0 -1
BITMAP
0800
0400
0480
7FC0
0100
0200
0400
0800
1000
6000
9000
8FF0
ENDCHAR
STARTCHAR U_4E4C
ENCODING 20044
SWIDTH 1000 0
DWIDTH 13 0
BBX 12 12 0 -1
BITMAP
0400
3F80
2080
2080
2280
2100
3FE0
0020
FF20
0020
0120
00C0
ENDCHAR
STARTCHAR U_4E4D
ENCODING 20045
SWIDTH 1000 0
DWIDTH 13 0
BBX 12 12 0 -1
BITMAP
1000
1020
1FF0
2400
4400
87E0
0400
0400
07E0
0400
0400
0400
ENDCHAR
STARTCHAR U_4E4E
ENCODING 20046
SWIDTH 1000 0
DWIDTH 13 0
BBX 12 12 0 -1
BITMAP
01C0
7E00
0480
2480
1500
0400
FFF0
0400
0400
0400
1400
0800
ENDCHAR
STARTCHAR U_4E4F
ENCODING 20047
SWIDTH 1000 0
DWIDTH 13 0
BBX 12 12 0 -1
BITMAP
07C0
F800
0800
0400
7F80
0100
0200
0400
0800
3000
5000
8FE0
ENDCHAR
STARTCHAR U_4E50
ENCODING 20048
SWIDTH 1000 0
DWIDTH 13 0
BBX 12 12 0 -1
BITMAP
0780
7800
4400
4400
4400
7FE0
0400
1500
2480
4460
9420
0800
ENDCHAR
STARTCHAR U_4E51
ENCODING 20049
SWIDTH 1000 0
DWIDTH 13 0
BBX 12 12 0 -1
BITMAP
01E0
7E00
0200
1240
1280
2300
4A00
8B00
1280
2270
C220
0200
ENDCHAR
STARTCHAR U_4E52
ENCODING 20050
SWIDTH 1000 0
DWIDTH 13 0
BBX 12 12 0 -1
BITMAP
0180
1E00
1000
1000
1FE0
1080
1080
FFF0
0000
1000
2000
C000
ENDCHAR
STARTCHAR U_4E53
ENCODING 20051
SWIDTH 1000 0
DWIDTH 13 0
BBX 12 12 0 -1
BITMAP
0180
3E00
2000
2000
3FE0
2200
2200
FFF0
0000
0100
0080
0060
ENDCHAR
STARTCHAR U_4E54
ENCODING 20052
SWIDTH 1000 0
DWIDTH 13 0
BBX 12 12 0 -1
BITMAP
01C0
7E00
0820
FFF0
1100
2080
5170
9100
1100
1100
2100
4100
ENDCHAR
STARTCHAR U_4E55
ENCODING 20053
SWIDTH 1000 0
DWIDTH 13 0
BBX 12 12 0 -1
BITMAP
00E0
7F00
4200
5FE0
4200
7FF0
4200
5FE0
5220
5220
9260
8200
ENDCHAR
STARTCHAR U_4E56
ENCODING 20054
SWIDTH 1000 0
DWIDTH 13 0
BBX 12 12 0 -1
BITMAP
01C0
7E00
0420
FFF0
1500
F520
15C0
1500
3520
D4E0
0400
0400
ENDCHAR
STARTCHAR U_4E57
ENCODING 20055
SWIDTH 1000 0
DWIDTH 13 0
BBX 12 12 0 -1
BITMAP
00E0
7F00
0400
7FE0
1480
FFF0
1480
7FE0
0D00
1480
2440
C430
ENDCHAR
STARTCHAR U_4E58
ENCODING 20056
SWIDTH 1000 0
DWIDTH 13 0
BBX 12 12 0 -1
BITMAP
0380
7C00
0400
FFF0
1520
F5C0
1520
EEE0
1500
2480
C470
0420
ENDCHAR
STARTCHAR U_4E59
ENCODING 20057
SWIDTH 1000 0
DWIDTH 13 0
BBX 12 12 0 -1
BITMAP
0000
3FC0
0080
0100
0200
0400
0800
1000
2000
4010
4010
3FF0
ENDCHAR
STARTCHAR U_4E5A
ENCODING 20058
SWIDTH 1000 0
DWIDTH 13 0
BBX 12 12 0 -1
BITMAP
2000
2000
2000
2000
2000
2000
2000
2000
2040
2040
2040
1FC0
ENDCHAR
STARTCHAR U_4E5B
ENCODING 20059
SWIDTH 1000 0
DWIDTH 13 0
BBX 12 12 0 -1
BITMAP
0000
0020
FFF0
0020
0040
0000
0000
0000
0000
0000
0000
0000
ENDCHAR
STARTCHAR U_4E5C
ENCODING 20060
SWIDTH 1000 0
DWIDTH 13 0
BBX 12 12 0 -1
BITMAP
1000
1000
1040
11E0
1640
F840
1040
1140
1080
1010
1010
0FF0
ENDCHAR
STARTCHAR U_4E5D
ENCODING 20061
SWIDTH 1000 0
DWIDTH 13 0
BBX 12 12 0 -1
BITMAP
0800
0800
0880
FFC0
0880
0880
0880
0880
1080
1090
2090
C070
ENDCHAR
STARTCHAR U_4E5E
ENCODING 20062
SWIDTH 1000 0
DWIDTH 13 0
BBX 12 12 0 -1
BITMAP
2000
2000
3FC0
4000
8000
3F00
0400
0800
1000
2020
2020
1FE0
ENDCHAR
STARTCHAR U_4E5F
ENCODING 20063
SWIDTH 1000 0
DWIDTH 13 0
BBX 12 12 0 -1
BITMAP
0200
0200
1220
12E0
1F20
7220
12A0
1240
1200
1010
1010
0FF0
ENDCHAR
STARTCHAR U_4E60
ENCODING 20064
SWIDTH 1000 0
DWIDTH 13 0
BBX 12 12 0 -1
BITMAP
0040
FFE0
0040
2040
1040
1040
0240
0440
1840
E040
4040
0180
ENDCHAR
STARTCHAR U_4E61
ENCODING 20065
SWIDTH 1000 0
DWIDTH 13 0
BBX 12 12 0 -1
BITMAP
0200
0200
0440
0880
1F00
0400
0820
1FC0
0080
0100
0E00
7000
ENDCHAR
STARTCHAR U_4E62
ENCODING 20066
SWIDTH 1000 0
DWIDTH 13 0
BBX 12 12 0 -1
BITMAP
0000
1100
1100
5500
5500
5500
5500
5500
5500
5D10
7510
40F0
ENDCHAR
STARTCHAR U_4E63
ENCODING 20067
SWIDTH 1000 0
DWIDTH 13 0
BBX 12 12 0 -1
BITMAP
1100
1100
2100
4500
7D00
0900
1100
1100
2110
4910
7D10
04F0
ENDCHAR
STARTCHAR U_4E64
ENCODING 20068
SWIDTH 1000 0
DWIDTH 13 0
BBX 12 12 0 -1
BITMAP
FFF0
0400
0480
0460
0420
FFC0
0080
0300
0C00
3010
4010
3FF0
ENDCHAR
STARTCHAR U_4E65
ENCODING 20069
SWIDTH 1000 0
DWIDTH 13 0
BBX 12 12 0 -1
BITMAP
01E0
FE40
4080
2100
0000
FFC0
0080
0300
1C00
6020
8020
7FE0
ENDCHAR
STARTCHAR U_4E66
ENCODING 20070
SWIDTH 1000 0
DWIDTH 13 0
BBX 12 12 0 -1
BITMAP
0440
0430
7FD0
0440
0440
0440
FFF0
0410
0410
04A0
0440
0400
ENDCHAR
STARTCHAR U_4E67
ENCODING 20071
SWIDTH 1000 0
DWIDTH 13 0
BBX 12 12 0 -1
BITMAP
0100
0900
2500
11F0
FF00
0100
7FE0
00C0
0700
1810
2010
3FF0
ENDCHAR
STARTCHAR U_4E68
ENCODING 20072
SWIDTH 1000 0
DWIDTH 13 0
BBX 12 12 0 -1
BITMAP
1080
1080
2080
4480
FE80
0280
7C80
4480
4480
4490
7C90
4470
ENDCHAR
STARTCHAR U_4E69
ENCODING 20073
SWIDTH 1000 0
DWIDTH 13 0
BBX 12 12 0 -1
BITMAP
2080
2080
2480
3E80
2080
2080
FC80
8480
8480
8490
FC90
8470
ENDCHAR
STARTCHAR U_4E6A
ENCODING 20074
SWIDTH 1000 0
DWIDTH 13 0
BBX 12 12 0 -1
BITMAP
F000
17C0
1540
2540
2540
27C0
4540
4540
4540
87D0
8010
7FF0
ENDCHAR
STARTCHAR U_4E6B
ENCODING 20075
SWIDTH 1000 0
DWIDTH 13 0
BBX 12 12 0 -1
BITMAP
2000
FDF0
2510
2510
55F0
8800
7FE0
0180
0E00
3010
4010
3FF0
ENDCHAR
STARTCHAR U_4E6C
ENCODING 20076
SWIDTH 1000 0
DWIDTH 13 0
BBX 12 12 0 -1
BITMAP
7FE0
4000
7FC0
4040
7FC0
4000
FFF0
0180
0E00
3000
4010
3FF0
ENDCHAR
STARTCHAR U_4E6D
ENCODING 20077
SWIDTH 1000 0
DWIDTH 13 0
BBX 12 12 0 -1
BITMAP
FFF0
0800
1FE0
2820
CFE0
0000
FFE0
00C0
0700
3810
4010
3FF0
ENDCHAR
STARTCHAR U_4E6E
ENCODING 20078
SWIDTH 1000 0
DWIDTH 13 0
BBX 12 12 0 -1
BITMAP
0DE0
7120
4520
5D20
6560
0900
7000
FFC0
0300
3C00
4010
3FF0
ENDCHAR
STARTCHAR U_4E6F
ENCODING 20079
SWIDTH 1000 0
DWIDTH 13 0
BBX 12 12 0 -1
BITMAP
01E0
7E40
1280
FFE0
0200
0A00
0400
7FC0
0180
1E10
2010
3FF0
ENDCHAR
STARTCHAR U_4E70
ENCODING 20080
SWIDTH 1000 0
DWIDTH 13 0
BBX 12 12 0 -1
BITMAP
7FF0
0020
1240
0A00
2200
1200
FFF0
0200
0500
0880
3070
C020
ENDCHAR
STARTCHAR U_4E71
ENCODING 20081
SWIDTH 1000 0
DWIDTH 13 0
BBX 12 12 0 -1
BITMAP
0C80
7080
1080
1080
FE80
1080
1080
7C80
4480
4490
7C90
4470
ENDCHAR
STARTCHAR U_4E72
ENCODING 20082
SWIDTH 1000 0
DWIDTH 13 0
BBX 12 12 0 -1
BITMAP
4400
27E0
0920
2300
4480
0840
7FE0
0040
0780
3800
4020
7FE0
ENDCHAR
STARTCHAR U_4E73
ENCODING 20083
SWIDTH 1000 0
DWIDTH 13 0
BBX 12 12 0 -1
BITMAP
0F00
F500
9500
4900
FD00
0900
1100
1D00
F100
1110
5110
20F0
ENDCHAR
STARTCHAR U_4E74
ENCODING 20084
SWIDTH 1000 0
DWIDTH 13 0
BBX 12 12 0 -1
BITMAP
1060
FB80
1200
FBF0
1240
2440
FFC0
0080
0700
3820
4020
7FE0
ENDCHAR
STARTCHAR U_4E75
ENCODING 20085
SWIDTH 1000 0
DWIDTH 13 0
BBX 12 12 0 -1
BITMAP
2080
1080
FE80
4480
2880
FE80
1080
1080
7C80
1090
1090
1070
ENDCHAR
STARTCHAR U_4E76
ENCODING 20086
SWIDTH 1000 0
DWIDTH 13 0
BBX 12 12 0 -1
BITMAP
0280
FFF0
2240
3FC0
2240
3FC0
2240
FFE0
0180
1E10
2010
3FF0
ENDCHAR
STARTCHAR U_4E77
ENCODING 20087
SWIDTH 1000 0
DWIDTH 13 0
BBX 12 12 0 -1
BITMAP
4080
22A0
8290
54A0
21C0
CE00
0000
FFE0
0180
3E00
4010
3FF0
ENDCHAR
STARTCHAR U_4E78
ENCODING 20088
SWIDTH 1000 0
DWIDTH 13 0
BBX 12 12 0 -1
BITMAP
2000
23E0
2A20
BAA0
EAA0
AFF0
AA20
AAA0
8AA0
93F0
8050
7FF0
ENDCHAR
STARTCHAR U_4E79
ENCODING 20089
SWIDTH 1000 0
DWIDTH 13 0
BBX 12 12 0 -1
BITMAP
1100
7D00
1100
7D00
4500
7D00
4500
7D10
1110
FF10
1110
10F0
ENDCHAR
STARTCHAR U_4E7A
ENCODING 20090
SWIDTH 1000 0
DWIDTH 13 0
BBX 12 12 0 -1
BITMAP
38E0
4300
7A00
4BF0
7A40
4440
8840
7FC0
0300
1C00
2010
1FF0
ENDCHAR
STARTCHAR U_4E7B
ENCODING 20091
SWIDTH 1000 0
DWIDTH 13 0
BBX 12 12 0 -1
BITMAP
1040
FE40
20A0
3D10
2660
4480
8860
7F80
0100
0E10
1010
0FF0
ENDCHAR
STARTCHAR U_4E7C
ENCODING 20092
SWIDTH 1000 0
DWIDTH 13 0
BBX 12 12 0 -1
BITMAP
4080
27F0
8080
53E0
2080
CFF0
4000
FFE0
0080
0F10
1010
0FF0
ENDCHAR
STARTCHAR U_4E7D
ENCODING 20093
SWIDTH 1000 0
DWIDTH 13 0
BBX 12 12 0 -1
BITMAP
0400
3F60
0480
FFF0
0520
3CA0
C7E0
0000
7F80
0C10
1010
1FF0
ENDCHAR
STARTCHAR U_4E7E
ENCODING 20094
SWIDTH 1000 0
DWIDTH 13 0
BBX 12 12 0 -1
BITMAP
1080
FE80
10F0
7D00
44E0
7C20
4440
7C40
1080
FD10
1110
10F0
ENDCHAR
STARTCHAR U_4E7F
ENCODING 20095
SWIDTH 1000 0
DWIDTH 13 0
BBX 12 12 0 -1
BITMAP
0D00
F100
2500
9500
2900
4500
F900
4500
FD00
1110
5510
B2F0
ENDCHAR
STARTCHAR U_4E80
ENCODING 20096
SWIDTH 1000 0
DWIDTH 13 0
BBX 12 12 0 -1
BITMAP
1F80
2100
FFC0
4440
7FC0
4440
FFE0
8420
8420
FFE0
0410
07F0
ENDCHAR
STARTCHAR U_4E81
ENCODING 20097
SWIDTH 1000 0
DWIDTH 13 0
BBX 12 12 0 -1
BITMAP
1080
FE80
11F0
7D00
4600
7DE0
4420
7C40
1080
FF10
1110
10F0
ENDCHAR
STARTCHAR U_4E82
ENCODING 20098
SWIDTH 1000 0
DWIDTH 13 0
BBX 12 12 0 -1
BITMAP
0680
F880
5280
2C80
FE80
2480
FE80
AA80
FE90
AA90
9290
AE70
ENDCHAR
STARTCHAR U_4E83
ENCODING 20099
SWIDTH 1000 0
DWIDTH 13 0
BBX 12 12 0 -1
BITMAP
9280
5480
FE80
3880
5480
9280
4280
6F80
AA90
6F90
4290
8270
ENDCHAR
STARTCHAR U_4E84
ENCODING 20100
SWIDTH 1000 0
DWIDTH 13 0
BBX 12 12 0 -1
BITMAP
1080
FE80
1080
7C80
0080
FE80
8280
7C80
4490
7C90
2890
FE70
ENDCHAR
STARTCHAR U_4E85
ENCODING 20101
SWIDTH 1000 0
DWIDTH 13 0
BBX 12 12 0 -1
BITMAP
0200
0200
0200
0200
0200
0200
0200
0200
0200
0200
0A00
0400
ENDCHAR
STARTCHAR U_4E86
ENCODING 20102
SWIDTH 1000 0
DWIDTH 13 0
BBX 12 12 0 -1
BITMAP
7FE0
0040
0080
0300
0200
0200
0200
0200
0200
0200
0A00
0400
ENDCHAR
STARTCHAR U_4E87
ENCODING 20103
SWIDTH 1000 0
DWIDTH 13 0
BBX 12 12 0 -1
BITMAP
1000
1000
1FF0
2220
4240
8200
0200
0200
0200
0200
0A00
0400
ENDCHAR
STARTCHAR U_4E88
ENCODING 20104
SWIDTH 1000 0
DWIDTH 13 0
BBX 12 12 0 -1
BITMAP
7F80
0100
1A00
0400
FFE0
0440
0480
0400
0400
0400
1400
0800
ENDCHAR
STARTCHAR U_4E89
ENCODING 20105
SWIDTH 1000 0
DWIDTH 13 0
BBX 12 12 0 -1
BITMAP
1000
1F00
2200
7FC0
0440
FFF0
0440
7FC0
0400
0400
1400
0800
ENDCHAR
STARTCHAR U_4E8A
ENCODING 20106
SWIDTH 1000 0
DWIDTH 13 0
BBX 12 12 0 -1
BITMAP
0400
FFF0
2480
1500
7FC0
0440
FFF0
0440
7FC0
0400
1400
0800
ENDCHAR
STARTCHAR U_4E8B
ENCODING 20107
SWIDTH 1000 0
DWIDTH 13 0
BBX 12 12 0 -1
BITMAP
0400
FFF0
0400
3F80
2480
7FC0
0440
FFF0
0440
7FC0
0400
0C00
ENDCHAR
STARTCHAR U_4E8C
ENCODING 20108
SWIDTH 1000 0
DWIDTH 13 0
BBX 12 12 0 -1
BITMAP
0000
0040
7FE0
0000
0000
0000
0000
0000
0000
0020
FFF0
0000
ENDCHAR
STARTCHAR U_4E8D
ENCODING 20109
SWIDTH 1000 0
DWIDTH 13 0
BBX 12 12 0 -1
BITMAP
3FC0
0000
0000
0000
FFF0
0200
0200
0200
0200
0200
0A00
0400
ENDCHAR
STARTCHAR U_4E8E
ENCODING 20110
SWIDTH 1000 0
DWIDTH 13 0
BBX 12 12 0 -1
BITMAP
7FC0
0400
0400
0400
0400
FFE0
0400
0400
0400
0400
1400
0800
ENDCHAR
STARTCHAR U_4E8F
ENCODING 20111
SWIDTH 1000 0
DWIDTH 13 0
BBX 12 12 0 -1
BITMAP
3F80
0000
0000
FFF0
0800
1000
3FC0
0040
0040
0040
0480
0300
ENDCHAR
STARTCHAR U_4E90
ENCODING 20112
SWIDTH 1000 0
DWIDTH 13 0
BBX 12 12 0 -1
BITMAP
3FE0
0800
0800
FFF0
1000
1000
1FC0
0040
0040
0040
0480
0300
ENDCHAR
STARTCHAR U_4E91
ENCODING 20113
SWIDTH 1000 0
DWIDTH 13 0
BBX 12 12 0 -1
BITMAP
3FC0
0000
0000
0000
FFF0
0800
1000
1100
2080
7FC0
2040
0000
ENDCHAR
STARTCHAR U_4E92
ENCODING 20114
SWIDTH 1000 0
DWIDTH 13 0
BBX 12 12 0 -1
BITMAP
FFE0
1000
1000
1FC0
1080
2080
2080
7F00
0100
0100
0100
FFE0
ENDCHAR
STARTCHAR U_4E93
ENCODING 20115
SWIDTH 1000 0
DWIDTH 13 0
BBX 12 12 0 -1
BITMAP
3FC0
0000
0000
0000
FFF0
1080
1080
1080
1080
2080
2080
4080
ENDCHAR
STARTCHAR U_4E94
ENCODING 20116
SWIDTH 1000 0
DWIDTH 13 0
BBX 12 12 0 -1
BITMAP
7FE0
0800
0800
0800
0800
7F80
0880
0880
1080
1080
1080
FFF0
ENDCHAR
STARTCHAR U_4E95
ENCODING 20117
SWIDTH 1000 0
DWIDTH 13 0
BBX 12 12 0 -1
BITMAP
1100
1100
1100
FFE0
1100
1100
1100
FFE0
1100
2100
2100
4100
ENDCHAR
STARTCHAR U_4E96
ENCODING 20118
SWIDTH 1000 0
DWIDTH 13 0
BBX 12 12 0 -1
BITMAP
0000
3FE0
0000
0000
FFF0
0000
0000
3FE0
0000
0000
0000
FFF0
ENDCHAR
STARTCHAR U_4E97
ENCODING 20119
SWIDTH 1000 0
DWIDTH 13 0
BBX 12 12 0 -1
BITMAP
0200
0200
2240
2240
3FC0
0000
0000
3FC0
0000
0000
0000
FFF0
ENDCHAR
STARTCHAR U_4E98
ENCODING 20120
SWIDTH 1000 0
DWIDTH 13 0
BBX 12 12 0 -1
BITMAP
FFE0
0000
3F80
2080
2080
3F80
2080
2080
3F80
2080
0000
FFE0
ENDCHAR
STARTCHAR U_4E99
ENCODING 20121
SWIDTH 1000 0
DWIDTH 13 0
BBX 12 12 0 -1
BITMAP
0000
7FF0
0800
0800
0F80
1080
1480
2280
2900
0500
0100
7FF0
ENDCHAR
STARTCHAR U_4E9A
ENCODING 20122
SWIDTH 1000 0
DWIDTH 13 0
BBX 12 12 0 -1
BITMAP
FFE0
1200
1200
1200
9240
5240
5280
1200
1200
1200
FFE0
0000
ENDCHAR
STARTCHAR U_4E9B
ENCODING 20123
SWIDTH 1000 0
DWIDTH 13 0
BBX 12 12 0 -1
BITMAP
1200
1220
5A40
5380
5220
5A20
E1E0
0000
3F80
0000
0000
FFE0
ENDCHAR
STARTCHAR U_4E9C
ENCODING 20124
SWIDTH 1000 0
DWIDTH 13 0
BBX 12 12 0 -1
BITMAP
FFF0
0900
0900
7FE0
4920
4920
7FE0
0900
0900
0900
0900
FFF0
ENDCHAR
STARTCHAR U_4E9D
ENCODING 20125
SWIDTH 1000 0
DWIDTH 13 0
BBX 12 12 0 -1
BITMAP
0400
0880
1FC0
0000
2040
4890
FDF0
0010
3FC0
0000
0000
FFF0
ENDCHAR
STARTCHAR U_4E9E
ENCODING 20126
SWIDTH 1000 0
DWIDTH 13 0
BBX 12 12 0 -1
BITMAP
0000
FFF0
0900
0900
79E0
4020
4020
4020
79E0
0900
0900
FFF0
ENDCHAR
STARTCHAR U_4E9F
ENCODING 20127
SWIDTH 1000 0
DWIDTH 13 0
BBX 12 12 0 -1
BITMAP
7FC0
0100
0200
75E0
5520
5540
5480
7480
0560
1620
0800
FFF0
ENDCHAR
STARTCHAR U_4EA0
ENCODING 20128
SWIDTH 1000 0
DWIDTH 13 0
BBX 12 12 0 -1
BITMAP
0400
0200
0200
FFF0
0000
0000
0000
0000
0000
0000
0000
0000
ENDCHAR
STARTCHAR U_4EA1
ENCODING 20129
SWIDTH 1000 0
DWIDTH 13 0
BBX 12 12 0 -1
BITMAP
0800
0600
0200
FFF0
1000
1000
1000
1000
1000
1000
1000
1FE0
ENDCHAR
STARTCHAR U_4EA2
ENCODING 20130
SWIDTH 1000 0
DWIDTH 13 0
BBX 12 12 0 -1
BITMAP
0800
0400
FFF0
0000
1F00
1100
1100
1100
1100
2120
4120
80E0
ENDCHAR
STARTCHAR U_4EA3
ENCODING 20131
SWIDTH 1000 0
DWIDTH 13 0
BBX 12 12 0 -1
BITMAP
0800
0400
0400
FFF0
1100
1100
1100
1100
2100
2100
4100
8100
ENDCHAR
STARTCHAR U_4EA4
ENCODING 20132
SWIDTH 1000 0
DWIDTH 13 0
BBX 12 12 0 -1
BITMAP
0800
0400
FFE0
1100
2080
4140
9200
0A00
0400
0A00
1180
E070
ENDCHAR
STARTCHAR U_4EA5
ENCODING 20133
SWIDTH 1000 0
DWIDTH 13 0
BBX 12 12 0 -1
BITMAP
0800
0440
FFE0
0800
1100
3E00
0480
0900
1200
E500
08C0
7020
ENDCHAR
STARTCHAR U_4EA6
ENCODING 20134
SWIDTH 1000 0
DWIDTH 13 0
BBX 12 12 0 -1
BITMAP
0800
0400
FFF0
0900
0900
2940
4920
8920
1100
1100
2500
4200
ENDCHAR
STARTCHAR U_4EA7
ENCODING 20135
SWIDTH 1000 0
DWIDTH 13 0
BBX 12 12 0 -1
BITMAP
0400
0200
7FF0
0880
0500
3FF0
2000
2000
2000
4000
4000
8000
ENDCHAR
STARTCHAR U_4EA8
ENCODING 20136
SWIDTH 1000 0
DWIDTH 13 0
BBX 12 12 0 -1
BITMAP
0400
FFE0
0000
3F80
2080
3F80
0000
7F80
0200
0400
1400
0800
ENDCHAR
STARTCHAR U_4EA9
ENCODING 20137
SWIDTH 1000 0
DWIDTH 13 0
BBX 12 12 0 -1
BITMAP
0400
0200
FFF0
0000
3FC0
2240
2240
3FC0
2240
2240
3FC0
2040
ENDCHAR
STARTCHAR U_4EAA
ENCODING 20138
SWIDTH 1000 0
DWIDTH 13 0
BBX 12 12 0 -1
BITMAP
0400
FFF0
1080
50A0
9090
2290
C100
0000
7F80
0080
0040
0030
ENDCHAR
STARTCHAR U_4EAB
ENCODING 20139
SWIDTH 1000 0
DWIDTH 13 0
BBX 12 12 0 -1
BITMAP
0400
FFE0
0000
3F80
2080
3F80
0000
7F80
0200
FFE0
0400
1C00
ENDCHAR
STARTCHAR U_4EAC
ENCODING 20140
SWIDTH 1000 0
DWIDTH 13 0
BBX 12 12 0 -1
BITMAP
0400
FFE0
0000
3F80
2080
2080
3F80
0400
2500
4480
9440
0800
ENDCHAR
STARTCHAR U_4EAD
ENCODING 20141
SWIDTH 1000 0
DWIDTH 13 0
BBX 12 12 0 -1
BITMAP
0400
FFF0
1080
1F80
0000
7FF0
4010
BFA0
0200
0200
0A00
0400
ENDCHAR
STARTCHAR U_4EAE
ENCODING 20142
SWIDTH 1000 0
DWIDTH 13 0
BBX 12 12 0 -1
BITMAP
0400
FFF0
1040
1FC0
0000
7FF0
4010
4F90
0880
0890
1090
6070
ENDCHAR
STARTCHAR U_4EAF
ENCODING 20143
SWIDTH 1000 0
DWIDTH 13 0
BBX 12 12 0 -1
BITMAP
0200
FFF0
0000
1FC0
1040
1FC0
0000
3FE0
2020
3FE0
2020
3FE0
ENDCHAR
STARTCHAR U_4EB0
ENCODING 20144
SWIDTH 1000 0
DWIDTH 13 0
BBX 12 12 0 -1
BITMAP
0200
FFF0
0000
3FC0
2040
3FC0
2040
3FC0
0200
2240
4A20
8410
ENDCHAR
STARTCHAR U_4EB1
ENCODING 20145
SWIDTH 1000 0
DWIDTH 13 0
BBX 12 12 0 -1
BITMAP
0800
0400
FFF0
0000
17E0
1420
27E0
6420
A7E0
2420
2000
2FF0
ENDCHAR
STARTCHAR U_4EB2
ENCODING 20146
SWIDTH 1000 0
DWIDTH 13 0
BBX 12 12 0 -1
BITMAP
0200
7FE0
1080
0900
FFF0
0200
0200
7FE0
1280
2240
4A30
0400
ENDCHAR
STARTCHAR U_4EB3
ENCODING 20147
SWIDTH 1000 0
DWIDTH 13 0
BBX 12 12 0 -1
BITMAP
0200
FFF0
0000
1F80
1080
FFF0
8010
3F80
0400
7FC0
0400
03F0
ENDCHAR
STARTCHAR U_4EB4
ENCODING 20148
SWIDTH 1000 0
DWIDTH 13 0
BBX 12 12 0 -1
BITMAP
0400
FFF0
1100
1F00
0000
FFF0
8410
3FC0
0400
7FC0
0850
F070
ENDCHAR
STARTCHAR U_4EB5
ENCODING 20149
SWIDTH 1000 0
DWIDTH 13 0
BBX 12 12 0 -1
BITMAP
0400
FFE0
2100
FFC0
2540
F350
24B0
6C10
1240
F180
1480
3870
ENDCHAR
STARTCHAR U_4EB6
ENCODING 20150
SWIDTH 1000 0
DWIDTH 13 0
BBX 12 12 0 -1
BITMAP
0400
FFF0
2040
2F40
2940
3FC0
0000
1F80
1080
1F80
1080
FFF0
ENDCHAR
STARTCHAR U_4EB7
ENCODING 20151
SWIDTH 1000 0
DWIDTH 13 0
BBX 12 12 0 -1
BITMAP
0100
7FF0
0440
3FF0
2280
2FE0
22A0
3FF0
22A0
2FE0
46C0
5AB0
ENDCHAR
STARTCHAR U_4EB8
ENCODING 20152
SWIDTH 1000 0
DWIDTH 13 0
BBX 12 12 0 -1
BITMAP
2220
F940
57F0
7490
07F0
FC90
17F0
2080
37F0
E080
2080
6080
ENDCHAR
STARTCHAR U_4EB9
ENCODING 20153
SWIDTH 1000 0
DWIDTH 13 0
BBX 12 12 0 -1
BITMAP
0200
FFF0
0000
3760
2520
3760
2520
FFF0
9040
1FC0
1040
FFF0
ENDCHAR
STARTCHAR U_4EBA
ENCODING 20154
SWIDTH 1000 0
DWIDTH 13 0
BBX 12 12 0 -1
BITMAP
0400
0400
0400
0400
0400
0400
0A00
0A00
1100
2080
4070
8020
ENDCHAR
STARTCHAR U_4EBB
ENCODING 20155
SWIDTH 1000 0
DWIDTH 13 0
BBX 12 12 0 -1
BITMAP
1000
1000
2000
2000
6000
A000
2000
2000
2000
2000
2000
2000
ENDCHAR
STARTCHAR U_4EBC
ENCODING 20156
SWIDTH 1000 0
DWIDTH 13 0
BBX 12 12 0 -1
BITMAP
0200
0200
0200
0500
0500
0880
0880
1040
2030
0000
7FF0
0000
ENDCHAR
STARTCHAR U_4EBD
ENCODING 20157
SWIDTH 1000 0
DWIDTH 13 0
BBX 12 12 0 -1
BITMAP
0400
0400
0A00
0900
1080
2040
C830
0420
0300
0100
0000
0000
ENDCHAR
STARTCHAR U_4EBE
ENCODING 20158
SWIDTH 1000 0
DWIDTH 13 0
BBX 12 12 0 -1
BITMAP
0200
8200
8200
8200
8500
8500
8880
8880
9040
A030
8000
FFF0
ENDCHAR
STARTCHAR U_4EBF
ENCODING 20159
SWIDTH 1000 0
DWIDTH 13 0
BBX 12 12 0 -1
BITMAP
1000
17E0
2040
2080
6100
A200
2200
2400
2400
2810
2810
27F0
ENDCHAR
STARTCHAR U_4EC0
ENCODING 20160
SWIDTH 1000 0
DWIDTH 13 0
BBX 12 12 0 -1
BITMAP
1100
1100
2100
2100
6FF0
A100
2100
2100
2100
2100
2100
2100
ENDCHAR
STARTCHAR U_4EC1
ENCODING 20161
SWIDTH 1000 0
DWIDTH 13 0
BBX 12 12 0 -1
BITMAP
1000
1000
27E0
2000
6000
A000
2000
2000
2000
2020
2FF0
2000
ENDCHAR
STARTCHAR U_4EC2
ENCODING 20162
SWIDTH 1000 0
DWIDTH 13 0
BBX 12 12 0 -1
BITMAP
1100
1100
2100
2FF0
2110
6110
A110
2110
2210
2210
24A0
2840
ENDCHAR
STARTCHAR U_4EC3
ENCODING 20163
SWIDTH 1000 0
DWIDTH 13 0
BBX 12 12 0 -1
BITMAP
1000
17F0
2080
2080
6080
A080
2080
2080
2080
2080
2280
2100
ENDCHAR
STARTCHAR U_4EC4
ENCODING 20164
SWIDTH 1000 0
DWIDTH 13 0
BBX 12 12 0 -1
BITMAP
3FF0
2200
2200
2200
2200
2200
2200
2500
2500
6480
4870
9020
ENDCHAR
STARTCHAR U_4EC5
ENCODING 20165
SWIDTH 1000 0
DWIDTH 13 0
BBX 12 12 0 -1
BITMAP
1000
1FE0
1420
2440
2440
6440
A280
2280
2100
2280
2440
2830
ENDCHAR
STARTCHAR U_4EC6
ENCODING 20166
SWIDTH 1000 0
DWIDTH 13 0
BBX 12 12 0 -1
BITMAP
0900
0900
0900
1100
1180
3140
5130
9110
1100
1100
1100
1100
ENDCHAR
STARTCHAR U_4EC7
ENCODING 20167
SWIDTH 1000 0
DWIDTH 13 0
BBX 12 12 0 -1
BITMAP
1200
1200
2200
2FC0
6240
A240
2240
2240
2440
2450
2850
3030
ENDCHAR
STARTCHAR U_4EC8
ENCODING 20168
SWIDTH 1000 0
DWIDTH 13 0
BBX 12 12 0 -1
BITMAP
1000
1080
2280
2280
6280
A280
2240
2240
2440
2420
2820
3010
ENDCHAR
STARTCHAR U_4EC9
ENCODING 20169
SWIDTH 1000 0
DWIDTH 13 0
BBX 12 12 0 -1
BITMAP
1000
13C0
2240
2240
6240
A240
2240
2240
2440
2450
2850
3030
ENDCHAR
STARTCHAR U_4ECA
ENCODING 20170
SWIDTH 1000 0
DWIDTH 13 0
BBX 12 12 0 -1
BITMAP
0400
0400
0A00
1100
2880
C460
0000
7F80
0100
0200
0200
0400
ENDCHAR
STARTCHAR U_4ECB
ENCODING 20171
SWIDTH 1000 0
DWIDTH 13 0
BBX 12 12 0 -1
BITMAP
0400
0A00
1100
2080
4040
9130
1100
1100
1100
2100
2100
4100
ENDCHAR
STARTCHAR U_4ECC
ENCODING 20172
SWIDTH 1000 0
DWIDTH 13 0
BBX 12 12 0 -1
BITMAP
0200
0200
0500
0480
0840
1220
2220
4500
0480
0840
1020
6010
ENDCHAR
STARTCHAR U_4ECD
ENCODING 20173
SWIDTH 1000 0
DWIDTH 13 0
BBX 12 12 0 -1
BITMAP
17E0
1220
2220
2240
6240
A2F0
2210
2210
2410
2410
24A0
2840
ENDCHAR
STARTCHAR U_4ECE
ENCODING 20174
SWIDTH 1000 0
DWIDTH 13 0
BBX 12 12 0 -1
BITMAP
1100
1100
1100
1100
1100
1100
2900
2680
2280
4440
8820
1010
ENDCHAR
STARTCHAR U_4ECF
ENCODING 20175
SWIDTH 1000 0
DWIDTH 13 0
BBX 12 12 0 -1
BITMAP
1080
1080
2080
6100
A100
2200
2200
2440
2420
2810
2FF0
2010
ENDCHAR
STARTCHAR U_4ED0
ENCODING 20176
SWIDTH 1000 0
DWIDTH 13 0
BBX 12 12 0 -1
BITMAP
0200
0200
0500
0880
1240
2220
C210
0200
3FE0
0200
0200
0200
ENDCHAR
STARTCHAR U_4ED1
ENCODING 20177
SWIDTH 1000 0
DWIDTH 13 0
BBX 12 12 0 -1
BITMAP
0400
0600
0900
1080
2040
D030
1180
1600
1800
1040
1040
0FC0
ENDCHAR
STARTCHAR U_4ED2
ENCODING 20178
SWIDTH 1000 0
DWIDTH 13 0
BBX 12 12 0 -1
BITMAP
0400
0400
0A00
0900
1080
2040
CC30
0300
0100
1800
0600
0100
ENDCHAR
STARTCHAR U_4ED3
ENCODING 20179
SWIDTH 1000 0
DWIDTH 13 0
BBX 12 12 0 -1
BITMAP
0400
0600
0900
1080
2040
DFB0
1080
1480
1300
1020
1020
0FE0
ENDCHAR
STARTCHAR U_4ED4
ENCODING 20180
SWIDTH 1000 0
DWIDTH 13 0
BBX 12 12 0 -1
BITMAP
17F0
1020
2040
2080
6080
AFF0
2080
2080
2080
2080
2280
2100
ENDCHAR
STARTCHAR U_4ED5
ENCODING 20181
SWIDTH 1000 0
DWIDTH 13 0
BBX 12 12 0 -1
BITMAP
1100
1100
2100
2100
6FF0
A100
2100
2100
2100
2100
2100
27E0
ENDCHAR
STARTCHAR U_4ED6
ENCODING 20182
SWIDTH 1000 0
DWIDTH 13 0
BBX 12 12 0 -1
BITMAP
1100
1100
2520
25F0
6720
BD20
2520
2560
2500
2510
2410
23F0
ENDCHAR
STARTCHAR U_4ED7
ENCODING 20183
SWIDTH 1000 0
DWIDTH 13 0
BBX 12 12 0 -1
BITMAP
1080
1080
2080
2FF0
6080
A480
2280
2280
2100
2180
2240
2C30
ENDCHAR
STARTCHAR U_4ED8
ENCODING 20184
SWIDTH 1000 0
DWIDTH 13 0
BBX 12 12 0 -1
BITMAP
1040
1040
2040
2FF0
6040
A440
2240
2240
2040
2040
2140
2080
ENDCHAR
STARTCHAR U_4ED9
ENCODING 20185
SWIDTH 1000 0
DWIDTH 13 0
BBX 12 12 0 -1
BITMAP
1080
1080
2080
2490
6490
A490
2490
2490
2490
2490
27F0
2410
ENDCHAR
STARTCHAR U_4EDA
ENCODING 20186
SWIDTH 1000 0
DWIDTH 13 0
BBX 12 12 0 -1
BITMAP
0400
0400
1B00
20C0
C430
0400
4440
4440
4440
4440
7FC0
4040
ENDCHAR
STARTCHAR U_4EDB
ENCODING 20187
SWIDTH 1000 0
DWIDTH 13 0
BBX 12 12 0 -1
BITMAP
1040
10E0
2300
6D00
A100
21F0
2F00
2100
2100
2110
2110
20F0
ENDCHAR
STARTCHAR U_4EDC
ENCODING 20188
SWIDTH 1000 0
DWIDTH 13 0
BBX 12 12 0 -1
BITMAP
1000
1000
27E0
6100
A100
2100
2100
2100
2100
2100
2FF0
2000
ENDCHAR
STARTCHAR U_4EDD
ENCODING 20189
SWIDTH 1000 0
DWIDTH 13 0
BBX 12 12 0 -1
BITMAP
0400
0600
0900
1080
2040
C030
3F80
0400
0400
0400
0400
7FE0
ENDCHAR
STARTCHAR U_4EDE
ENCODING 20190
SWIDTH 1000 0
DWIDTH 13 0
BBX 12 12 0 -1
BITMAP
1000
17F0
2090
2090
6490
A490
2490
2910
2110
2210
2410
2860
ENDCHAR
STARTCHAR U_4EDF
ENCODING 20191
SWIDTH 1000 0
DWIDTH 13 0
BBX 12 12 0 -1
BITMAP
1060
1780
2080
2080
6080
AFF0
2080
2080
2080
2080
2080
2080
ENDCHAR
STARTCHAR U_4EE0
ENCODING 20192
SWIDTH 1000 0
DWIDTH 13 0
BBX 12 12 0 -1
BITMAP
1000
17E0
1100
6100
A100
2FF0
2100
2100
2100
2100
2100
2100
ENDCHAR
STARTCHAR U_4EE1
ENCODING 20193
SWIDTH 1000 0
DWIDTH 13 0
BBX 12 12 0 -1
BITMAP
1200
1220
23F0
2400
6800
A7E0
2040
2180
2200
2410
2410
23F0
ENDCHAR
STARTCHAR U_4EE2
ENCODING 20194
SWIDTH 1000 0
DWIDTH 13 0
BBX 12 12 0 -1
BITMAP
1400
1400
27E0
6820
A020
2220
2120
2120
2020
2020
20A0
2040
ENDCHAR
STARTCHAR U_4EE3
ENCODING 20195
SWIDTH 1000 0
DWIDTH 13 0
BBX 12 12 0 -1
BITMAP
1280
1240
2200
23E0
7E00
A200
2200
2200
2100
2110
2090
2070
ENDCHAR
STARTCHAR U_4EE4
ENCODING 20196
SWIDTH 1000 0
DWIDTH 13 0
BBX 12 12 0 -1
BITMAP
0400
0600
0900
1480
2240
C030
3F80
0100
1200
0C00
0200
0100
ENDCHAR
STARTCHAR U_4EE5
ENCODING 20197
SWIDTH 1000 0
DWIDTH 13 0
BBX 12 12 0 -1
BITMAP
0040
2040
2440
2240
2240
2040
2040
2480
28C0
3120
6210
0C10
ENDCHAR
STARTCHAR U_4EE6
ENCODING 20198
SWIDTH 1000 0
DWIDTH 13 0
BBX 12 12 0 -1
BITMAP
1000
1100
2100
6100
A540
2540
2520
2920
2900
2100
2500
2200
ENDCHAR
STARTCHAR U_4EE7
ENCODING 20199
SWIDTH 1000 0
DWIDTH 13 0
BBX 12 12 0 -1
BITMAP
0400
0400
07C0
0400
0400
FFF0
0400
0600
0900
1080
2040
C030
ENDCHAR
STARTCHAR U_4EE8
ENCODING 20200
SWIDTH 1000 0
DWIDTH 13 0
BBX 12 12 0 -1
BITMAP
1000
1020
2FF0
2000
6000
A040
27E0
2000
2000
2000
2020
2FF0
ENDCHAR
STARTCHAR U_4EE9
ENCODING 20201
SWIDTH 1000 0
DWIDTH 13 0
BBX 12 12 0 -1
BITMAP
1100
1100
2100
6100
A1E0
2100
2100
2100
2100
2100
2100
2FF0
ENDCHAR
STARTCHAR U_4EEA
ENCODING 20202
SWIDTH 1000 0
DWIDTH 13 0
BBX 12 12 0 -1
BITMAP
1200
1120
2520
2420
6440
A440
2280
2280
2100
2280
2440
2830
ENDCHAR
STARTCHAR U_4EEB
ENCODING 20203
SWIDTH 1000 0
DWIDTH 13 0
BBX 12 12 0 -1
BITMAP
1100
1100
2200
2200
6480
A880
2100
2100
2240
2420
2FE0
2410
ENDCHAR
STARTCHAR U_4EEC
ENCODING 20204
SWIDTH 1000 0
DWIDTH 13 0
BBX 12 12 0 -1
BITMAP
1400
12F0
2410
2410
6410
A410
2410
2410
2410
2410
2450
2420
ENDCHAR
STARTCHAR U_4EED
ENCODING 20205
SWIDTH 1000 0
DWIDTH 13 0
BBX 12 12 0 -1
BITMAP
1000
17E0
2120
2120
6920
A520
2320
21A0
2270
2220
24A0
2840
ENDCHAR
STARTCHAR U_4EEE
ENCODING 20206
SWIDTH 1000 0
DWIDTH 13 0
BBX 12 12 0 -1
BITMAP
1070
1780
2400
2400
67F0
A510
2510
24A0
24A0
2840
28A0
3310
ENDCHAR
STARTCHAR U_4EEF
ENCODING 20207
SWIDTH 1000 0
DWIDTH 13 0
BBX 12 12 0 -1
BITMAP
1100
1100
2100
2540
6520
A510
2910
2920
3020
2040
2180
2E00
ENDCHAR
STARTCHAR U_4EF0
ENCODING 20208
SWIDTH 1000 0
DWIDTH 13 0
BBX 12 12 0 -1
BITMAP
1100
16F0
2490
2490
6490
A490
2490
2590
2690
28B0
2080
2080
ENDCHAR
STARTCHAR U_4EF1
ENCODING 20209
SWIDTH 1000 0
DWIDTH 13 0
BBX 12 12 0 -1
BITMAP
1100
1100
2280
2440
6A20
B110
2100
2FE0
2040
2080
2080
2100
ENDCHAR
STARTCHAR U_4EF2
ENCODING 20210
SWIDTH 1000 0
DWIDTH 13 0
BBX 12 12 0 -1
BITMAP
1080
1080
2080
27F0
6490
A490
27F0
2490
2080
2080
2080
2080
ENDCHAR
STARTCHAR U_4EF3
ENCODING 20211
SWIDTH 1000 0
DWIDTH 13 0
BBX 12 12 0 -1
BITMAP
1480
1480
2480
24B0
67C0
A480
2480
2480
2480
2580
2690
2470
ENDCHAR
STARTCHAR U_4EF4
ENCODING 20212
SWIDTH 1000 0
DWIDTH 13 0
BBX 12 12 0 -1
BITMAP
1000
13F0
2210
2210
63F0
A210
2210
23F0
2210
2210
2450
2820
ENDCHAR
STARTCHAR U_4EF5
ENCODING 20213
SWIDTH 1000 0
DWIDTH 13 0
BBX 12 12 0 -1
BITMAP
1200
1200
23E0
2480
6080
A080
2FF0
2080
2080
2080
2080
2080
ENDCHAR
STARTCHAR U_4EF6
ENCODING 20214
SWIDTH 1000 0
DWIDTH 13 0
BBX 12 12 0 -1
BITMAP
1080
1480
2480
27E0
6880
A080
2080
2FF0
2080
2080
2080
2080
ENDCHAR
STARTCHAR U_4EF7
ENCODING 20215
SWIDTH 1000 0
DWIDTH 13 0
BBX 12 12 0 -1
BITMAP
1100
1100
2280
2440
6830
A240
2240
2240
2240
2240
2440
2840
ENDCHAR
STARTCHAR U_4EF8
ENCODING 20216
SWIDTH 1000 0
DWIDTH 13 0
BBX 12 12 0 -1
BITMAP
1060
1780
1100
2100
2100
6FF0
A100
2280
2280
2440
2820
3010
ENDCHAR
STARTCHAR U_4EF9
ENCODING 20217
SWIDTH 1000 0
DWIDTH 13 0
BBX 12 12 0 -1
BITMAP
1100
1100
2FF0
2100
6100
A7E0
2100
2100
2FF0
2100
2100
2100
ENDCHAR
STARTCHAR U_4EFA
ENCODING 20218
SWIDTH 1000 0
DWIDTH 13 0
BBX 12 12 0 -1
BITMAP
0400
0400
0A00
1100
20C0
C030
1FC0
1000
1F80
1000
1000
1FC0
ENDCHAR
STARTCHAR U_4EFB
ENCODING 20219
SWIDTH 1000 0
DWIDTH 13 0
BBX 12 12 0 -1
BITMAP
1000
10E0
2700
2100
6100
A100
2FF0
2100
2100
2100
2100
2FF0
ENDCHAR
STARTCHAR U_4EFC
ENCODING 20220
SWIDTH 1000 0
DWIDTH 13 0
BBX 12 12 0 -1
BITMAP
1000
1000
2FF0
2100
6100
A100
27E0
2100
2100
2100
2100
2FF0
ENDCHAR
STARTCHAR U_4EFD
ENCODING 20221
SWIDTH 1000 0
DWIDTH 13 0
BBX 12 12 0 -1
BITMAP
1080
1280
2240
2420
6810
A7E0
2120
2120
2220
2220
24A0
2840
ENDCHAR
STARTCHAR U_4EFE
ENCODING 20222
SWIDTH 1000 0
DWIDTH 13 0
BBX 12 12 0 -1
BITMAP
1000
17F0
2200
2200
6200
A7E0
2420
2420
27E0
2040
2040
2FF0
ENDCHAR
STARTCHAR U_4EFF
ENCODING 20223
SWIDTH 1000 0
DWIDTH 13 0
BBX 12 12 0 -1
BITMAP
1100
1080
2080
2FF0
6200
A3E0
2220
2220
2220
2420
24A0
2840
ENDCHAR
STARTCHAR U_4F00
ENCODING 20224
SWIDTH 1000 0
DWIDTH 13 0
BBX 12 12 0 -1
BITMAP
1080
1280
2240
2440
6420
A930
3120
2200
2240
2420
2FF0
2410
ENDCHAR
STARTCHAR U_4F01
ENCODING 20225
SWIDTH 1000 0
DWIDTH 13 0
BBX 12 12 0 -1
BITMAP
0400
0600
0900
1080
2440
C430
0400
2780
2400
2400
2400
FFF0
ENDCHAR
STARTCHAR U_4F02
ENCODING 20226
SWIDTH 1000 0
DWIDTH 13 0
BBX 12 12 0 -1
BITMAP
1080
1080
2FF0
2080
67F0
A490
2490
2490
2490
24D0
20A0
2080
ENDCHAR
STARTCHAR U_4F03
ENCODING 20227
SWIDTH 1000 0
DWIDTH 13 0
BBX 12 12 0 -1
BITMAP
1000
17E0
2040
2280
6100
AFF0
2120
2140
2100
2100
2500
2200
ENDCHAR
STARTCHAR U_4F04
ENCODING 20228
SWIDTH 1000 0
DWIDTH 13 0
BBX 12 12 0 -1
BITMAP
1000
17E0
1120
2120
27E0
6500
A900
2FF0
2110
2150
2120
2100
ENDCHAR
STARTCHAR U_4F05
ENCODING 20229
SWIDTH 1000 0
DWIDTH 13 0
BBX 12 12 0 -1
BITMAP
1100
1100
2FE0
2100
6920
A920
2920
2FE0
2100
2110
2110
20F0
ENDCHAR
STARTCHAR U_4F06
ENCODING 20230
SWIDTH 1000 0
DWIDTH 13 0
BBX 12 12 0 -1
BITMAP
1400
1400
27F0
2950
6950
B290
2290
2490
2510
2910
2250
2420
ENDCHAR
STARTCHAR U_4F07
ENCODING 20231
SWIDTH 1000 0
DWIDTH 13 0
BBX 12 12 0 -1
BITMAP
1000
13C0
1240
2240
2430
6800
A7E0
2220
2140
2080
2140
2630
ENDCHAR
STARTCHAR U_4F08
ENCODING 20232
SWIDTH 1000 0
DWIDTH 13 0
BBX 12 12 0 -1
BITMAP
1100
1080
1040
2200
2200
6A20
AA10
3210
2200
2220
2220
21E0
ENDCHAR
STARTCHAR U_4F09
ENCODING 20233
SWIDTH 1000 0
DWIDTH 13 0
BBX 12 12 0 -1
BITMAP
1100
1080
2FF0
2000
63C0
A240
2240
2240
2240
2250
2450
2830
ENDCHAR
STARTCHAR U_4F0A
ENCODING 20234
SWIDTH 1000 0
DWIDTH 13 0
BBX 12 12 0 -1
BITMAP
1000
17E0
2220
2220
6FF0
A220
2220
2FE0
2200
2400
2400
2800
ENDCHAR
STARTCHAR U_4F0B
ENCODING 20235
SWIDTH 1000 0
DWIDTH 13 0
BBX 12 12 0 -1
BITMAP
1000
17E0
1220
2240
2280
62F0
A310
2290
24A0
2440
29A0
3610
ENDCHAR
STARTCHAR U_4F0C
ENCODING 20236
SWIDTH 1000 0
DWIDTH 13 0
BBX 12 12 0 -1
BITMAP
1000
17F0
1400
25E0
2520
6520
A5A0
2540
2500
2910
2910
30F0
ENDCHAR
STARTCHAR U_4F0D
ENCODING 20237
SWIDTH 1000 0
DWIDTH 13 0
BBX 12 12 0 -1
BITMAP
1000
1FF0
2100
2100
6120
AFF0
2120
2120
2220
2220
2220
2FF0
ENDCHAR
STARTCHAR U_4F0E
ENCODING 20238
SWIDTH 1000 0
DWIDTH 13 0
BBX 12 12 0 -1
BITMAP
1100
1100
2FF0
2100
6100
AFE0
2440
2440
2280
2100
22C0
2C30
ENDCHAR
STARTCHAR U_4F0F
ENCODING 20239
SWIDTH 1000 0
DWIDTH 13 0
BBX 12 12 0 -1
BITMAP
1100
1140
2120
2100
6FF0
A100
2100
2280
2280
2440
2840
3030
ENDCHAR
STARTCHAR U_4F10
ENCODING 20240
SWIDTH 1000 0
DWIDTH 13 0
BBX 12 12 0 -1
BITMAP
1280
1240
2200
22F0
7F00
A240
2240
2280
2100
2290
2450
2830
ENDCHAR
STARTCHAR U_4F11
ENCODING 20241
SWIDTH 1000 0
DWIDTH 13 0
BBX 12 12 0 -1
BITMAP
1100
1100
2100
2FE0
6100
A380
2380
2540
2540
2920
3110
2100
ENDCHAR
STARTCHAR U_4F12
ENCODING 20242
SWIDTH 1000 0
DWIDTH 13 0
BBX 12 12 0 -1
BITMAP
1060
1780
2400
2400
67F0
A480
2480
2480
2480
2880
2880
3080
ENDCHAR
STARTCHAR U_4F13
ENCODING 20243
SWIDTH 1000 0
DWIDTH 13 0
BBX 12 12 0 -1
BITMAP
1000
17F0
1080
2080
2100
6340
A320
2520
2910
2110
2100
2100
ENDCHAR
STARTCHAR U_4F14
ENCODING 20244
SWIDTH 1000 0
DWIDTH 13 0
BBX 12 12 0 -1
BITMAP
1000
17F0
1410
2820
23C0
6240
A240
2240
2240
2450
2450
2830
ENDCHAR
STARTCHAR U_4F15
ENCODING 20245
SWIDTH 1000 0
DWIDTH 13 0
BBX 12 12 0 -1
BITMAP
1100
1100
1100
2FE0
2100
6100
BFF0
2280
2280
2440
2440
2830
ENDCHAR
STARTCHAR U_4F16
ENCODING 20246
SWIDTH 1000 0
DWIDTH 13 0
BBX 12 12 0 -1
BITMAP
1200
1200
2FF0
2200
6200
A3E0
2520
2520
24C0
2880
2940
3630
ENDCHAR
STARTCHAR U_4F17
ENCODING 20247
SWIDTH 1000 0
DWIDTH 13 0
BBX 12 12 0 -1
BITMAP
0200
0200
0500
0880
3040
D0B0
1080
1080
2940
2520
4210
8410
ENDCHAR
STARTCHAR U_4F18
ENCODING 20248
SWIDTH 1000 0
DWIDTH 13 0
BBX 12 12 0 -1
BITMAP
1140
1120
2100
2FF0
6100
A180
2180
2280
2280
2490
2490
2870
ENDCHAR
STARTCHAR U_4F19
ENCODING 20249
SWIDTH 1000 0
DWIDTH 13 0
BBX 12 12 0 -1
BITMAP
1100
1100
2100
2120
6540
A580
2900
2180
2280
2240
2420
2810
ENDCHAR
STARTCHAR U_4F1A
ENCODING 20250
SWIDTH 1000 0
DWIDTH 13 0
BBX 12 12 0 -1
BITMAP
0400
0400
0A00
1100
20C0
DF30
0000
7FE0
0800
1080
2040
3FC0
ENDCHAR
STARTCHAR U_4F1B
ENCODING 20251
SWIDTH 1000 0
DWIDTH 13 0
BBX 12 12 0 -1
BITMAP
1020
1FF0
2800
2840
2A40
6980
A880
2940
2A20
2800
2820
2FF0
ENDCHAR
STARTCHAR U_4F1C
ENCODING 20252
SWIDTH 1000 0
DWIDTH 13 0
BBX 12 12 0 -1
BITMAP
1200
1200
2FC0
6240
A450
2970
2100
3FF0
2100
2100
2100
2100
ENDCHAR
STARTCHAR U_4F1D
ENCODING 20253
SWIDTH 1000 0
DWIDTH 13 0
BBX 12 12 0 -1
BITMAP
1000
17E0
2000
2000
6FF0
A100
2100
2200
2200
2420
2FF0
2410
ENDCHAR
STARTCHAR U_4F1E
ENCODING 20254
SWIDTH 1000 0
DWIDTH 13 0
BBX 12 12 0 -1
BITMAP
0400
0400
0A00
3180
C470
2480
1500
0400
FFE0
0400
0400
0400
ENDCHAR
STARTCHAR U_4F1F
ENCODING 20255
SWIDTH 1000 0
DWIDTH 13 0
BBX 12 12 0 -1
BITMAP
1100
1100
2FF0
2100
67E0
A100
2FF0
2110
2150
2120
2100
2100
ENDCHAR
STARTCHAR U_4F20
ENCODING 20256
SWIDTH 1000 0
DWIDTH 13 0
BBX 12 12 0 -1
BITMAP
1100
1100
27E0
2100
6FF0
A200
2200
27E0
2040
2380
2080
2040
ENDCHAR
STARTCHAR U_4F21
ENCODING 20257
SWIDTH 1000 0
DWIDTH 13 0
BBX 12 12 0 -1
BITMAP
1200
1200
2FF0
2400
6500
A900
2FE0
2100
2100
3FF0
2100
2100
ENDCHAR
STARTCHAR U_4F22
ENCODING 20258
SWIDTH 1000 0
DWIDTH 13 0
BBX 12 12 0 -1
BITMAP
1000
17F0
2240
2240
6440
A7F0
20C0
2140
2240
2440
3940
2080
ENDCHAR
STARTCHAR U_4F23
ENCODING 20259
SWIDTH 1000 0
DWIDTH 13 0
BBX 12 12 0 -1
BITMAP
1000
1FE0
2820
2920
6920
A920
29A0
2280
2280
2490
2890
3070
ENDCHAR
STARTCHAR U_4F24
ENCODING 20260
SWIDTH 1000 0
DWIDTH 13 0
BBX 12 12 0 -1
BITMAP
1400
1400
27F0
2900
7100
A7E0
2120
2120
2120
2220
24A0
2840
ENDCHAR
STARTCHAR U_4F25
ENCODING 20261
SWIDTH 1000 0
DWIDTH 13 0
BBX 12 12 0 -1
BITMAP
1400
1440
2480
2700
6400
BFF0
2500
2480
2480
2440
2530
2220
ENDCHAR
STARTCHAR U_4F26
ENCODING 20262
SWIDTH 1000 0
DWIDTH 13 0
BBX 12 12 0 -1
BITMAP
1100
1100
2280
2440
6830
B200
2240
2280
2300
2210
2210
21F0
ENDCHAR
STARTCHAR U_4F27
ENCODING 20263
SWIDTH 1000 0
DWIDTH 13 0
BBX 12 12 0 -1
BITMAP
1100
1100
2280
2440
6820
A7D0
2440
2440
25C0
2410
2410
23F0
ENDCHAR
STARTCHAR U_4F28
ENCODING 20264
SWIDTH 1000 0
DWIDTH 13 0
BBX 12 12 0 -1
BITMAP
1200
1200
27F0
2810
7310
A090
2010
2050
2190
2E10
24A0
2040
ENDCHAR
STARTCHAR U_4F29
ENCODING 20265
SWIDTH 1000 0
DWIDTH 13 0
BBX 12 12 0 -1
BITMAP
1200
1100
2000
2FF0
6440
A440
2440
2280
2280
2100
2280
2C60
ENDCHAR
STARTCHAR U_4F2A
ENCODING 20266
SWIDTH 1000 0
DWIDTH 13 0
BBX 12 12 0 -1
BITMAP
1080
1480
2280
2080
6FF0
A110
2190
2150
2250
2210
2450
2820
ENDCHAR
STARTCHAR U_4F2B
ENCODING 20267
SWIDTH 1000 0
DWIDTH 13 0
BBX 12 12 0 -1
BITMAP
1100
1080
27F0
2410
6820
A000
2000
2000
2000
2020
27F0
2000
ENDCHAR
STARTCHAR U_4F2C
ENCODING 20268
SWIDTH 1000 0
DWIDTH 13 0
BBX 12 12 0 -1
BITMAP
1020
17F0
2420
2420
6420
A7E0
2480
2480
2440
2840
2830
3020
ENDCHAR
STARTCHAR U_4F2D
ENCODING 20269
SWIDTH 1000 0
DWIDTH 13 0
BBX 12 12 0 -1
BITMAP
1200
1100
2FF0
2200
6200
A440
2F80
2100
2200
2440
2FE0
2420
ENDCHAR
STARTCHAR U_4F2E
ENCODING 20270
SWIDTH 1000 0
DWIDTH 13 0
BBX 12 12 0 -1
BITMAP
1400
1400
24F0
7F50
A550
2550
2950
2950
2520
2220
2550
2890
ENDCHAR
STARTCHAR U_4F2F
ENCODING 20271
SWIDTH 1000 0
DWIDTH 13 0
BBX 12 12 0 -1
BITMAP
1080
1100
27F0
2410
6410
A410
27F0
2410
2410
2410
27F0
2410
ENDCHAR
STARTCHAR U_4F30
ENCODING 20272
SWIDTH 1000 0
DWIDTH 13 0
BBX 12 12 0 -1
BITMAP
1100
1100
2100
2FF0
6100
A100
27E0
2420
2420
2420
27E0
2420
ENDCHAR
STARTCHAR U_4F31
ENCODING 20273
SWIDTH 1000 0
DWIDTH 13 0
BBX 12 12 0 -1
BITMAP
1100
1100
2280
6440
A820
3110
2100
2540
2520
2920
3520
2200
ENDCHAR
STARTCHAR U_4F32
ENCODING 20274
SWIDTH 1000 0
DWIDTH 13 0
BBX 12 12 0 -1
BITMAP
17F0
1410
2410
27F0
6400
A500
2520
2540
2980
2900
2910
30F0
ENDCHAR
STARTCHAR U_4F33
ENCODING 20275
SWIDTH 1000 0
DWIDTH 13 0
BBX 12 12 0 -1
BITMAP
1120
1120
2520
6520
BFF0
2520
2520
2520
25E0
2520
2400
27F0
ENDCHAR
STARTCHAR U_4F34
ENCODING 20276
SWIDTH 1000 0
DWIDTH 13 0
BBX 12 12 0 -1
BITMAP
1100
1920
2520
2540
6100
AFE0
2100
2100
3FF0
2100
2100
2100
ENDCHAR
STARTCHAR U_4F35
ENCODING 20277
SWIDTH 1000 0
DWIDTH 13 0
BBX 12 12 0 -1
BITMAP
2000
2FF0
4A90
CA90
4A90
4A90
4A90
4C70
4810
4810
4FF0
4810
ENDCHAR
STARTCHAR U_4F36
ENCODING 20278
SWIDTH 1000 0
DWIDTH 13 0
BBX 12 12 0 -1
BITMAP
1100
1100
2280
2440
6920
B090
2000
27E0
2040
2380
2080
2040
ENDCHAR
STARTCHAR U_4F37
ENCODING 20279
SWIDTH 1000 0
DWIDTH 13 0
BBX 12 12 0 -1
BITMAP
1080
1080
2080
67F0
A490
2490
27F0
2490
2490
2490
27F0
2410
ENDCHAR
STARTCHAR U_4F38
ENCODING 20280
SWIDTH 1000 0
DWIDTH 13 0
BBX 12 12 0 -1
BITMAP
1080
1080
27F0
2490
6490
A7F0
2490
2490
27F0
2490
2080
2080
ENDCHAR
STARTCHAR U_4F39
ENCODING 20281
SWIDTH 1000 0
DWIDTH 13 0
BBX 12 12 0 -1
BITMAP
1000
17E0
2420
6420
A7E0
2420
2420
27E0
2420
2420
2420
2FF0
ENDCHAR
STARTCHAR U_4F3A
ENCODING 20282
SWIDTH 1000 0
DWIDTH 13 0
BBX 12 12 0 -1
BITMAP
1000
17E0
2020
2FA0
6020
AF20
2920
2920
2F20
2020
20A0
2040
ENDCHAR
STARTCHAR U_4F3B
ENCODING 20283
SWIDTH 1000 0
DWIDTH 13 0
BBX 12 12 0 -1
BITMAP
2000
2FE0
4100
C920
4520
4540
4100
5FF0
4100
4100
4100
4100
ENDCHAR
STARTCHAR U_4F3C
ENCODING 20284
SWIDTH 1000 0
DWIDTH 13 0
BBX 12 12 0 -1
BITMAP
1000
1020
2520
24A0
64A0
A420
2420
2520
2640
2C60
2090
2310
ENDCHAR
STARTCHAR U_4F3D
ENCODING 20285
SWIDTH 1000 0
DWIDTH 13 0
BBX 12 12 0 -1
BITMAP
1400
1400
2F70
2550
6550
A550
2550
2550
2550
2950
2970
3350
ENDCHAR
STARTCHAR U_4F3E
ENCODING 20286
SWIDTH 1000 0
DWIDTH 13 0
BBX 12 12 0 -1
BITMAP
2020
2FF0
4080
C100
4340
4520
4910
5110
4100
4100
5FF0
4000
ENDCHAR
STARTCHAR U_4F3F
ENCODING 20287
SWIDTH 1000 0
DWIDTH 13 0
BBX 12 12 0 -1
BITMAP
1000
17E0
2420
6420
A420
2420
27E0
2000
2240
2220
2410
2810
ENDCHAR
STARTCHAR U_4F40
ENCODING 20288
SWIDTH 1000 0
DWIDTH 13 0
BBX 12 12 0 -1
BITMAP
1000
17E0
2420
6420
A7E0
2400
2400
27F0
2410
2410
2410
27F0
ENDCHAR
STARTCHAR U_4F41
ENCODING 20289
SWIDTH 1000 0
DWIDTH 13 0
BBX 12 12 0 -1
BITMAP
1100
1100
2200
6240
A420
2FF0
2010
27E0
2420
2420
27E0
2420
ENDCHAR
STARTCHAR U_4F42
ENCODING 20290
SWIDTH 1000 0
DWIDTH 13 0
BBX 12 12 0 -1
BITMAP
1000
17F0
2080
6080
A080
24E0
2480
2480
2480
2480
2480
2FF0
ENDCHAR
STARTCHAR U_4F43
ENCODING 20291
SWIDTH 1000 0
DWIDTH 13 0
BBX 12 12 0 -1
BITMAP
1000
17F0
2490
2490
6490
A490
27F0
2490
2490
2490
27F0
2410
ENDCHAR
STARTCHAR U_4F44
ENCODING 20292
SWIDTH 1000 0
DWIDTH 13 0
BBX 12 12 0 -1
BITMAP
1220
1220
2220
6FF0
A220
2220
23E0
2220
2220
2220
23E0
2220
ENDCHAR
STARTCHAR U_4F45
ENCODING 20293
SWIDTH 1000 0
DWIDTH 13 0
BBX 12 12 0 -1
BITMAP
1100
1100
27E0
6100
A100
2FF0
2340
2340
2520
2920
3110
2110
ENDCHAR
STARTCHAR U_4F46
ENCODING 20294
SWIDTH 1000 0
DWIDTH 13 0
BBX 12 12 0 -1
BITMAP
1000
17E0
2420
2420
67E0
A420
2420
27E0
2420
2000
2000
2FF0
ENDCHAR
STARTCHAR U_4F47
ENCODING 20295
SWIDTH 1000 0
DWIDTH 13 0
BBX 12 12 0 -1
BITMAP
2100
2FF0
4810
D020
4000
4FF0
4080
4080
4080
4080
4280
4100
ENDCHAR
STARTCHAR U_4F48
ENCODING 20296
SWIDTH 1000 0
DWIDTH 13 0
BBX 12 12 0 -1
BITMAP
1100
1120
2FF0
6100
A280
27F0
2C90
3490
2490
24D0
24A0
2080
ENDCHAR
STARTCHAR U_4F49
ENCODING 20297
SWIDTH 1000 0
DWIDTH 13 0
BBX 12 12 0 -1
BITMAP
1100
1100
27E0
6100
A100
2FF0
2200
2200
2440
2420
2FF0
2410
ENDCHAR
STARTCHAR U_4F4A
ENCODING 20298
SWIDTH 1000 0
DWIDTH 13 0
BBX 12 12 0 -1
BITMAP
1080
1080
27F0
6490
A4A0
2480
25E0
2520
28A0
2840
28A0
3310
ENDCHAR
STARTCHAR U_4F4B
ENCODING 20299
SWIDTH 1000 0
DWIDTH 13 0
BBX 12 12 0 -1
BITMAP
1000
17F0
2110
6110
A210
24A0
2840
23F0
2210
2210
23F0
2210
ENDCHAR
STARTCHAR U_4F4C
ENCODING 20300
SWIDTH 1000 0
DWIDTH 13 0
BBX 12 12 0 -1
BITMAP
1040
1240
2240
6240
A270
2BC0
2A40
2A40
2A40
2BD0
2E50
2830
ENDCHAR
STARTCHAR U_4F4D
ENCODING 20301
SWIDTH 1000 0
DWIDTH 13 0
BBX 12 12 0 -1
BITMAP
1100
1080
2000
2FF0
6000
A440
2440
2240
2280
2080
2100
2FF0
ENDCHAR
STARTCHAR U_4F4E
ENCODING 20302
SWIDTH 1000 0
DWIDTH 13 0
BBX 12 12 0 -1
BITMAP
1030
17C0
2480
2480
6480
A7F0
2480
2480
2490
2550
2630
2590
ENDCHAR
STARTCHAR U_4F4F
ENCODING 20303
SWIDTH 1000 0
DWIDTH 13 0
BBX 12 12 0 -1
BITMAP
1200
1100
2100
2FF0
6100
A100
2100
27E0
2100
2100
2100
2FF0
ENDCHAR
STARTCHAR U_4F50
ENCODING 20304
SWIDTH 1000 0
DWIDTH 13 0
BBX 12 12 0 -1
BITMAP
1100
1120
2FF0
2100
6200
A200
27E0
2880
2080
2080
2080
2FF0
ENDCHAR
STARTCHAR U_4F51
ENCODING 20305
SWIDTH 1000 0
DWIDTH 13 0
BBX 12 12 0 -1
BITMAP
1100
1120
2FF0
2100
6100
A200
27E0
2A20
3220
2220
23E0
2220
ENDCHAR
STARTCHAR U_4F52
ENCODING 20306
SWIDTH 1000 0
DWIDTH 13 0
BBX 12 12 0 -1
BITMAP
1100
1100
27E0
6520
A520
2520
2FF0
2280
2280
2440
2440
2830
ENDCHAR
STARTCHAR U_4F53
ENCODING 20307
SWIDTH 1000 0
DWIDTH 13 0
BBX 12 12 0 -1
BITMAP
1100
1100
3FF0
2100
6380
A340
2520
2910
37C0
2100
2100
2100
ENDCHAR
STARTCHAR U_4F54
ENCODING 20308
SWIDTH 1000 0
DWIDTH 13 0
BBX 12 12 0 -1
BITMAP
1100
1100
2100
61E0
A100
2100
27E0
2420
2420
2420
27E0
2420
ENDCHAR
STARTCHAR U_4F55
ENCODING 20309
SWIDTH 1000 0
DWIDTH 13 0
BBX 12 12 0 -1
BITMAP
1000
17F0
2020
2020
67A0
A4A0
24A0
27A0
24A0
2020
20A0
2040
ENDCHAR
STARTCHAR U_4F56
ENCODING 20310
SWIDTH 1000 0
DWIDTH 13 0
BBX 12 12 0 -1
BITMAP
1100
10A0
22A0
6220
AA40
2A40
32A0
2290
2310
2620
3A20
21E0
ENDCHAR
STARTCHAR U_4F57
ENCODING 20311
SWIDTH 1000 0
DWIDTH 13 0
BBX 12 12 0 -1
BITMAP
1100
1080
2FF0
2810
7220
A200
2260
2380
2200
2210
2210
21F0
ENDCHAR
STARTCHAR U_4F58
ENCODING 20312
SWIDTH 1000 0
DWIDTH 13 0
BBX 12 12 0 -1
BITMAP
0400
0A00
1100
2080
DF60
0000
7FC0
0400
2480
4440
9420
0800
ENDCHAR
STARTCHAR U_4F59
ENCODING 20313
SWIDTH 1000 0
DWIDTH 13 0
BBX 12 12 0 -1
BITMAP
0400
0A00
1100
20C0
DF30
0400
7FC0
0400
1500
2480
5440
0800
ENDCHAR
STARTCHAR U_4F5A
ENCODING 20314
SWIDTH 1000 0
DWIDTH 13 0
BBX 12 12 0 -1
BITMAP
1100
1500
2500
2FE0
6900
A100
2FF0
2100
2280
2240
2430
2820
ENDCHAR
STARTCHAR U_4F5B
ENCODING 20315
SWIDTH 1000 0
DWIDTH 13 0
BBX 12 12 0 -1
BITMAP
1280
1280
2FE0
22A0
6FE0
AA80
2FF0
2290
22D0
24A0
2480
2880
ENDCHAR
STARTCHAR U_4F5C
ENCODING 20316
SWIDTH 1000 0
DWIDTH 13 0
BBX 12 12 0 -1
BITMAP
1400
1400
27F0
2A00
7200
A3E0
2200
2200
23F0
2200
2200
2200
ENDCHAR
STARTCHAR U_4F5D
ENCODING 20317
SWIDTH 1000 0
DWIDTH 13 0
BBX 12 12 0 -1
BITMAP
1400
1400
27E0
2820
6820
A7A0
24A0
24A0
27A0
2020
20A0
2040
ENDCHAR
STARTCHAR U_4F5E
ENCODING 20318
SWIDTH 1000 0
DWIDTH 13 0
BBX 12 12 0 -1
BITMAP
1040
17E0
2000
2FF0
6200
A200
2FF0
2240
2440
2380
2140
2E30
ENDCHAR
STARTCHAR U_4F5F
ENCODING 20319
SWIDTH 1000 0
DWIDTH 13 0
BBX 12 12 0 -1
BITMAP
1200
17E0
2420
2840
6280
A100
26C0
3930
2080
2000
2180
2040
ENDCHAR
STARTCHAR U_4F60
ENCODING 20320
SWIDTH 1000 0
DWIDTH 13 0
BBX 12 12 0 -1
BITMAP
1400
1400
27F0
2420
6940
A100
2540
2520
2910
3110
2100
2300
ENDCHAR
STARTCHAR U_4F61
ENCODING 20321
SWIDTH 1000 0
DWIDTH 13 0
BBX 12 12 0 -1
BITMAP
1100
1100
2280
6280
A440
2920
3110
2920
2920
2920
2FE0
2820
ENDCHAR
STARTCHAR U_4F62
ENCODING 20322
SWIDTH 1000 0
DWIDTH 13 0
BBX 12 12 0 -1
BITMAP
1000
17E0
2400
6400
A7E0
2420
2420
27E0
2400
2400
2400
27F0
ENDCHAR
STARTCHAR U_4F63
ENCODING 20323
SWIDTH 1000 0
DWIDTH 13 0
BBX 12 12 0 -1
BITMAP
1000
17F0
2490
2490
67F0
A490
2490
27F0
2490
2490
2890
30B0
ENDCHAR
STARTCHAR U_4F64
ENCODING 20324
SWIDTH 1000 0
DWIDTH 13 0
BBX 12 12 0 -1
BITMAP
1020
1FF0
2200
2240
63E0
A240
2540
24C0
2440
2550
2650
2430
ENDCHAR
STARTCHAR U_4F65
ENCODING 20325
SWIDTH 1000 0
DWIDTH 13 0
BBX 12 12 0 -1
BITMAP
0400
0A00
1100
2080
C060
3F80
0040
4840
2480
1480
1100
FFE0
ENDCHAR
STARTCHAR U_4F66
ENCODING 20326
SWIDTH 1000 0
DWIDTH 13 0
BBX 12 12 0 -1
BITMAP
1020
17F0
2100
6100
A200
2200
27F0
2A10
2210
2210
23F0
2210
ENDCHAR
STARTCHAR U_4F67
ENCODING 20327
SWIDTH 1000 0
DWIDTH 13 0
BBX 12 12 0 -1
BITMAP
1200
1200
23E0
2200
6200
AFF0
2280
2240
2220
2220
2200
2200
ENDCHAR
STARTCHAR U_4F68
ENCODING 20328
SWIDTH 1000 0
DWIDTH 13 0
BBX 12 12 0 -1
BITMAP
1400
1400
27E0
6820
B7A0
24A0
24A0
27A0
2440
2410
2410
23F0
ENDCHAR
STARTCHAR U_4F69
ENCODING 20329
SWIDTH 1000 0
DWIDTH 13 0
BBX 12 12 0 -1
BITMAP
3FC0
3040
57C0
D140
57C0
5540
5540
5540
5550
55D0
5130
6110
ENDCHAR
STARTCHAR U_4F6A
ENCODING 20330
SWIDTH 1000 0
DWIDTH 13 0
BBX 12 12 0 -1
BITMAP
1000
17F0
2410
65D0
A550
2550
2550
25D0
2550
2410
27F0
2410
ENDCHAR
STARTCHAR U_4F6B
ENCODING 20331
SWIDTH 1000 0
DWIDTH 13 0
BBX 12 12 0 -1
BITMAP
1200
13E0
2620
6940
A080
2340
2C30
27E0
2420
2420
27E0
2420
ENDCHAR
STARTCHAR U_4F6C
ENCODING 20332
SWIDTH 1000 0
DWIDTH 13 0
BBX 12 12 0 -1
BITMAP
1100
1110
27E0
2120
6140
AFF0
2100
2260
2780
2A10
2210
21F0
ENDCHAR
STARTCHAR U_4F6D
ENCODING 20333
SWIDTH 1000 0
DWIDTH 13 0
BBX 12 12 0 -1
BITMAP
1200
13E0
2620
6940
A080
2340
2CB0
27E0
2480
2FF0
2080
2080
ENDCHAR
STARTCHAR U_4F6E
ENCODING 20334
SWIDTH 1000 0
DWIDTH 13 0
BBX 12 12 0 -1
BITMAP
1100
1100
2280
6440
A820
37D0
2000
27C0
2440
2440
27C0
2440
ENDCHAR
STARTCHAR U_4F6F
ENCODING 20335
SWIDTH 1000 0
DWIDTH 13 0
BBX 12 12 0 -1
BITMAP
1440
1240
2080
2FF0
6100
A100
2FE0
2100
2100
3FF0
2100
2100
ENDCHAR
STARTCHAR U_4F70
ENCODING 20336
SWIDTH 1000 0
DWIDTH 13 0
BBX 12 12 0 -1
BITMAP
1FF0
1080
2100
2100
67E0
A420
2420
27E0
2420
2420
2420
27E0
ENDCHAR
STARTCHAR U_4F71
ENCODING 20337
SWIDTH 1000 0
DWIDTH 13 0
BBX 12 12 0 -1
BITMAP
0400
0400
0A00
1100
20C0
DFB0
0000
7FE0
0200
13C0
1200
FFF0
ENDCHAR
STARTCHAR U_4F72
ENCODING 20338
SWIDTH 1000 0
DWIDTH 13 0
BBX 12 12 0 -1
BITMAP
1200
13E0
2420
6A40
A140
2080
2100
27E0
3A20
2220
2220
23E0
ENDCHAR
STARTCHAR U_4F73
ENCODING 20339
SWIDTH 1000 0
DWIDTH 13 0
BBX 12 12 0 -1
BITMAP
1100
1100
27E0
2100
6100
AFF0
2100
2100
27E0
2100
2100
2FF0
ENDCHAR
STARTCHAR U_4F74
ENCODING 20340
SWIDTH 1000 0
DWIDTH 13 0
BBX 12 12 0 -1
BITMAP
1020
1FF0
2440
27C0
6440
A440
27C0
2440
2470
2FC0
2040
2040
ENDCHAR
STARTCHAR U_4F75
ENCODING 20341
SWIDTH 1000 0
DWIDTH 13 0
BBX 12 12 0 -1
BITMAP
1420
1240
2040
6FF0
A240
2240
2FF0
2240
2240
2440
2440
2840
ENDCHAR
STARTCHAR U_4F76
ENCODING 20342
SWIDTH 1000 0
DWIDTH 13 0
BBX 12 12 0 -1
BITMAP
1100
1120
2FF0
2100
6100
A7E0
2000
27E0
2420
2420
27E0
2420
ENDCHAR
STARTCHAR U_4F77
ENCODING 20343
SWIDTH 1000 0
DWIDTH 13 0
BBX 12 12 0 -1
BITMAP
17E0
1420
27E0
6420
A7E0
2600
2520
2540
2480
2440
2520
2610
ENDCHAR
STARTCHAR U_4F78
ENCODING 20344
SWIDTH 1000 0
DWIDTH 13 0
BBX 12 12 0 -1
BITMAP
1060
1780
2080
6FF0
A080
2080
27E0
2420
2420
2420
27E0
2420
ENDCHAR
STARTCHAR U_4F79
ENCODING 20345
SWIDTH 1000 0
DWIDTH 13 0
BBX 12 12 0 -1
BITMAP
1200
13E0
2440
6FF0
B800
2BC0
2A40
2A40
2A40
2A90
2A10
31E0
ENDCHAR
STARTCHAR U_4F7A
ENCODING 20346
SWIDTH 1000 0
DWIDTH 13 0
BBX 12 12 0 -1
BITMAP
1100
1100
2280
6440
A830
27C0
2100
2100
27C0
2100
2100
2FF0
ENDCHAR
STARTCHAR U_4F7B
ENCODING 20347
SWIDTH 1000 0
DWIDTH 13 0
BBX 12 12 0 -1
BITMAP
1280
1280
2290
2AA0
66C0
A280
22E0
2E90
2280
2290
2490
2870
ENDCHAR
STARTCHAR U_4F7C
ENCODING 20348
SWIDTH 1000 0
DWIDTH 13 0
BBX 12 12 0 -1
BITMAP
1100
1080
2FF0
2240
6420
AA50
3250
2280
2100
2280
2440
3830
ENDCHAR
STARTCHAR U_4F7D
ENCODING 20349
SWIDTH 1000 0
DWIDTH 13 0
BBX 12 12 0 -1
BITMAP
1100
1100
29F0
6610
A4A0
2280
2480
3880
2940
2940
2220
2410
ENDCHAR
STARTCHAR U_4F7E
ENCODING 20350
SWIDTH 1000 0
DWIDTH 13 0
BBX 12 12 0 -1
BITMAP
1280
3280
2440
6830
A7C0
2440
27C0
2440
27C0
2440
2540
2480
ENDCHAR
STARTCHAR U_4F7F
ENCODING 20351
SWIDTH 1000 0
DWIDTH 13 0
BBX 12 12 0 -1
BITMAP
1100
1FF0
2100
2FE0
6920
A920
2FE0
2900
2700
2100
2280
2C70
ENDCHAR
STARTCHAR U_4F80
ENCODING 20352
SWIDTH 1000 0
DWIDTH 13 0
BBX 12 12 0 -1
BITMAP
1010
1F90
2550
6550
A550
3FD0
2550
2550
2550
2910
2950
3120
ENDCHAR
STARTCHAR U_4F81
ENCODING 20353
SWIDTH 1000 0
DWIDTH 13 0
BBX 12 12 0 -1
BITMAP
1100
1500
27E0
6900
B100
2FF0
2280
2280
2480
2490
2890
3070
ENDCHAR
STARTCHAR U_4F82
ENCODING 20354
SWIDTH 1000 0
DWIDTH 13 0
BBX 12 12 0 -1
BITMAP
1100
1FF0
2800
68E0
AF00
2900
29F0
2F00
2900
2910
2910
30F0
ENDCHAR
STARTCHAR U_4F83
ENCODING 20355
SWIDTH 1000 0
DWIDTH 13 0
BBX 12 12 0 -1
BITMAP
17E0
1420
2420
27E0
6420
A100
2540
2540
2540
2540
2950
3130
ENDCHAR
STARTCHAR U_4F84
ENCODING 20356
SWIDTH 1000 0
DWIDTH 13 0
BBX 12 12 0 -1
BITMAP
1020
1FF0
2200
2440
6FE0
A020
2100
2100
2FE0
2100
2100
3FF0
ENDCHAR
STARTCHAR U_4F85
ENCODING 20357
SWIDTH 1000 0
DWIDTH 13 0
BBX 12 12 0 -1
BITMAP
1100
1080
2FF0
6100
A220
27C0
2080
2120
2240
2CA0
2110
2E10
ENDCHAR
STARTCHAR U_4F86
ENCODING 20358
SWIDTH 1000 0
DWIDTH 13 0
BBX 12 12 0 -1
BITMAP
0200
0200
FFF0
2240
2240
52A0
4A10
8710
0A80
3240
C230
0200
ENDCHAR
STARTCHAR U_4F87
ENCODING 20359
SWIDTH 1000 0
DWIDTH 13 0
BBX 12 12 0 -1
BITMAP
1100
1FF0
2100
6FE0
A120
2FE0
2900
2FF0
2110
22B0
2440
2830
ENDCHAR
STARTCHAR U_4F88
ENCODING 20360
SWIDTH 1000 0
DWIDTH 13 0
BBX 12 12 0 -1
BITMAP
1100
13E0
2440
2A80
6100
A200
2CF0
2110
22A0
2440
2080
2F00
ENDCHAR
STARTCHAR U_4F89
ENCODING 20361
SWIDTH 1000 0
DWIDTH 13 0
BBX 12 12 0 -1
BITMAP
1100
1FF0
2280
2440
6BB0
B000
2FF0
2200
27E0
2020
2140
2080
ENDCHAR
STARTCHAR U_4F8A
ENCODING 20362
SWIDTH 1000 0
DWIDTH 13 0
BBX 12 12 0 -1
BITMAP
2100
2120
4920
C540
4100
5FF0
4280
4280
4480
4490
4890
5070
ENDCHAR
STARTCHAR U_4F8B
ENCODING 20363
SWIDTH 1000 0
DWIDTH 13 0
BBX 12 12 0 -1
BITMAP
1010
1F90
2250
2450
6750
A950
2D50
3350
2250
2210
2450
2820
ENDCHAR
STARTCHAR U_4F8C
ENCODING 20364
SWIDTH 1000 0
DWIDTH 13 0
BBX 12 12 0 -1
BITMAP
0400
0A00
1100
2480
DF70
0220
3FC0
0000
FFE0
0800
1040
3FE0
ENDCHAR
STARTCHAR U_4F8D
ENCODING 20365
SWIDTH 1000 0
DWIDTH 13 0
BBX 12 12 0 -1
BITMAP
1100
17E0
2100
2100
6FF0
A040
2FF0
2440
2240
2040
2140
2080
ENDCHAR
STARTCHAR U_4F8E
ENCODING 20366
SWIDTH 1000 0
DWIDTH 13 0
BBX 12 12 0 -1
BITMAP
1100
1920
2520
6540
A100
2FF0
2100
2380
2340
2540
2920
3110
ENDCHAR
STARTCHAR U_4F8F
ENCODING 20367
SWIDTH 1000 0
DWIDTH 13 0
BBX 12 12 0 -1
BITMAP
1100
1500
27E0
2900
6100
AFF0
2100
2380
2540
2920
2110
2100
ENDCHAR
STARTCHAR U_4F90
ENCODING 20368
SWIDTH 1000 0
DWIDTH 13 0
BBX 12 12 0 -1
BITMAP
1100
1100
2200
6FE0
AAA0
2AA0
2AA0
2AA0
2AA0
2AA0
2AA0
3FF0
ENDCHAR
STARTCHAR U_4F91
ENCODING 20369
SWIDTH 1000 0
DWIDTH 13 0
BBX 12 12 0 -1
BITMAP
1100
1120
2FF0
2200
63E0
A620
2BE0
2220
23E0
2220
2220
2260
ENDCHAR
STARTCHAR U_4F92
ENCODING 20370
SWIDTH 1000 0
DWIDTH 13 0
BBX 12 12 0 -1
BITMAP
1100
17F0
2410
6920
A100
2FF0
2240
2440
2280
2100
22C0
2C30
ENDCHAR
STARTCHAR U_4F93
ENCODING 20371
SWIDTH 1000 0
DWIDTH 13 0
BBX 12 12 0 -1
BITMAP
0900
0900
17E0
3120
5FF0
9120
17E0
1100
1FF0
1100
1FF0
1100
ENDCHAR
STARTCHAR U_4F94
ENCODING 20372
SWIDTH 1000 0
DWIDTH 13 0
BBX 12 12 0 -1
BITMAP
1100
1220
27D0
2010
6480
AFE0
2880
3080
2FF0
2080
2080
2080
ENDCHAR
STARTCHAR U_4F95
ENCODING 20373
SWIDTH 1000 0
DWIDTH 13 0
BBX 12 12 0 -1
BITMAP
0800
0FF0
1100
1200
37F0
5550
9550
1550
1550
1550
1550
1430
ENDCHAR
STARTCHAR U_4F96
ENCODING 20374
SWIDTH 1000 0
DWIDTH 13 0
BBX 12 12 0 -1
BITMAP
0200
0200
0500
0880
1060
2F90
C000
3FE0
2520
3FE0
2520
2560
ENDCHAR
STARTCHAR U_4F97
ENCODING 20375
SWIDTH 1000 0
DWIDTH 13 0
BBX 12 12 0 -1
BITMAP
1000
1FF0
2810
2BD0
6810
ABD0
2A50
2A50
2BD0
2810
2850
2820
ENDCHAR
STARTCHAR U_4F98
ENCODING 20376
SWIDTH 1000 0
DWIDTH 13 0
BBX 12 12 0 -1
BITMAP
0880
0840
17F0
1410
3860
5380
9080
17F0
1080
1090
1090
1070
ENDCHAR
STARTCHAR U_4F99
ENCODING 20377
SWIDTH 1000 0
DWIDTH 13 0
BBX 12 12 0 -1
BITMAP
1080
10A0
2090
6FF0
A080
2080
2F80
2280
2240
2350
2C30
2010
ENDCHAR
STARTCHAR U_4F9A
ENCODING 20378
SWIDTH 1000 0
DWIDTH 13 0
BBX 12 12 0 -1
BITMAP
1400
1400
2FE0
2820
77A0
A4A0
27A0
24A0
27A0
2020
20A0
2040
ENDCHAR
STARTCHAR U_4F9B
ENCODING 20379
SWIDTH 1000 0
DWIDTH 13 0
BBX 12 12 0 -1
BITMAP
1240
1240
2240
2FF0
6240
A240
2240
3FF0
2240
2220
2410
2810
ENDCHAR
STARTCHAR U_4F9C
ENCODING 20380
SWIDTH 1000 0
DWIDTH 13 0
BBX 12 12 0 -1
BITMAP
1200
1200
27C0
6440
A540
2540
3FF0
2640
2540
2940
2840
30C0
ENDCHAR
STARTCHAR U_4F9D
ENCODING 20381
SWIDTH 1000 0
DWIDTH 13 0
BBX 12 12 0 -1
BITMAP
1200
1120
2FF0
2100
6320
A4C0
2C80
3480
2440
2440
2720
2C10
ENDCHAR
STARTCHAR U_4F9E
ENCODING 20382
SWIDTH 1000 0
DWIDTH 13 0
BBX 12 12 0 -1
BITMAP
1200
1200
2270
6F50
A550
2550
2550
2550
2550
2270
2550
2800
ENDCHAR
STARTCHAR U_4F9F
ENCODING 20383
SWIDTH 1000 0
DWIDTH 13 0
BBX 12 12 0 -1
BITMAP
1100
1100
2FF0
2200
65E0
A420
2C40
37F0
2440
2440
2540
2480
ENDCHAR
STARTCHAR U_4FA0
ENCODING 20384
SWIDTH 1000 0
DWIDTH 13 0
BBX 12 12 0 -1
BITMAP
1080
1080
2FF0
2080
6490
A2A0
2FF0
2080
2140
2140
2220
2C10
ENDCHAR
STARTCHAR U_4FA1
ENCODING 20385
SWIDTH 1000 0
DWIDTH 13 0
BBX 12 12 0 -1
BITMAP
1000
1000
2FE0
6280
A280
2FE0
2AA0
2AA0
2AA0
2AA0
2AA0
2FE0
ENDCHAR
STARTCHAR U_4FA2
ENCODING 20386
SWIDTH 1000 0
DWIDTH 13 0
BBX 12 12 0 -1
BITMAP
1000
1FE0
2100
6FE0
A920
2FE0
2920
3FF0
2820
2820
28A0
2840
ENDCHAR
STARTCHAR U_4FA3
ENCODING 20387
SWIDTH 1000 0
DWIDTH 13 0
BBX 12 12 0 -1
BITMAP
1000
17E0
2420
2420
67E0
A420
2000
2FF0
2810
2810
2FF0
2810
ENDCHAR
STARTCHAR U_4FA4
ENCODING 20388
SWIDTH 1000 0
DWIDTH 13 0
BBX 12 12 0 -1
BITMAP
1100
17A0
2120
6140
AFF0
2080
21E0
2300
25E0
2820
20A0
2040
ENDCHAR
STARTCHAR U_4FA5
ENCODING 20389
SWIDTH 1000 0
DWIDTH 13 0
BBX 12 12 0 -1
BITMAP
1200
1FE0
2200
2140
6190
A670
2000
2FF0
2280
2290
2490
2870
ENDCHAR
STARTCHAR U_4FA6
ENCODING 20390
SWIDTH 1000 0
DWIDTH 13 0
BBX 12 12 0 -1
BITMAP
1100
11F0
2100
27F0
6410
A490
2490
2490
2490
2550
2220
2C10
ENDCHAR
STARTCHAR U_4FA7
ENCODING 20391
SWIDTH 1000 0
DWIDTH 13 0
BBX 12 12 0 -1
BITMAP
2010
3F10
3150
5550
5550
D550
5550
5550
5550
4610
4950
50A0
ENDCHAR
STARTCHAR U_4FA8
ENCODING 20392
SWIDTH 1000 0
DWIDTH 13 0
BBX 12 12 0 -1
BITMAP
1060
1780
2100
2FF0
6240
A420
2A50
2240
2240
2240
2440
2840
ENDCHAR
STARTCHAR U_4FA9
ENCODING 20393
SWIDTH 1000 0
DWIDTH 13 0
BBX 12 12 0 -1
BITMAP
1100
1280
2440
2820
77D0
A000
2FF0
2100
2200
2440
2FE0
2020
ENDCHAR
STARTCHAR U_4FAA
ENCODING 20394
SWIDTH 1000 0
DWIDTH 13 0
BBX 12 12 0 -1
BITMAP
1100
1FF0
2440
2280
6180
A640
3830
2440
2440
2440
2840
3040
ENDCHAR
STARTCHAR U_4FAB
ENCODING 20395
SWIDTH 1000 0
DWIDTH 13 0
BBX 12 12 0 -1
BITMAP
1100
1080
2FF0
6400
A7E0
2100
2FF0
2240
2240
2180
2360
2C20
ENDCHAR
STARTCHAR U_4FAC
ENCODING 20396
SWIDTH 1000 0
DWIDTH 13 0
BBX 12 12 0 -1
BITMAP
1100
1100
2FF0
2910
7120
A2A0
22C0
2680
2A40
2240
2320
2210
ENDCHAR
STARTCHAR U_4FAD
ENCODING 20397
SWIDTH 1000 0
DWIDTH 13 0
BBX 12 12 0 -1
BITMAP
1000
17E0
2420
6420
A7E0
2480
2A40
29A0
3090
2600
2180
2080
ENDCHAR
STARTCHAR U_4FAE
ENCODING 20398
SWIDTH 1000 0
DWIDTH 13 0
BBX 12 12 0 -1
BITMAP
1420
17F0
2400
2BE0
6520
A4A0
2FF0
2520
24A0
2FF0
2020
20C0
ENDCHAR
STARTCHAR U_4FAF
ENCODING 20399
SWIDTH 1000 0
DWIDTH 13 0
BBX 12 12 0 -1
BITMAP
17C0
1040
2040
2FF0
6400
AFE0
2900
3100
2FF0
2280
2440
2830
ENDCHAR
STARTCHAR U_4FB0
ENCODING 20400
SWIDTH 1000 0
DWIDTH 13 0
BBX 12 12 0 -1
BITMAP
1000
17E0
2220
6FF0
A220
27E0
2200
27E0
2A20
3220
23E0
2220
ENDCHAR
STARTCHAR U_4FB1
ENCODING 20401
SWIDTH 1000 0
DWIDTH 13 0
BBX 12 12 0 -1
BITMAP
1000
17C0
2440
6440
A7C0
2000
2FE0
2100
27C0
2100
2100
2FE0
ENDCHAR
STARTCHAR U_4FB2
ENCODING 20402
SWIDTH 1000 0
DWIDTH 13 0
BBX 12 12 0 -1
BITMAP
1000
1FF0
2800
6BE0
A800
2FF0
2A80
2AA0
2A40
2A40
3330
2220
ENDCHAR
STARTCHAR U_4FB3
ENCODING 20403
SWIDTH 1000 0
DWIDTH 13 0
BBX 12 12 0 -1
BITMAP
1100
1100
2540
6540
AB60
3190
2100
2FE0
2100
2100
2100
3FF0
ENDCHAR
STARTCHAR U_4FB4
ENCODING 20404
SWIDTH 1000 0
DWIDTH 13 0
BBX 12 12 0 -1
BITMAP
0400
0600
0900
1080
2F40
C030
3D40
1540
7D40
2540
3E40
E0C0
ENDCHAR
STARTCHAR U_4FB5
ENCODING 20405
SWIDTH 1000 0
DWIDTH 13 0
BBX 12 12 0 -1
BITMAP
2FC0
2040
4FC0
4040
DFC0
4000
5FF0
5490
4480
4300
4480
5860
ENDCHAR
STARTCHAR U_4FB6
ENCODING 20406
SWIDTH 1000 0
DWIDTH 13 0
BBX 12 12 0 -1
BITMAP
17E0
1420
2420
67E0
A100
2200
2FF0
2810
2810
2810
2FF0
2810
ENDCHAR
STARTCHAR U_4FB7
ENCODING 20407
SWIDTH 1000 0
DWIDTH 13 0
BBX 12 12 0 -1
BITMAP
1000
17E0
2420
67E0
A400
2400
27F0
2410
2B90
2A90
2B90
3020
ENDCHAR
STARTCHAR U_4FB8
ENCODING 20408
SWIDTH 1000 0
DWIDTH 13 0
BBX 12 12 0 -1
BITMAP
1000
1FF0
2000
67E0
A420
2420
27E0
2400
2220
2240
2080
2FF0
ENDCHAR
STARTCHAR U_4FB9
ENCODING 20409
SWIDTH 1000 0
DWIDTH 13 0
BBX 12 12 0 -1
BITMAP
1000
1070
2DC0
6440
A440
29F0
2C40
2440
35F0
2C00
2B00
30F0
ENDCHAR
STARTCHAR U_4FBA
ENCODING 20410
SWIDTH 1000 0
DWIDTH 13 0
BBX 12 12 0 -1
BITMAP
1100
1920
2920
6FE0
A100
2280
2440
3930
27C0
2080
2100
2100
ENDCHAR
STARTCHAR U_4FBB
ENCODING 20411
SWIDTH 1000 0
DWIDTH 13 0
BBX 12 12 0 -1
BITMAP
1440
1440
2280
6FE0
A820
2820
2FE0
2280
2280
2280
2490
2870
ENDCHAR
STARTCHAR U_4FBC
ENCODING 20412
SWIDTH 1000 0
DWIDTH 13 0
BBX 12 12 0 -1
BITMAP
1080
17E0
2080
6FF0
A810
23E0
2040
2FF0
2080
2080
2280
2100
ENDCHAR
STARTCHAR U_4FBD
ENCODING 20413
SWIDTH 1000 0
DWIDTH 13 0
BBX 12 12 0 -1
BITMAP
1000
17E0
24A0
67E0
A4A0
27E0
2080
2FF0
2110
2110
2650
2820
ENDCHAR
STARTCHAR U_4FBE
ENCODING 20414
SWIDTH 1000 0
DWIDTH 13 0
BBX 12 12 0 -1
BITMAP
1100
17A0
2140
6FF0
A080
2FE0
2240
2C80
37E0
2080
2280
2100
ENDCHAR
STARTCHAR U_4FBF
ENCODING 20415
SWIDTH 1000 0
DWIDTH 13 0
BBX 12 12 0 -1
BITMAP
1020
17F0
2080
27F0
6490
A7F0
2490
27F0
2280
2100
22C0
2C30
ENDCHAR
STARTCHAR U_4FC0
ENCODING 20416
SWIDTH 1000 0
DWIDTH 13 0
BBX 12 12 0 -1
BITMAP
11E0
1E00
3220
6920
A940
2400
3FF0
2480
2C80
2300
2480
3860
ENDCHAR
STARTCHAR U_4FC1
ENCODING 20417
SWIDTH 1000 0
DWIDTH 13 0
BBX 12 12 0 -1
BITMAP
13E0
1220
2220
6BE0
A800
2FE0
2120
2120
3FF0
2280
2440
3830
ENDCHAR
STARTCHAR U_4FC2
ENCODING 20418
SWIDTH 1000 0
DWIDTH 13 0
BBX 12 12 0 -1
BITMAP
10E0
1700
2220
6FC0
A100
2220
2FF0
2090
2480
24A0
2A90
2910
ENDCHAR
STARTCHAR U_4FC3
ENCODING 20419
SWIDTH 1000 0
DWIDTH 13 0
BBX 12 12 0 -1
BITMAP
17E0
1420
2420
2420
67E0
A100
2500
25E0
2500
2500
2B00
30F0
ENDCHAR
STARTCHAR U_4FC4
ENCODING 20420
SWIDTH 1000 0
DWIDTH 13 0
BBX 12 12 0 -1
BITMAP
1180
1EA0
2290
2280
6FF0
A280
23A0
26A0
3A40
2250
2AB0
2510
ENDCHAR
STARTCHAR U_4FC5
ENCODING 20421
SWIDTH 1000 0
DWIDTH 13 0
BBX 12 12 0 -1
BITMAP
1140
1120
2FF0
2100
6910
A5A0
2140
2340
2520
2910
2110
2300
ENDCHAR
STARTCHAR U_4FC6
ENCODING 20422
SWIDTH 1000 0
DWIDTH 13 0
BBX 12 12 0 -1
BITMAP
1100
1100
2280
6440
A820
37D0
2100
2FE0
2100
2540
2520
2B20
ENDCHAR
STARTCHAR U_4FC7
ENCODING 20423
SWIDTH 1000 0
DWIDTH 13 0
BBX 12 12 0 -1
BITMAP
1200
1BF0
2640
6C40
B240
27F0
2A40
3240
2240
2240
2BF0
2400
ENDCHAR
STARTCHAR U_4FC8
ENCODING 20424
SWIDTH 1000 0
DWIDTH 13 0
BBX 12 12 0 -1
BITMAP
1080
1280
23E0
6480
A880
27F0
2000
23E0
2220
2220
23E0
2220
ENDCHAR
STARTCHAR U_4FC9
ENCODING 20425
SWIDTH 1000 0
DWIDTH 13 0
BBX 12 12 0 -1
BITMAP
1000
17F0
2080
67E0
A120
2220
2FF0
2000
27E0
2420
2420
27E0
ENDCHAR
STARTCHAR U_4FCA
ENCODING 20426
SWIDTH 1000 0
DWIDTH 13 0
BBX 12 12 0 -1
BITMAP
1100
1220
27D0
2240
6420
A910
23E0
2640
2180
2180
2240
2C30
ENDCHAR
STARTCHAR U_4FCB
ENCODING 20427
SWIDTH 1000 0
DWIDTH 13 0
BBX 12 12 0 -1
BITMAP
1000
17C0
2440
67C0
A000
2FE0
2920
2920
2FE0
2810
2810
27F0
ENDCHAR
STARTCHAR U_4FCC
ENCODING 20428
SWIDTH 1000 0
DWIDTH 13 0
BBX 12 12 0 -1
BITMAP
1140
1120
2FF0
6100
AFE0
2920
2FE0
2920
2FE0
2920
29A0
2940
ENDCHAR
STARTCHAR U_4FCD
ENCODING 20429
SWIDTH 1000 0
DWIDTH 13 0
BBX 12 12 0 -1
BITMAP
1100
1080
27E0
6420
A7E0
2420
27E0
2490
24A0
2440
2520
2610
ENDCHAR
STARTCHAR U_4FCE
ENCODING 20430
SWIDTH 1000 0
DWIDTH 13 0
BBX 12 12 0 -1
BITMAP
2000
23E0
2220
2220
53E0
8A20
2220
23E0
2220
5220
8220
0FF0
ENDCHAR
STARTCHAR U_4FCF
ENCODING 20431
SWIDTH 1000 0
DWIDTH 13 0
BBX 12 12 0 -1
BITMAP
1080
1490
22A0
2080
67F0
A410
27F0
2410
27F0
2410
2450
2420
ENDCHAR
STARTCHAR U_4FD0
ENCODING 20432
SWIDTH 1000 0
DWIDTH 13 0
BBX 12 12 0 -1
BITMAP
1110
1E10
2250
2250
6FD0
A250
2750
2AD0
2A50
2210
2210
2230
ENDCHAR
STARTCHAR U_4FD1
ENCODING 20433
SWIDTH 1000 0
DWIDTH 13 0
BBX 12 12 0 -1
BITMAP
17F0
1160
2080
27F0
6490
A490
27F0
2490
27F0
2490
2490
2430
ENDCHAR
STARTCHAR U_4FD2
ENCODING 20434
SWIDTH 1000 0
DWIDTH 13 0
BBX 12 12 0 -1
BITMAP
1200
1100
2FF0
2810
63C0
A000
2FF0
2280
2280
2490
2490
2860
ENDCHAR
STARTCHAR U_4FD3
ENCODING 20435
SWIDTH 1000 0
DWIDTH 13 0
BBX 12 12 0 -1
BITMAP
1000
17F0
22A0
22A0
6540
A540
22A0
27E0
2080
2080
2080
2FF0
ENDCHAR
STARTCHAR U_4FD4
ENCODING 20436
SWIDTH 1000 0
DWIDTH 13 0
BBX 12 12 0 -1
BITMAP
17E0
1420
27E0
2420
67E0
A420
27E0
2280
2280
2290
2490
2870
ENDCHAR
STARTCHAR U_4FD5
ENCODING 20437
SWIDTH 1000 0
DWIDTH 13 0
BBX 12 12 0 -1
BITMAP
1100
1080
17F0
2410
2920
6100
AFE0
2300
2580
2540
3930
2100
ENDCHAR
STARTCHAR U_4FD6
ENCODING 20438
SWIDTH 1000 0
DWIDTH 13 0
BBX 12 12 0 -1
BITMAP
1020
17F0
2080
21C0
62A0
A490
2880
27E0
2420
2420
27E0
2420
ENDCHAR
STARTCHAR U_4FD7
ENCODING 20439
SWIDTH 1000 0
DWIDTH 13 0
BBX 12 12 0 -1
BITMAP
1240
1220
2410
2900
6180
A240
2420
3BF0
2220
2220
23E0
2220
ENDCHAR
STARTCHAR U_4FD8
ENCODING 20440
SWIDTH 1000 0
DWIDTH 13 0
BBX 12 12 0 -1
BITMAP
1060
1F90
2510
22A0
6FE0
A040
2080
2FF0
2080
2080
2280
2100
ENDCHAR
STARTCHAR U_4FD9
ENCODING 20441
SWIDTH 1000 0
DWIDTH 13 0
BBX 12 12 0 -1
BITMAP
1640
1180
2640
6200
AFF0
2500
2FE0
3520
2520
25A0
2540
2100
ENDCHAR
STARTCHAR U_4FDA
ENCODING 20442
SWIDTH 1000 0
DWIDTH 13 0
BBX 12 12 0 -1
BITMAP
1000
1FE0
2920
2FE0
6920
AFE0
2100
2100
2FE0
2100
2100
3FF0
ENDCHAR
STARTCHAR U_4FDB
ENCODING 20443
SWIDTH 1000 0
DWIDTH 13 0
BBX 12 12 0 -1
BITMAP
1400
17C0
2880
7FE0
A920
2920
2FE0
2280
2280
2480
2490
2870
ENDCHAR
STARTCHAR U_4FDC
ENCODING 20444
SWIDTH 1000 0
DWIDTH 13 0
BBX 12 12 0 -1
BITMAP
1080
17E0
24A0
27E0
64A0
A7E0
2000
2FF0
2200
27E0
2020
20C0
ENDCHAR
STARTCHAR U_4FDD
ENCODING 20445
SWIDTH 1000 0
DWIDTH 13 0
BBX 12 12 0 -1
BITMAP
17E0
1420
2420
27E0
6080
A080
2FF0
2180
22C0
24A0
2890
2080
ENDCHAR
STARTCHAR U_4FDE
ENCODING 20446
SWIDTH 1000 0
DWIDTH 13 0
BBX 12 12 0 -1
BITMAP
0400
0A00
1100
2EC0
C030
7940
4940
7940
4940
7940
4840
58C0
ENDCHAR
STARTCHAR U_4FDF
ENCODING 20447
SWIDTH 1000 0
DWIDTH 13 0
BBX 12 12 0 -1
BITMAP
1200
1440
2FE0
2020
6400
A7E0
2900
3FF0
2100
2280
2440
3830
ENDCHAR
STARTCHAR U_4FE0
ENCODING 20448
SWIDTH 1000 0
DWIDTH 13 0
BBX 12 12 0 -1
BITMAP
1100
1100
2FF0
6100
A540
2540
2BA0
3110
2280
2240
2420
2810
ENDCHAR
STARTCHAR U_4FE1
ENCODING 20449
SWIDTH 1000 0
DWIDTH 13 0
BBX 12 12 0 -1
BITMAP
1100
1080
2FF0
2000
67E0
A000
27E0
2000
27E0
2420
2420
27E0
ENDCHAR
STARTCHAR U_4FE2
ENCODING 20450
SWIDTH 1000 0
DWIDTH 13 0
BBX 12 12 0 -1
BITMAP
1200
13E0
2620
6940
A0C0
2330
2C80
2150
26A0
2140
2080
2700
ENDCHAR
STARTCHAR U_4FE3
ENCODING 20451
SWIDTH 1000 0
DWIDTH 13 0
BBX 12 12 0 -1
BITMAP
17E0
1420
2420
27E0
6000
A7E0
2100
2FF0
2100
2280
2440
2830
ENDCHAR
STARTCHAR U_4FE4
ENCODING 20452
SWIDTH 1000 0
DWIDTH 13 0
BBX 12 12 0 -1
BITMAP
1220
1140
17F0
2090
67F0
A480
27F0
2190
22D0
24A0
2880
2080
ENDCHAR
STARTCHAR U_4FE5
ENCODING 20453
SWIDTH 1000 0
DWIDTH 13 0
BBX 12 12 0 -1
BITMAP
1100
17E0
2100
27E0
6520
A7E0
2520
27E0
2100
2FF0
2100
2100
ENDCHAR
STARTCHAR U_4FE6
ENCODING 20454
SWIDTH 1000 0
DWIDTH 13 0
BBX 12 12 0 -1
BITMAP
1100
1FE0
2200
2FE0
6200
AFF0
2440
2FF0
2240
2140
2040
21C0
ENDCHAR
STARTCHAR U_4FE7
ENCODING 20455
SWIDTH 1000 0
DWIDTH 13 0
BBX 12 12 0 -1
BITMAP
1100
1100
1FF0
2100
6100
A7E0
2000
2920
2A90
3290
2220
21E0
ENDCHAR
STARTCHAR U_4FE8
ENCODING 20456
SWIDTH 1000 0
DWIDTH 13 0
BBX 12 12 0 -1
BITMAP
2FF0
2140
2950
2560
6FF0
A800
2800
2800
2800
2800
2800
3000
ENDCHAR
STARTCHAR U_4FE9
ENCODING 20457
SWIDTH 1000 0
DWIDTH 13 0
BBX 12 12 0 -1
BITMAP
1FF0
1240
2240
2FF0
6A50
AA50
2B50
2AB0
2C90
2910
2850
2820
ENDCHAR
STARTCHAR U_4FEA
ENCODING 20458
SWIDTH 1000 0
DWIDTH 13 0
BBX 12 12 0 -1
BITMAP
1020
1FF0
2000
2EF0
6A90
AA90
2ED0
2AB0
2A90
2A90
2A90
2AB0
ENDCHAR
STARTCHAR U_4FEB
ENCODING 20459
SWIDTH 1000 0
DWIDTH 13 0
BBX 12 12 0 -1
BITMAP
1100
1100
2FE0
6100
A540
2380
3FF0
2300
2580
2940
3130
2100
ENDCHAR
STARTCHAR U_4FEC
ENCODING 20460
SWIDTH 1000 0
DWIDTH 13 0
BBX 12 12 0 -1
BITMAP
1000
1180
2E20
6220
AFA0
2220
2720
2AC0
2A40
3290
22F0
2210
ENDCHAR
STARTCHAR U_4FED
ENCODING 20461
SWIDTH 1000 0
DWIDTH 13 0
BBX 12 12 0 -1
BITMAP
1100
1100
2280
2440
6820
B7D0
2000
2910
24A0
24A0
2040
2FF0
ENDCHAR
STARTCHAR U_4FEE
ENCODING 20462
SWIDTH 1000 0
DWIDTH 13 0
BBX 12 12 0 -1
BITMAP
1200
13F0
2A20
2940
68C0
AB30
2C80
2940
2A90
2920
20C0
2700
ENDCHAR
STARTCHAR U_4FEF
ENCODING 20463
SWIDTH 1000 0
DWIDTH 13 0
BBX 12 12 0 -1
BITMAP
1080
1FF0
2820
2920
6A20
AEF0
2A20
2AA0
2A60
2A20
3220
3260
ENDCHAR
STARTCHAR U_4FF0
ENCODING 20464
SWIDTH 1000 0
DWIDTH 13 0
BBX 12 12 0 -1
BITMAP
1180
1E00
1270
2250
7FD0
A650
2750
2AD0
2A70
3250
2200
2200
ENDCHAR
STARTCHAR U_4FF1
ENCODING 20465
SWIDTH 1000 0
DWIDTH 13 0
BBX 12 12 0 -1
BITMAP
17E0
1420
27E0
2420
67E0
A420
27E0
2420
2FF0
2240
2420
2810
ENDCHAR
STARTCHAR U_4FF2
ENCODING 20466
SWIDTH 1000 0
DWIDTH 13 0
BBX 12 12 0 -1
BITMAP
1440
1240
1FC0
22F0
6A50
A9D0
3250
2A50
2490
2A90
3150
2220
ENDCHAR
STARTCHAR U_4FF3
ENCODING 20467
SWIDTH 1000 0
DWIDTH 13 0
BBX 12 12 0 -1
BITMAP
1240
1240
2E70
2240
6240
AE70
2240
2240
2E70
2240
2240
2240
ENDCHAR
STARTCHAR U_4FF4
ENCODING 20468
SWIDTH 1000 0
DWIDTH 13 0
BBX 12 12 0 -1
BITMAP
1280
1240
2FE0
2140
6390
AD70
2280
21E0
2620
2140
2190
2E70
ENDCHAR
STARTCHAR U_4FF5
ENCODING 20469
SWIDTH 1000 0
DWIDTH 13 0
BBX 12 12 0 -1
BITMAP
1100
1FF0
2100
27E0
6100
AFF0
2300
2490
2CE0
3440
2620
2C10
ENDCHAR
STARTCHAR U_4FF6
ENCODING 20470
SWIDTH 1000 0
DWIDTH 13 0
BBX 12 12 0 -1
BITMAP
1400
14F0
2750
6450
BF50
2450
2650
2D20
34A0
2420
2450
2C90
ENDCHAR
STARTCHAR U_4FF7
ENCODING 20471
SWIDTH 1000 0
DWIDTH 13 0
BBX 12 12 0 -1
BITMAP
2000
3DF0
5550
D550
5D50
55F0
5510
5D00
5500
5510
5510
64F0
ENDCHAR
STARTCHAR U_4FF8
ENCODING 20472
SWIDTH 1000 0
DWIDTH 13 0
BBX 12 12 0 -1
BITMAP
1100
1FF0
2100
27E0
7200
AFF0
2520
2BD0
2100
2FE0
2100
2100
ENDCHAR
STARTCHAR U_4FF9
ENCODING 20473
SWIDTH 1000 0
DWIDTH 13 0
BBX 12 12 0 -1
BITMAP
1000
1FF0
2240
2240
6E70
A810
2810
2E70
2240
2240
2240
2FF0
ENDCHAR
STARTCHAR U_4FFA
ENCODING 20474
SWIDTH 1000 0
DWIDTH 13 0
BBX 12 12 0 -1
BITMAP
1100
1FF0
2280
6540
A7E0
2D50
27C0
2540
27C0
2110
2110
20F0
ENDCHAR
STARTCHAR U_4FFB
ENCODING 20475
SWIDTH 1000 0
DWIDTH 13 0
BBX 12 12 0 -1
BITMAP
1400
1FE0
1440
2A80
3100
66C0
B830
2FE0
2920
2FE0
2920
2FE0
ENDCHAR
STARTCHAR U_4FFC
ENCODING 20476
SWIDTH 1000 0
DWIDTH 13 0
BBX 12 12 0 -1
BITMAP
1100
1FF0
2240
27F0
6010
A7E0
2420
27E0
2420
27E0
2420
2460
ENDCHAR
STARTCHAR U_4FFD
ENCODING 20477
SWIDTH 1000 0
DWIDTH 13 0
BBX 12 12 0 -1
BITMAP
1340
1C40
28F0
2890
6F40
AA40
2A40
2A40
2A40
2AA0
2AA0
3310
ENDCHAR
STARTCHAR U_4FFE
ENCODING 20478
SWIDTH 1000 0
DWIDTH 13 0
BBX 12 12 0 -1
BITMAP
1100
17F0
2490
27F0
6490
A7F0
2280
2480
2FF0
2080
2080
2080
ENDCHAR
STARTCHAR U_4FFF
ENCODING 20479
SWIDTH 1000 0
DWIDTH 13 0
BBX 12 12 0 -1
BITMAP
1100
11C0
2100
2FF0
6920
AFC0
2920
28E0
2800
2BC0
2A50
3470
ENDCHAR
STARTCHAR U_5000
ENCODING 20480
SWIDTH 1000 0
DWIDTH 13 0
BBX 12 12 0 -1
BITMAP
17E0
1400
17C0
2400
27C0
6400
BFF0
2500
2540
2480
2540
2630
ENDCHAR
STARTCHAR U_5001
ENCODING 20481
SWIDTH 1000 0
DWIDTH 13 0
BBX 12 12 0 -1
BITMAP
1400
1400
2770
2A50
2A50
6250
AF50
2250
2250
2550
2570
2880
ENDCHAR
STARTCHAR U_5002
ENCODING 20482
SWIDTH 1000 0
DWIDTH 13 0
BBX 12 12 0 -1
BITMAP
1220
1220
1440
2EF0
2440
6440
AEF0
2440
2440
2440
2840
3040
ENDCHAR
STARTCHAR U_5003
ENCODING 20483
SWIDTH 1000 0
DWIDTH 13 0
BBX 12 12 0 -1
BITMAP
1440
1440
2760
2950
7550
A240
2580
3870
27E0
2420
2420
27E0
ENDCHAR
STARTCHAR U_5004
ENCODING 20484
SWIDTH 1000 0
DWIDTH 13 0
BBX 12 12 0 -1
BITMAP
1660
1180
1240
2520
2FF0
6200
A7E0
2A20
23E0
2220
23E0
2220
ENDCHAR
STARTCHAR U_5005
ENCODING 20485
SWIDTH 1000 0
DWIDTH 13 0
BBX 12 12 0 -1
BITMAP
1100
1080
17F0
2220
2220
6550
A880
2080
27F0
2080
2080
2080
ENDCHAR
STARTCHAR U_5006
ENCODING 20486
SWIDTH 1000 0
DWIDTH 13 0
BBX 12 12 0 -1
BITMAP
1000
17E0
2100
2100
6FF0
A910
2D90
2B50
2B50
2DB0
2910
2930
ENDCHAR
STARTCHAR U_5007
ENCODING 20487
SWIDTH 1000 0
DWIDTH 13 0
BBX 12 12 0 -1
BITMAP
1100
1080
2FF0
2810
6400
A770
2950
2950
3570
2240
2450
2830
ENDCHAR
STARTCHAR U_5008
ENCODING 20488
SWIDTH 1000 0
DWIDTH 13 0
BBX 12 12 0 -1
BITMAP
1100
1100
1FF0
2520
2520
6B50
B100
2380
2340
2520
2910
2100
ENDCHAR
STARTCHAR U_5009
ENCODING 20489
SWIDTH 1000 0
DWIDTH 13 0
BBX 12 12 0 -1
BITMAP
0200
0500
0A80
3FC0
D070
1FC0
1040
1FC0
1000
2FC0
2840
4FC0
ENDCHAR
STARTCHAR U_500A
ENCODING 20490
SWIDTH 1000 0
DWIDTH 13 0
BBX 12 12 0 -1
BITMAP
1080
1480
1480
2A40
2A30
7480
AFC0
2200
2D20
3510
2450
23C0
ENDCHAR
STARTCHAR U_500B
ENCODING 20491
SWIDTH 1000 0
DWIDTH 13 0
BBX 12 12 0 -1
BITMAP
1000
17F0
2490
27F0
6490
A490
25D0
2550
2550
25D0
2410
27F0
ENDCHAR
STARTCHAR U_500C
ENCODING 20492
SWIDTH 1000 0
DWIDTH 13 0
BBX 12 12 0 -1
BITMAP
1100
1080
2FF0
2810
67E0
A420
27E0
2400
27E0
2420
27E0
2420
ENDCHAR
STARTCHAR U_500D
ENCODING 20493
SWIDTH 1000 0
DWIDTH 13 0
BBX 12 12 0 -1
BITMAP
1100
1080
2FF0
2420
6240
AFF0
2000
27E0
2420
2420
27E0
2420
ENDCHAR
STARTCHAR U_500E
ENCODING 20494
SWIDTH 1000 0
DWIDTH 13 0
BBX 12 12 0 -1
BITMAP
1280
1280
2FE0
2AA0
6AA0
AFE0
2AA0
2AA0
3FF0
2440
2820
3010
ENDCHAR
STARTCHAR U_500F
ENCODING 20495
SWIDTH 1000 0
DWIDTH 13 0
BBX 12 12 0 -1
BITMAP
1100
11F0
2340
2880
6940
AEB0
28C0
28A0
2FF0
2880
2140
2630
ENDCHAR
STARTCHAR U_5010
ENCODING 20496
SWIDTH 1000 0
DWIDTH 13 0
BBX 12 12 0 -1
BITMAP
1200
13F0
2520
6CC0
A920
2E90
2AA0
2AA0
2C80
2940
2220
2C10
ENDCHAR
STARTCHAR U_5011
ENCODING 20497
SWIDTH 1000 0
DWIDTH 13 0
BBX 12 12 0 -1
BITMAP
1000
1F70
2950
2F70
6950
AF70
2810
2810
2810
2810
2850
2820
ENDCHAR
STARTCHAR U_5012
ENCODING 20498
SWIDTH 1000 0
DWIDTH 13 0
BBX 12 12 0 -1
BITMAP
1010
1F90
2450
2950
6FD0
A250
2250
2F50
2250
2210
2350
2C20
ENDCHAR
STARTCHAR U_5013
ENCODING 20499
SWIDTH 1000 0
DWIDTH 13 0
BBX 12 12 0 -1
BITMAP
1100
1530
1540
2980
2240
6530
B900
2520
2540
2980
2240
2C30
ENDCHAR
STARTCHAR U_5014
ENCODING 20500
SWIDTH 1000 0
DWIDTH 13 0
BBX 12 12 0 -1
BITMAP
1FF0
1810
2810
2FF0
6880
AA90
2A90
2BF0
2880
2A90
2A90
33F0
ENDCHAR
STARTCHAR U_5015
ENCODING 20501
SWIDTH 1000 0
DWIDTH 13 0
BBX 12 12 0 -1
BITMAP
10E0
1700
2100
2FE0
6540
BFF0
2540
2540
2FE0
2100
2100
27C0
ENDCHAR
STARTCHAR U_5016
ENCODING 20502
SWIDTH 1000 0
DWIDTH 13 0
BBX 12 12 0 -1
BITMAP
1100
1100
17E0
2100
2FF0
6440
A280
27E0
2100
2FF0
2100
2100
ENDCHAR
STARTCHAR U_5017
ENCODING 20503
SWIDTH 1000 0
DWIDTH 13 0
BBX 12 12 0 -1
BITMAP
1000
1770
1550
2770
2550
6550
A770
2550
2550
2950
2A90
3120
ENDCHAR
STARTCHAR U_5018
ENCODING 20504
SWIDTH 1000 0
DWIDTH 13 0
BBX 12 12 0 -1
BITMAP
1490
1290
22A0
2080
6FF0
A810
2BD0
2A50
2BD0
2810
2850
2820
ENDCHAR
STARTCHAR U_5019
ENCODING 20505
SWIDTH 1000 0
DWIDTH 13 0
BBX 12 12 0 -1
BITMAP
13E0
1020
2820
2FF0
6A00
ABE0
2C80
2880
2FF0
2880
2140
2630
ENDCHAR
STARTCHAR U_501A
ENCODING 20506
SWIDTH 1000 0
DWIDTH 13 0
BBX 12 12 0 -1
BITMAP
1100
17F0
2100
2280
6440
BFF0
2020
27A0
24A0
27A0
2020
20E0
ENDCHAR
STARTCHAR U_501B
ENCODING 20507
SWIDTH 1000 0
DWIDTH 13 0
BBX 12 12 0 -1
BITMAP
1240
1240
27E0
2240
63C0
A240
23C0
2240
2FF0
2240
2420
2810
ENDCHAR
STARTCHAR U_501C
ENCODING 20508
SWIDTH 1000 0
DWIDTH 13 0
BBX 12 12 0 -1
BITMAP
1000
17F0
2490
27D0
6490
A7F0
2410
25D0
2550
29D0
2810
3070
ENDCHAR
STARTCHAR U_501D
ENCODING 20509
SWIDTH 1000 0
DWIDTH 13 0
BBX 12 12 0 -1
BITMAP
1040
7C40
1040
7C40
4440
7C40
44A0
7CA0
10A0
FEA0
1110
1210
ENDCHAR
STARTCHAR U_501E
ENCODING 20510
SWIDTH 1000 0
DWIDTH 13 0
BBX 12 12 0 -1
BITMAP
1100
1080
2FF0
2000
67E0
A420
2420
27E0
2080
22A0
2490
2990
ENDCHAR
STARTCHAR U_501F
ENCODING 20511
SWIDTH 1000 0
DWIDTH 13 0
BBX 12 12 0 -1
BITMAP
1240
1240
2FF0
2240
6FF0
A000
27E0
2420
27E0
2420
27E0
2420
ENDCHAR
STARTCHAR U_5020
ENCODING 20512
SWIDTH 1000 0
DWIDTH 13 0
BBX 12 12 0 -1
BITMAP
1280
1240
27F0
2480
6C80
B7E0
2480
2480
27E0
2480
27F0
2400
ENDCHAR
STARTCHAR U_5021
ENCODING 20513
SWIDTH 1000 0
DWIDTH 13 0
BBX 12 12 0 -1
BITMAP
13E0
1220
23E0
2220
63E0
A000
27F0
2410
27F0
2410
27F0
2410
ENDCHAR
STARTCHAR U_5022
ENCODING 20514
SWIDTH 1000 0
DWIDTH 13 0
BBX 12 12 0 -1
BITMAP
1100
17F0
2100
27E0
6120
AFF0
2120
27E0
2100
25E0
2B00
30F0
ENDCHAR
STARTCHAR U_5023
ENCODING 20515
SWIDTH 1000 0
DWIDTH 13 0
BBX 12 12 0 -1
BITMAP
1420
1220
2F40
24F0
6450
A750
2550
2550
2560
2920
2B50
3090
ENDCHAR
STARTCHAR U_5024
ENCODING 20516
SWIDTH 1000 0
DWIDTH 13 0
BBX 12 12 0 -1
BITMAP
1080
17F0
2100
23E0
6220
ABE0
2A20
2BE0
2A20
2BE0
2800
2FF0
ENDCHAR
STARTCHAR U_5025
ENCODING 20517
SWIDTH 1000 0
DWIDTH 13 0
BBX 12 12 0 -1
BITMAP
1100
1080
2FF0
2A50
6240
A420
2810
27E0
2100
2100
2100
2FF0
ENDCHAR
STARTCHAR U_5026
ENCODING 20518
SWIDTH 1000 0
DWIDTH 13 0
BBX 12 12 0 -1
BITMAP
1920
1540
2100
2FF0
6200
AFF0
2420
2BD0
2240
22C0
2210
21F0
ENDCHAR
STARTCHAR U_5027
ENCODING 20519
SWIDTH 1000 0
DWIDTH 13 0
BBX 12 12 0 -1
BITMAP
1100
1080
17F0
2410
2800
63E0
A000
2FF0
2080
22A0
2490
2990
ENDCHAR
STARTCHAR U_5028
ENCODING 20520
SWIDTH 1000 0
DWIDTH 13 0
BBX 12 12 0 -1
BITMAP
17F0
1410
2410
27F0
6480
A7F0
2480
27F0
2A10
2A10
2BF0
3210
ENDCHAR
STARTCHAR U_5029
ENCODING 20521
SWIDTH 1000 0
DWIDTH 13 0
BBX 12 12 0 -1
BITMAP
1100
1FF0
2100
27E0
6100
AFF0
2420
27E0
2420
27E0
2420
2460
ENDCHAR
STARTCHAR U_502A
ENCODING 20522
SWIDTH 1000 0
DWIDTH 13 0
BBX 12 12 0 -1
BITMAP
1100
1670
2410
2770
6410
A410
27F0
2550
2240
2250
2450
2830
ENDCHAR
STARTCHAR U_502B
ENCODING 20523
SWIDTH 1000 0
DWIDTH 13 0
BBX 12 12 0 -1
BITMAP
1100
1100
2280
2440
6BA0
B010
2FE0
2AA0
2FE0
2AA0
2AA0
2860
ENDCHAR
STARTCHAR U_502C
ENCODING 20524
SWIDTH 1000 0
DWIDTH 13 0
BBX 12 12 0 -1
BITMAP
1100
11E0
2100
6FE0
A820
2FE0
2820
2FE0
2100
3FF0
2100
2100
ENDCHAR
STARTCHAR U_502D
ENCODING 20525
SWIDTH 1000 0
DWIDTH 13 0
BBX 12 12 0 -1
BITMAP
1060
1780
2100
2FF0
6540
B930
2100
3FF0
2440
2280
2180
2E70
ENDCHAR
STARTCHAR U_502E
ENCODING 20526
SWIDTH 1000 0
DWIDTH 13 0
BBX 12 12 0 -1
BITMAP
2FE0
2920
2FE0
2920
6FE0
A920
2100
3FF0
2100
2540
2920
3110
ENDCHAR
STARTCHAR U_502F
ENCODING 20527
SWIDTH 1000 0
DWIDTH 13 0
BBX 12 12 0 -1
BITMAP
1420
14A0
24A0
2E90
6510
A550
2E50
2C80
3480
3520
25F0
2410
ENDCHAR
STARTCHAR U_5030
ENCODING 20528
SWIDTH 1000 0
DWIDTH 13 0
BBX 12 12 0 -1
BITMAP
1100
17C0
2100
2FF0
6440
A920
3210
27E0
2A40
3180
2240
2C30
ENDCHAR
STARTCHAR U_5031
ENCODING 20529
SWIDTH 1000 0
DWIDTH 13 0
BBX 12 12 0 -1
BITMAP
17E0
1420
27E0
2420
67E0
A000
2880
2890
2EA0
28C0
2A90
2CF0
ENDCHAR
STARTCHAR U_5032
ENCODING 20530
SWIDTH 1000 0
DWIDTH 13 0
BBX 12 12 0 -1
BITMAP
1100
17E0
2100
27E0
6520
A7E0
2520
27E0
2180
2340
2520
3910
ENDCHAR
STARTCHAR U_5033
ENCODING 20531
SWIDTH 1000 0
DWIDTH 13 0
BBX 12 12 0 -1
BITMAP
1100
1FF0
2100
27E0
6520
A7E0
2120
2FF0
2120
27E0
2100
2300
ENDCHAR
STARTCHAR U_5034
ENCODING 20532
SWIDTH 1000 0
DWIDTH 13 0
BBX 12 12 0 -1
BITMAP
1100
17F0
2240
2520
6BD0
A100
2440
3FF0
2440
2440
2840
3040
ENDCHAR
STARTCHAR U_5035
ENCODING 20533
SWIDTH 1000 0
DWIDTH 13 0
BBX 12 12 0 -1
BITMAP
1080
10A0
2E90
2080
7FF0
A280
2B80
2A40
2A50
2BD0
3E30
2010
ENDCHAR
STARTCHAR U_5036
ENCODING 20534
SWIDTH 1000 0
DWIDTH 13 0
BBX 12 12 0 -1
BITMAP
17C0
1440
27C0
2440
67C0
A440
27C0
2000
3FF0
2240
2420
2810
ENDCHAR
STARTCHAR U_5037
ENCODING 20535
SWIDTH 1000 0
DWIDTH 13 0
BBX 12 12 0 -1
BITMAP
1100
1100
2FE0
2240
6420
ABD0
3000
2FF0
2100
2540
2920
3310
ENDCHAR
STARTCHAR U_5038
ENCODING 20536
SWIDTH 1000 0
DWIDTH 13 0
BBX 12 12 0 -1
BITMAP
10E0
1700
2A20
2540
6000
A100
2FF0
2100
2380
2540
2920
3110
ENDCHAR
STARTCHAR U_5039
ENCODING 20537
SWIDTH 1000 0
DWIDTH 13 0
BBX 12 12 0 -1
BITMAP
1100
1100
2280
2440
6BA0
B110
2FE0
2920
2FE0
2100
2280
2C60
ENDCHAR
STARTCHAR U_503A
ENCODING 20538
SWIDTH 1000 0
DWIDTH 13 0
BBX 12 12 0 -1
BITMAP
1100
1FF0
2100
2FE0
6100
AFF0
2000
27E0
2520
2520
2280
2C60
ENDCHAR
STARTCHAR U_503B
ENCODING 20539
SWIDTH 1000 0
DWIDTH 13 0
BBX 12 12 0 -1
BITMAP
1000
1F00
2AF0
2A90
6EA0
AAC0
2EA0
2A90
2F90
3AD0
22A0
2280
ENDCHAR
STARTCHAR U_503C
ENCODING 20540
SWIDTH 1000 0
DWIDTH 13 0
BBX 12 12 0 -1
BITMAP
1100
1FF0
2100
27E0
6420
A7E0
2420
27E0
2420
27E0
2420
2FF0
ENDCHAR
STARTCHAR U_503D
ENCODING 20541
SWIDTH 1000 0
DWIDTH 13 0
BBX 12 12 0 -1
BITMAP
1100
1100
2280
2440
6BA0
B110
2FE0
2100
27E0
2420
2420
27E0
ENDCHAR
STARTCHAR U_503E
ENCODING 20542
SWIDTH 1000 0
DWIDTH 13 0
BBX 12 12 0 -1
BITMAP
1000
13F0
2880
29F0
6F10
A950
2950
2950
2D50
3940
20A0
2310
ENDCHAR
STARTCHAR U_503F
ENCODING 20543
SWIDTH 1000 0
DWIDTH 13 0
BBX 12 12 0 -1
BITMAP
1100
1FE0
2440
2280
6FE0
A100
2FF0
2240
2440
2680
2180
2E60
ENDCHAR
STARTCHAR U_5040
ENCODING 20544
SWIDTH 1000 0
DWIDTH 13 0
BBX 12 12 0 -1
BITMAP
1440
1FE0
2440
2100
6FE0
A920
2920
3FF0
2280
2280
2440
2830
ENDCHAR
STARTCHAR U_5041
ENCODING 20545
SWIDTH 1000 0
DWIDTH 13 0
BBX 12 12 0 -1
BITMAP
1070
1780
2920
24A0
6140
A7E0
2520
27E0
2520
2FF0
2420
2460
ENDCHAR
STARTCHAR U_5042
ENCODING 20546
SWIDTH 1000 0
DWIDTH 13 0
BBX 12 12 0 -1
BITMAP
1420
1240
2FF0
2000
6F10
A950
2F50
2950
2F50
2950
2910
2B30
ENDCHAR
STARTCHAR U_5043
ENCODING 20547
SWIDTH 1000 0
DWIDTH 13 0
BBX 12 12 0 -1
BITMAP
1FF0
1A20
2BE0
2A20
6BE0
A840
2880
2FF0
2920
28C0
2920
2FF0
ENDCHAR
STARTCHAR U_5044
ENCODING 20548
SWIDTH 1000 0
DWIDTH 13 0
BBX 12 12 0 -1
BITMAP
1000
1FF0
2100
2FE0
6AA0
AAA0
2960
2100
2FF0
2280
2280
2C60
ENDCHAR
STARTCHAR U_5045
ENCODING 20549
SWIDTH 1000 0
DWIDTH 13 0
BBX 12 12 0 -1
BITMAP
10E0
1780
2080
2FF0
64A0
A7E0
24A0
27E0
2080
27E0
2080
2FF0
ENDCHAR
STARTCHAR U_5046
ENCODING 20550
SWIDTH 1000 0
DWIDTH 13 0
BBX 12 12 0 -1
BITMAP
1100
17E0
2100
27C0
6200
AFF0
2240
27E0
2A50
33C0
2240
23C0
ENDCHAR
STARTCHAR U_5047
ENCODING 20551
SWIDTH 1000 0
DWIDTH 13 0
BBX 12 12 0 -1
BITMAP
5EF0
5210
5210
5EF0
D000
5EF0
5090
5090
5E60
5040
50A0
5110
ENDCHAR
STARTCHAR U_5048
ENCODING 20552
SWIDTH 1000 0
DWIDTH 13 0
BBX 12 12 0 -1
BITMAP
17E0
1420
27E0
2420
67E0
A200
27F0
2C90
2550
2430
2790
2020
ENDCHAR
STARTCHAR U_5049
ENCODING 20553
SWIDTH 1000 0
DWIDTH 13 0
BBX 12 12 0 -1
BITMAP
1200
17C0
2240
2FF0
6420
A7E0
2100
2FE0
2900
3FF0
2100
2100
ENDCHAR
STARTCHAR U_504A
ENCODING 20554
SWIDTH 1000 0
DWIDTH 13 0
BBX 12 12 0 -1
BITMAP
10E0
1700
2100
27E0
6520
A7E0
2100
2FF0
2950
29D0
2B10
2870
ENDCHAR
STARTCHAR U_504B
ENCODING 20555
SWIDTH 1000 0
DWIDTH 13 0
BBX 12 12 0 -1
BITMAP
17E0
1420
27E0
2520
6540
A7E0
2540
2540
2BF0
2940
3240
3440
ENDCHAR
STARTCHAR U_504C
ENCODING 20556
SWIDTH 1000 0
DWIDTH 13 0
BBX 12 12 0 -1
BITMAP
1240
1240
2FF0
6240
A100
2FF0
2200
23E0
2620
2A20
23E0
2220
ENDCHAR
STARTCHAR U_504D
ENCODING 20557
SWIDTH 1000 0
DWIDTH 13 0
BBX 12 12 0 -1
BITMAP
17C0
1440
27C0
2440
67C0
A000
2FF0
2100
25E0
2500
2F00
31F0
ENDCHAR
STARTCHAR U_504E
ENCODING 20558
SWIDTH 1000 0
DWIDTH 13 0
BBX 12 12 0 -1
BITMAP
2FE0
2920
2FE0
2920
6FE0
A000
2FF0
2500
2490
24A0
2640
2C30
ENDCHAR
STARTCHAR U_504F
ENCODING 20559
SWIDTH 1000 0
DWIDTH 13 0
BBX 12 12 0 -1
BITMAP
1080
17F0
2410
27F0
6400
A7F0
2550
2D50
2FF0
2D50
3550
2430
ENDCHAR
STARTCHAR U_5050
ENCODING 20560
SWIDTH 1000 0
DWIDTH 13 0
BBX 12 12 0 -1
BITMAP
1200
1100
2FE0
6440
A280
2FE0
2840
2B80
2860
2B80
2860
3380
ENDCHAR
STARTCHAR U_5051
ENCODING 20561
SWIDTH 1000 0
DWIDTH 13 0
BBX 12 12 0 -1
BITMAP
1000
1FE0
28A0
2F20
6A20
AFA0
2AA0
2FA0
2A20
2AA0
3790
3010
ENDCHAR
STARTCHAR U_5052
ENCODING 20562
SWIDTH 1000 0
DWIDTH 13 0
BBX 12 12 0 -1
BITMAP
17C0
1440
27C0
2440
7FF0
A400
2FF0
2950
3250
2490
2910
2260
ENDCHAR
STARTCHAR U_5053
ENCODING 20563
SWIDTH 1000 0
DWIDTH 13 0
BBX 12 12 0 -1
BITMAP
1FE0
1820
2820
2FE0
6800
AFF0
2A40
2BE0
2880
2BE0
2880
37F0
ENDCHAR
STARTCHAR U_5054
ENCODING 20564
SWIDTH 1000 0
DWIDTH 13 0
BBX 12 12 0 -1
BITMAP
1000
1EE0
2AA0
2EE0
6000
A7E0
2000
3FF0
2200
27E0
2040
2180
ENDCHAR
STARTCHAR U_5055
ENCODING 20565
SWIDTH 1000 0
DWIDTH 13 0
BBX 12 12 0 -1
BITMAP
1480
14B0
27C0
2490
6790
AC70
2100
27E0
2420
27E0
2420
27E0
ENDCHAR
STARTCHAR U_5056
ENCODING 20566
SWIDTH 1000 0
DWIDTH 13 0
BBX 12 12 0 -1
BITMAP
1100
17D0
2120
2FF0
6080
A100
27E0
2C20
37E0
2420
2420
27E0
ENDCHAR
STARTCHAR U_5057
ENCODING 20567
SWIDTH 1000 0
DWIDTH 13 0
BBX 12 12 0 -1
BITMAP
1140
1520
2950
2180
6200
BFE0
2420
27E0
2420
27E0
2420
27E0
ENDCHAR
STARTCHAR U_5058
ENCODING 20568
SWIDTH 1000 0
DWIDTH 13 0
BBX 12 12 0 -1
BITMAP
1000
17E0
1420
2420
27E0
6000
AEF0
2A90
2A90
2A90
2EF0
2A90
ENDCHAR
STARTCHAR U_5059
ENCODING 20569
SWIDTH 1000 0
DWIDTH 13 0
BBX 12 12 0 -1
BITMAP
1100
1FE0
2440
2280
6FF0
A910
3120
27E0
2520
2520
2560
2100
ENDCHAR
STARTCHAR U_505A
ENCODING 20570
SWIDTH 1000 0
DWIDTH 13 0
BBX 12 12 0 -1
BITMAP
2880
2880
4880
7FF0
C940
4B40
5D40
5540
5480
5C80
5540
4230
ENDCHAR
STARTCHAR U_505B
ENCODING 20571
SWIDTH 1000 0
DWIDTH 13 0
BBX 12 12 0 -1
BITMAP
10E0
1780
2080
2FF0
6080
A280
2CB0
2890
2EB0
2890
2FF0
2810
ENDCHAR
STARTCHAR U_505C
ENCODING 20572
SWIDTH 1000 0
DWIDTH 13 0
BBX 12 12 0 -1
BITMAP
1100
1FF0
2000
27E0
6420
AFF0
2810
27C0
2080
2080
2280
2100
ENDCHAR
STARTCHAR U_505D
ENCODING 20573
SWIDTH 1000 0
DWIDTH 13 0
BBX 12 12 0 -1
BITMAP
1280
1EB0
22C0
2E90
7270
A7C0
2440
27C0
2440
27C0
2440
24C0
ENDCHAR
STARTCHAR U_505E
ENCODING 20574
SWIDTH 1000 0
DWIDTH 13 0
BBX 12 12 0 -1
BITMAP
1140
1540
2FF0
2540
65C0
A400
27E0
2100
2FF0
2340
2520
2910
ENDCHAR
STARTCHAR U_505F
ENCODING 20575
SWIDTH 1000 0
DWIDTH 13 0
BBX 12 12 0 -1
BITMAP
2200
2FE0
2820
4FE0
C820
4FE0
4000
5FF0
4100
4FE0
4100
5FF0
ENDCHAR
STARTCHAR U_5060
ENCODING 20576
SWIDTH 1000 0
DWIDTH 13 0
BBX 12 12 0 -1
BITMAP
1020
1FF0
2280
6FE0
AAA0
2FE0
2200
3FF0
2240
2480
2380
2C60
ENDCHAR
STARTCHAR U_5061
ENCODING 20577
SWIDTH 1000 0
DWIDTH 13 0
BBX 12 12 0 -1
BITMAP
1240
17E0
2240
63C0
A240
23C0
2240
2FF0
2540
2540
2620
27F0
ENDCHAR
STARTCHAR U_5062
ENCODING 20578
SWIDTH 1000 0
DWIDTH 13 0
BBX 12 12 0 -1
BITMAP
2640
3840
2840
4950
5F60
C940
4D40
5A40
6840
48A0
4910
4A10
ENDCHAR
STARTCHAR U_5063
ENCODING 20579
SWIDTH 1000 0
DWIDTH 13 0
BBX 12 12 0 -1
BITMAP
1100
1FE0
2440
2280
7FF0
A000
27E0
2420
27E0
2420
27E0
2420
ENDCHAR
STARTCHAR U_5064
ENCODING 20580
SWIDTH 1000 0
DWIDTH 13 0
BBX 12 12 0 -1
BITMAP
1220
1140
2FF0
2140
67F0
A550
2550
2630
2410
27F0
2410
27F0
ENDCHAR
STARTCHAR U_5065
ENCODING 20581
SWIDTH 1000 0
DWIDTH 13 0
BBX 12 12 0 -1
BITMAP
1080
2DE0
24A0
6BF0
A8A0
2DE0
2480
35E0
2880
2BF0
3480
23F0
ENDCHAR
STARTCHAR U_5066
ENCODING 20582
SWIDTH 1000 0
DWIDTH 13 0
BBX 12 12 0 -1
BITMAP
2FE0
2220
4BC0
CA00
77F0
4000
47E0
4420
47E0
4420
47E0
4420
ENDCHAR
STARTCHAR U_5067
ENCODING 20583
SWIDTH 1000 0
DWIDTH 13 0
BBX 12 12 0 -1
BITMAP
1100
1FE0
2280
2540
7BB0
A680
2100
2680
21C0
2740
2080
2F00
ENDCHAR
STARTCHAR U_5068
ENCODING 20584
SWIDTH 1000 0
DWIDTH 13 0
BBX 12 12 0 -1
BITMAP
1280
12B0
2BC0
2A80
6B90
AC70
2100
3FF0
2380
2540
2920
3110
ENDCHAR
STARTCHAR U_5069
ENCODING 20585
SWIDTH 1000 0
DWIDTH 13 0
BBX 12 12 0 -1
BITMAP
1200
13C0
1480
2FE0
2420
67E0
A420
27E0
2420
27E0
2240
2C20
ENDCHAR
STARTCHAR U_506A
ENCODING 20586
SWIDTH 1000 0
DWIDTH 13 0
BBX 12 12 0 -1
BITMAP
1000
1FE0
1000
27C0
6440
A7C0
2000
2FE0
2920
2FE0
2920
2FE0
ENDCHAR
STARTCHAR U_506B
ENCODING 20587
SWIDTH 1000 0
DWIDTH 13 0
BBX 12 12 0 -1
BITMAP
2440
2440
29F0
5440
47F0
C820
5BF0
4820
4920
48A0
4820
4860
ENDCHAR
STARTCHAR U_506C
ENCODING 20588
SWIDTH 1000 0
DWIDTH 13 0
BBX 12 12 0 -1
BITMAP
1400
17F0
2D50
3250
6590
A950
2230
2100
2AA0
2A10
3220
21E0
ENDCHAR
STARTCHAR U_506D
ENCODING 20589
SWIDTH 1000 0
DWIDTH 13 0
BBX 12 12 0 -1
BITMAP
1020
1FF0
2100
2200
6FF0
AA50
2BD0
2A50
2BD0
2A50
2FF0
2810
ENDCHAR
STARTCHAR U_506E
ENCODING 20590
SWIDTH 1000 0
DWIDTH 13 0
BBX 12 12 0 -1
BITMAP
17E0
1420
27E0
2000
6FF0
A420
27E0
2420
27E0
2420
2FF0
2020
ENDCHAR
STARTCHAR U_506F
ENCODING 20591
SWIDTH 1000 0
DWIDTH 13 0
BBX 12 12 0 -1
BITMAP
1100
1FF0
2000
2FE0
6820
AFE0
2290
24A0
2C40
3440
2620
2410
ENDCHAR
STARTCHAR U_5070
ENCODING 20592
SWIDTH 1000 0
DWIDTH 13 0
BBX 12 12 0 -1
BITMAP
1400
1EF0
2450
2E50
6450
AE90
2530
2100
2FF0
2180
2240
2C30
ENDCHAR
STARTCHAR U_5071
ENCODING 20593
SWIDTH 1000 0
DWIDTH 13 0
BBX 12 12 0 -1
BITMAP
1060
1F80
2880
2FF0
2880
6BE0
AA20
2BE0
2A20
2BE0
2A20
33E0
ENDCHAR
STARTCHAR U_5072
ENCODING 20594
SWIDTH 1000 0
DWIDTH 13 0
BBX 12 12 0 -1
BITMAP
1000
1FE0
2920
2FE0
6920
AFE0
2820
2100
24A0
2C10
3450
23C0
ENDCHAR
STARTCHAR U_5073
ENCODING 20595
SWIDTH 1000 0
DWIDTH 13 0
BBX 12 12 0 -1
BITMAP
1100
1920
2920
2FE0
6000
AFF0
2100
2FF0
2A90
2A90
2A90
2830
ENDCHAR
STARTCHAR U_5074
ENCODING 20596
SWIDTH 1000 0
DWIDTH 13 0
BBX 12 12 0 -1
BITMAP
2010
2F10
2950
4F50
4950
C950
4F50
4950
4F50
4010
4910
50B0
ENDCHAR
STARTCHAR U_5075
ENCODING 20597
SWIDTH 1000 0
DWIDTH 13 0
BBX 12 12 0 -1
BITMAP
1100
21F0
2100
6FE0
A820
2FE0
2820
2FE0
2820
2FE0
2440
3830
ENDCHAR
STARTCHAR U_5076
ENCODING 20598
SWIDTH 1000 0
DWIDTH 13 0
BBX 12 12 0 -1
BITMAP
17E0
1520
27E0
2520
67E0
A100
2FF0
2910
2950
2FD0
2810
2830
ENDCHAR
STARTCHAR U_5077
ENCODING 20599
SWIDTH 1000 0
DWIDTH 13 0
BBX 12 12 0 -1
BITMAP
1100
1280
2440
2BB0
7000
AF10
2950
2F50
2950
2F50
2910
2B70
ENDCHAR
STARTCHAR U_5078
ENCODING 20600
SWIDTH 1000 0
DWIDTH 13 0
BBX 12 12 0 -1
BITMAP
1100
1280
2440
2830
77C0
A000
2EA0
2AA0
2F40
2AA0
2EA0
2AA0
ENDCHAR
STARTCHAR U_5079
ENCODING 20601
SWIDTH 1000 0
DWIDTH 13 0
BBX 12 12 0 -1
BITMAP
2200
23E0
4620
5140
D080
5340
5C30
57E0
54A0
57E0
44A0
47E0
ENDCHAR
STARTCHAR U_507A
ENCODING 20602
SWIDTH 1000 0
DWIDTH 13 0
BBX 12 12 0 -1
BITMAP
2440
2740
2960
5550
4240
C580
5870
4FC0
4840
4FC0
4840
4FC0
ENDCHAR
STARTCHAR U_507B
ENCODING 20603
SWIDTH 1000 0
DWIDTH 13 0
BBX 12 12 0 -1
BITMAP
1920
1540
2100
2FF0
6540
A930
2100
2FF0
2240
2680
2140
2E30
ENDCHAR
STARTCHAR U_507C
ENCODING 20604
SWIDTH 1000 0
DWIDTH 13 0
BBX 12 12 0 -1
BITMAP
2100
21C0
2100
4FE0
4020
DFF0
4020
4FE0
4900
49E0
5500
63F0
ENDCHAR
STARTCHAR U_507D
ENCODING 20605
SWIDTH 1000 0
DWIDTH 13 0
BBX 12 12 0 -1
BITMAP
2900
2500
2500
4FC0
4440
CFE0
4820
4FF0
5010
6550
4A90
4060
ENDCHAR
STARTCHAR U_507E
ENCODING 20606
SWIDTH 1000 0
DWIDTH 13 0
BBX 12 12 0 -1
BITMAP
1100
1FE0
2540
2FF0
6440
AFE0
2920
2920
2920
2920
2280
2C70
ENDCHAR
STARTCHAR U_507F
ENCODING 20607
SWIDTH 1000 0
DWIDTH 13 0
BBX 12 12 0 -1
BITMAP
1490
12A0
2080
2FF0
6810
A7E0
2000
2FF0
2100
2220
27F0
2010
ENDCHAR
STARTCHAR U_5080
ENCODING 20608
SWIDTH 1000 0
DWIDTH 13 0
BBX 12 12 0 -1
BITMAP
1100
1FE0
2920
2FE0
6920
AFE0
2100
2140
23A0
25F0
2910
30F0
ENDCHAR
STARTCHAR U_5081
ENCODING 20609
SWIDTH 1000 0
DWIDTH 13 0
BBX 12 12 0 -1
BITMAP
2100
2D60
2920
4D60
4920
CFE0
4100
4FE0
4440
4280
4100
5EF0
ENDCHAR
STARTCHAR U_5082
ENCODING 20610
SWIDTH 1000 0
DWIDTH 13 0
BBX 12 12 0 -1
BITMAP
2070
2F80
28E0
4880
4BF0
CA90
4BE0
4A80
4BE0
4B40
5550
6A70
ENDCHAR
STARTCHAR U_5083
ENCODING 20611
SWIDTH 1000 0
DWIDTH 13 0
BBX 12 12 0 -1
BITMAP
2100
2FE0
4100
4FE0
C100
4FE0
4240
4780
4240
47E0
4940
5730
ENDCHAR
STARTCHAR U_5084
ENCODING 20612
SWIDTH 1000 0
DWIDTH 13 0
BBX 12 12 0 -1
BITMAP
2100
2120
3FF0
4AA0
4440
DFF0
4820
4FE0
4820
4FE0
4820
4FE0
ENDCHAR
STARTCHAR U_5085
ENCODING 20613
SWIDTH 1000 0
DWIDTH 13 0
BBX 12 12 0 -1
BITMAP
1120
2FF0
2100
6FE0
A920
2FE0
2920
2FE0
2040
2FF0
2240
20C0
ENDCHAR
STARTCHAR U_5086
ENCODING 20614
SWIDTH 1000 0
DWIDTH 13 0
BBX 12 12 0 -1
BITMAP
2FF0
2880
2BE0
4A20
4BE0
CA20
4BE0
4880
4AA0
5290
5490
6990
ENDCHAR
STARTCHAR U_5087
ENCODING 20615
SWIDTH 1000 0
DWIDTH 13 0
BBX 12 12 0 -1
BITMAP
1240
1FF0
2240
2000
6FF0
A440
27C0
2440
27C0
2470
2FC0
2040
ENDCHAR
STARTCHAR U_5088
ENCODING 20616
SWIDTH 1000 0
DWIDTH 13 0
BBX 12 12 0 -1
BITMAP
17F0
1140
27F0
2550
6550
A7F0
2080
2FF0
2080
21C0
22A0
2490
ENDCHAR
STARTCHAR U_5089
ENCODING 20617
SWIDTH 1000 0
DWIDTH 13 0
BBX 12 12 0 -1
BITMAP
2FF0
2800
2BE0
4800
4FF0
CA40
4BB0
4840
4FF0
5240
5140
6080
ENDCHAR
STARTCHAR U_508A
ENCODING 20618
SWIDTH 1000 0
DWIDTH 13 0
BBX 12 12 0 -1
BITMAP
17C0
1440
27C0
2000
6FE0
A920
2CA0
2A60
2920
2FE0
2440
2820
ENDCHAR
STARTCHAR U_508B
ENCODING 20619
SWIDTH 1000 0
DWIDTH 13 0
BBX 12 12 0 -1
BITMAP
1240
2FF0
2240
67E0
A240
2FF0
2520
27E0
2520
2FF0
2420
2460
ENDCHAR
STARTCHAR U_508C
ENCODING 20620
SWIDTH 1000 0
DWIDTH 13 0
BBX 12 12 0 -1
BITMAP
2FE0
2900
2FE0
4900
4FE0
C900
4FF0
4010
5550
5550
6A10
4070
ENDCHAR
STARTCHAR U_508D
ENCODING 20621
SWIDTH 1000 0
DWIDTH 13 0
BBX 12 12 0 -1
BITMAP
1100
1FF0
2420
2240
6FF0
A890
2FF0
2200
23E0
2220
24A0
2840
ENDCHAR
STARTCHAR U_508E
ENCODING 20622
SWIDTH 1000 0
DWIDTH 13 0
BBX 12 12 0 -1
BITMAP
1100
1FF0
2100
27E0
6420
A7E0
2420
27E0
2420
3FF0
2240
2C30
ENDCHAR
STARTCHAR U_508F
ENCODING 20623
SWIDTH 1000 0
DWIDTH 13 0
BBX 12 12 0 -1
BITMAP
1080
17F0
2480
27E0
64A0
A7F0
24A0
27E0
2480
2BE0
2A20
33E0
ENDCHAR
STARTCHAR U_5090
ENCODING 20624
SWIDTH 1000 0
DWIDTH 13 0
BBX 12 12 0 -1
BITMAP
1100
1FF0
2000
23C0
6240
A3C0
2FF0
2810
2BD0
2A50
2BD0
2830
ENDCHAR
STARTCHAR U_5091
ENCODING 20625
SWIDTH 1000 0
DWIDTH 13 0
BBX 12 12 0 -1
BITMAP
1420
16F0
2AA0
2EA0
62F0
A420
2920
2FF0
2540
2920
3110
2100
ENDCHAR
STARTCHAR U_5092
ENCODING 20626
SWIDTH 1000 0
DWIDTH 13 0
BBX 12 12 0 -1
BITMAP
10E0
1F20
2920
22C0
6780
A240
2FE0
2100
2FF0
2180
2240
2C30
ENDCHAR
STARTCHAR U_5093
ENCODING 20627
SWIDTH 1000 0
DWIDTH 13 0
BBX 12 12 0 -1
BITMAP
2100
2080
2FF0
4810
4FF0
C800
4F70
4910
4D50
4B30
5550
6330
ENDCHAR
STARTCHAR U_5094
ENCODING 20628
SWIDTH 1000 0
DWIDTH 13 0
BBX 12 12 0 -1
BITMAP
1440
1280
2FF0
2280
6FE0
A2A0
3FF0
22A0
2FE0
26C0
2AA0
3290
ENDCHAR
STARTCHAR U_5095
ENCODING 20629
SWIDTH 1000 0
DWIDTH 13 0
BBX 12 12 0 -1
BITMAP
1100
1100
2FF0
6A90
A3E0
2480
2FE0
3480
27E0
2480
2480
27F0
ENDCHAR
STARTCHAR U_5096
ENCODING 20630
SWIDTH 1000 0
DWIDTH 13 0
BBX 12 12 0 -1
BITMAP
1100
1280
2540
28B0
67E0
24A0
27E0
2400
2FE0
2A20
2A20
33E0
ENDCHAR
STARTCHAR U_5097
ENCODING 20631
SWIDTH 1000 0
DWIDTH 13 0
BBX 12 12 0 -1
BITMAP
1100
1FF0
2240
2F80
6140
AFE0
2020
2FE0
2920
2FE0
2920
2FE0
ENDCHAR
STARTCHAR U_5098
ENCODING 20632
SWIDTH 1000 0
DWIDTH 13 0
BBX 12 12 0 -1
BITMAP
0200
0500
0AC0
7270
1240
2AA0
1240
2AA0
0200
7FF0
0200
0200
ENDCHAR
STARTCHAR U_5099
ENCODING 20633
SWIDTH 1000 0
DWIDTH 13 0
BBX 12 12 0 -1
BITMAP
1240
1FF0
2240
2FF0
6200
A7F0
2490
2FF0
2490
27F0
2490
24B0
ENDCHAR
STARTCHAR U_509A
ENCODING 20634
SWIDTH 1000 0
DWIDTH 13 0
BBX 12 12 0 -1
BITMAP
1440
1440
3F70
2A90
6990
B290
3A50
2450
2620
2560
2890
3310
ENDCHAR
STARTCHAR U_509B
ENCODING 20635
SWIDTH 1000 0
DWIDTH 13 0
BBX 12 12 0 -1
BITMAP
1100
1080
2FF0
2A50
6520
AA50
2420
2FF0
3420
2420
27E0
2420
ENDCHAR
STARTCHAR U_509C
ENCODING 20636
SWIDTH 1000 0
DWIDTH 13 0
BBX 12 12 0 -1
BITMAP
10E0
1F20
2A20
2540
6400
A7E0
2900
3FF0
2100
2920
2FE0
2820
ENDCHAR
STARTCHAR U_509D
ENCODING 20637
SWIDTH 1000 0
DWIDTH 13 0
BBX 12 12 0 -1
BITMAP
17E0
1420
27E0
2420
67E0
A000
2F70
2550
2330
2DD0
2110
2330
ENDCHAR
STARTCHAR U_509E
ENCODING 20638
SWIDTH 1000 0
DWIDTH 13 0
BBX 12 12 0 -1
BITMAP
1440
1280
2FF0
2100
67E0
A100
2FF0
2200
27E0
2900
3100
2FF0
ENDCHAR
STARTCHAR U_509F
ENCODING 20639
SWIDTH 1000 0
DWIDTH 13 0
BBX 12 12 0 -1
BITMAP
2480
2480
2840
4A20
5490
CFC0
4000
5EF0
5290
4A50
5290
4630
ENDCHAR
STARTCHAR U_50A0
ENCODING 20640
SWIDTH 1000 0
DWIDTH 13 0
BBX 12 12 0 -1
BITMAP
2820
2420
3F20
40F0
5E20
C120
5EA0
40A0
5E20
5220
5EA0
5240
ENDCHAR
STARTCHAR U_50A1
ENCODING 20641
SWIDTH 1000 0
DWIDTH 13 0
BBX 12 12 0 -1
BITMAP
2880
2440
2440
5EF0
4000
D2A0
52A0
4AA0
44A0
46A0
5840
43F0
ENDCHAR
STARTCHAR U_50A2
ENCODING 20642
SWIDTH 1000 0
DWIDTH 13 0
BBX 12 12 0 -1
BITMAP
1100
1FF0
2810
27E0
6100
A310
2DA0
22C0
25C0
22A0
2C90
2180
ENDCHAR
STARTCHAR U_50A3
ENCODING 20643
SWIDTH 1000 0
DWIDTH 13 0
BBX 12 12 0 -1
BITMAP
1100
1FE0
2200
2FE0
6200
BFF0
2920
3550
2380
2D40
3120
2300
ENDCHAR
STARTCHAR U_50A4
ENCODING 20644
SWIDTH 1000 0
DWIDTH 13 0
BBX 12 12 0 -1
BITMAP
24C0
2EA0
24A0
5FF0
4880
DEA0
48A0
5440
5E40
4450
5EB0
4510
ENDCHAR
STARTCHAR U_50A5
ENCODING 20645
SWIDTH 1000 0
DWIDTH 13 0
BBX 12 12 0 -1
BITMAP
1520
1540
2FF0
2810
67E0
A420
2420
27E0
2280
2290
2490
2870
ENDCHAR
STARTCHAR U_50A6
ENCODING 20646
SWIDTH 1000 0
DWIDTH 13 0
BBX 12 12 0 -1
BITMAP
27C0
2440
2740
4540
5FF0
D010
47C0
4440
47C0
4440
47C0
4440
ENDCHAR
STARTCHAR U_50A7
ENCODING 20647
SWIDTH 1000 0
DWIDTH 13 0
BBX 12 12 0 -1
BITMAP
1100
1FF0
2850
3780
6400
A7E0
2480
2480
3FF0
2000
2440
2820
ENDCHAR
STARTCHAR U_50A8
ENCODING 20648
SWIDTH 1000 0
DWIDTH 13 0
BBX 12 12 0 -1
BITMAP
2080
2890
4BF0
40A0
DBF0
4880
49F0
4B10
49F0
4D10
59F0
4110
ENDCHAR
STARTCHAR U_50A9
ENCODING 20649
SWIDTH 1000 0
DWIDTH 13 0
BBX 12 12 0 -1
BITMAP
2140
2140
5DF0
4540
D740
55E0
4940
49E0
5540
6540
41F0
4100
ENDCHAR
STARTCHAR U_50AA
ENCODING 20650
SWIDTH 1000 0
DWIDTH 13 0
BBX 12 12 0 -1
BITMAP
1100
1240
27E0
2490
6FF0
A100
26C0
3930
2680
2320
20C0
2F00
ENDCHAR
STARTCHAR U_50AB
ENCODING 20651
SWIDTH 1000 0
DWIDTH 13 0
BBX 12 12 0 -1
BITMAP
2FE0
2920
2FE0
4920
4FE0
C240
4F80
4220
4FE0
4540
4920
5320
ENDCHAR
STARTCHAR U_50AC
ENCODING 20652
SWIDTH 1000 0
DWIDTH 13 0
BBX 12 12 0 -1
BITMAP
1080
1490
27F0
2280
6480
A7F0
2C80
37F0
2480
27F0
2480
27F0
ENDCHAR
STARTCHAR U_50AD
ENCODING 20653
SWIDTH 1000 0
DWIDTH 13 0
BBX 12 12 0 -1
BITMAP
1080
2FF0
2880
2BE0
68A0
AFF0
2AA0
2BF0
2A90
2BF0
2A90
34B0
ENDCHAR
STARTCHAR U_50AE
ENCODING 20654
SWIDTH 1000 0
DWIDTH 13 0
BBX 12 12 0 -1
BITMAP
1280
1FF0
2280
2FF0
6A90
AFF0
2A90
2FF0
2420
27E0
2420
27E0
ENDCHAR
STARTCHAR U_50AF
ENCODING 20655
SWIDTH 1000 0
DWIDTH 13 0
BBX 12 12 0 -1
BITMAP
1100
17E0
24A0
25E0
6560
A6A0
27E0
2420
2280
2A90
2A50
21C0
ENDCHAR
STARTCHAR U_50B0
ENCODING 20656
SWIDTH 1000 0
DWIDTH 13 0
BBX 12 12 0 -1
BITMAP
1080
1490
27F0
2000
6EF0
AA90
2EF0
2A90
2EF0
2A90
2A90
36B0
ENDCHAR
STARTCHAR U_50B1
ENCODING 20657
SWIDTH 1000 0
DWIDTH 13 0
BBX 12 12 0 -1
BITMAP
2520
2520
2920
72D0
A610
2840
3A40
2A70
2A40
2A40
2D40
28F0
ENDCHAR
STARTCHAR U_50B2
ENCODING 20658
SWIDTH 1000 0
DWIDTH 13 0
BBX 12 12 0 -1
BITMAP
2880
3E80
4880
5FF0
C920
7F20
4920
5CA0
54C0
5440
64A0
4B10
ENDCHAR
STARTCHAR U_50B3
ENCODING 20659
SWIDTH 1000 0
DWIDTH 13 0
BBX 12 12 0 -1
BITMAP
1100
1FF0
2520
27E0
6520
A7E0
2120
2FD0
2040
2FF0
2240
22C0
ENDCHAR
STARTCHAR U_50B4
ENCODING 20660
SWIDTH 1000 0
DWIDTH 13 0
BBX 12 12 0 -1
BITMAP
1FF0
2800
2BE0
6A20
ABE0
2800
2F70
2D50
2D50
2F70
2800
2FF0
ENDCHAR
STARTCHAR U_50B5
ENCODING 20661
SWIDTH 1000 0
DWIDTH 13 0
BBX 12 12 0 -1
BITMAP
1100
1FF0
2100
27E0
6100
AFF0
2420
27E0
2420
27E0
2240
2C30
ENDCHAR
STARTCHAR U_50B6
ENCODING 20662
SWIDTH 1000 0
DWIDTH 13 0
BBX 12 12 0 -1
BITMAP
10A0
2090
2FF0
6A40
AB40
2A50
2FD0
2A60
2F20
2AC0
2AB0
3610
ENDCHAR
STARTCHAR U_50B7
ENCODING 20663
SWIDTH 1000 0
DWIDTH 13 0
BBX 12 12 0 -1
BITMAP
1200
17F0
2620
2BE0
6220
AFF0
2200
23F0
2550
2A90
2510
2260
ENDCHAR
STARTCHAR U_50B8
ENCODING 20664
SWIDTH 1000 0
DWIDTH 13 0
BBX 12 12 0 -1
BITMAP
1100
1FF0
2100
3550
6920
B550
2920
3550
2280
2280
2440
3830
ENDCHAR
STARTCHAR U_50B9
ENCODING 20665
SWIDTH 1000 0
DWIDTH 13 0
BBX 12 12 0 -1
BITMAP
1100
1FE0
2440
2280
7FF0
A420
27E0
2420
27E0
2240
2250
2C70
ENDCHAR
STARTCHAR U_50BA
ENCODING 20666
SWIDTH 1000 0
DWIDTH 13 0
BBX 12 12 0 -1
BITMAP
1440
1770
2950
2F30
7220
ADD0
2800
37F0
2280
24A0
2A90
2100
ENDCHAR
STARTCHAR U_50BB
ENCODING 20667
SWIDTH 1000 0
DWIDTH 13 0
BBX 12 12 0 -1
BITMAP
1100
17F0
2550
2490
6550
A7F0
2420
2BD0
2240
2580
2140
2630
ENDCHAR
STARTCHAR U_50BC
ENCODING 20668
SWIDTH 1000 0
DWIDTH 13 0
BBX 12 12 0 -1
BITMAP
1240
1FF0
2240
23C0
6100
A7E0
2520
27E0
2100
2FF0
2240
2C30
ENDCHAR
STARTCHAR U_50BD
ENCODING 20669
SWIDTH 1000 0
DWIDTH 13 0
BBX 12 12 0 -1
BITMAP
1100
1FF0
2240
2FF0
6420
A7E0
2420
27E0
2100
2FF0
2100
2100
ENDCHAR
STARTCHAR U_50BE
ENCODING 20670
SWIDTH 1000 0
DWIDTH 13 0
BBX 12 12 0 -1
BITMAP
13F0
1040
29F0
2910
6FF0
A910
29F0
2B10
2DF0
3910
20A0
2310
ENDCHAR
STARTCHAR U_50BF
ENCODING 20671
SWIDTH 1000 0
DWIDTH 13 0
BBX 12 12 0 -1
BITMAP
17F0
1080
22E0
2280
6FF0
A400
27E0
2400
27F0
2550
2A90
32B0
ENDCHAR
STARTCHAR U_50C0
ENCODING 20672
SWIDTH 1000 0
DWIDTH 13 0
BBX 12 12 0 -1
BITMAP
2AA0
2AA0
3FF0
4AA0
53B0
C000
5FF0
5110
4FE0
4920
4920
4960
ENDCHAR
STARTCHAR U_50C1
ENCODING 20673
SWIDTH 1000 0
DWIDTH 13 0
BBX 12 12 0 -1
BITMAP
1060
1FA0
2540
2FF0
6380
A540
2930
2000
22A0
2A90
2A50
21C0
ENDCHAR
STARTCHAR U_50C2
ENCODING 20674
SWIDTH 1000 0
DWIDTH 13 0
BBX 12 12 0 -1
BITMAP
2100
2FE0
4920
DFF0
4920
4FE0
4920
4FE0
4200
5FF0
4480
4F60
ENDCHAR
STARTCHAR U_50C3
ENCODING 20675
SWIDTH 1000 0
DWIDTH 13 0
BBX 12 12 0 -1
BITMAP
2280
2FE0
5280
DFF0
6010
5FD0
5250
5FD0
5250
5FD0
5250
5270
ENDCHAR
STARTCHAR U_50C4
ENCODING 20676
SWIDTH 1000 0
DWIDTH 13 0
BBX 12 12 0 -1
BITMAP
2FE0
2280
4FE0
CAA0
4FE0
4000
47C0
4000
5FF0
4100
4540
4920
ENDCHAR
STARTCHAR U_50C5
ENCODING 20677
SWIDTH 1000 0
DWIDTH 13 0
BBX 12 12 0 -1
BITMAP
2280
3FF0
4280
CFE0
4920
4FE0
4100
4FE0
4100
47C0
4100
5FF0
ENDCHAR
STARTCHAR U_50C6
ENCODING 20678
SWIDTH 1000 0
DWIDTH 13 0
BBX 12 12 0 -1
BITMAP
2080
27F0
5080
CBE0
42A0
5BE0
4AA0
4BE0
4880
4FF0
4880
57F0
ENDCHAR
STARTCHAR U_50C7
ENCODING 20679
SWIDTH 1000 0
DWIDTH 13 0
BBX 12 12 0 -1
BITMAP
1770
1950
2530
2350
6D90
A240
2CB0
2300
20C0
2700
2060
2F80
ENDCHAR
STARTCHAR U_50C8
ENCODING 20680
SWIDTH 1000 0
DWIDTH 13 0
BBX 12 12 0 -1
BITMAP
17C0
2440
27C0
6440
AFE0
2AA0
2FE0
2000
2FE0
2440
2380
2C60
ENDCHAR
STARTCHAR U_50C9
ENCODING 20681
SWIDTH 1000 0
DWIDTH 13 0
BBX 12 12 0 -1
BITMAP
0600
0900
30C0
CF30
0000
79E0
4920
79E0
1080
1080
2940
C620
ENDCHAR
STARTCHAR U_50CA
ENCODING 20682
SWIDTH 1000 0
DWIDTH 13 0
BBX 12 12 0 -1
BITMAP
3FF0
2480
5FE0
54A0
DFE0
4100
5FF0
47C0
4CA0
7790
4420
43E0
ENDCHAR
STARTCHAR U_50CB
ENCODING 20683
SWIDTH 1000 0
DWIDTH 13 0
BBX 12 12 0 -1
BITMAP
1380
3560
6FD0
B080
27E0
2420
27E0
2420
27E0
2420
27E0
2C30
ENDCHAR
STARTCHAR U_50CC
ENCODING 20684
SWIDTH 1000 0
DWIDTH 13 0
BBX 12 12 0 -1
BITMAP
2440
3F40
44F0
5F90
D510
5FA0
55A0
5F40
4440
7FA0
44A0
4510
ENDCHAR
STARTCHAR U_50CD
ENCODING 20685
SWIDTH 1000 0
DWIDTH 13 0
BBX 12 12 0 -1
BITMAP
2340
3C40
44F0
7F50
D550
5F50
5550
5F50
4450
5F50
4490
5FA0
ENDCHAR
STARTCHAR U_50CE
ENCODING 20686
SWIDTH 1000 0
DWIDTH 13 0
BBX 12 12 0 -1
BITMAP
2000
2EE0
2AA0
4EE0
4890
CEF0
4280
4FE0
4280
5FF0
4440
5830
ENDCHAR
STARTCHAR U_50CF
ENCODING 20687
SWIDTH 1000 0
DWIDTH 13 0
BBX 12 12 0 -1
BITMAP
13C0
1480
2FF0
2490
67F0
A210
2D20
22C0
2DC0
22A0
2C90
2180
ENDCHAR
STARTCHAR U_50D0
ENCODING 20688
SWIDTH 1000 0
DWIDTH 13 0
BBX 12 12 0 -1
BITMAP
2280
3FF0
2100
4FE0
C120
5FF0
4540
5FF0
4000
4FE0
4820
4FE0
ENDCHAR
STARTCHAR U_50D1
ENCODING 20689
SWIDTH 1000 0
DWIDTH 13 0
BBX 12 12 0 -1
BITMAP
2FE0
2100
3FF0
4440
4BB0
F280
5FF0
5010
5390
5290
5390
5030
ENDCHAR
STARTCHAR U_50D2
ENCODING 20690
SWIDTH 1000 0
DWIDTH 13 0
BBX 12 12 0 -1
BITMAP
2100
3FF0
5490
4FE0
C240
5FE0
4240
4FC0
4400
4FE0
5420
67E0
ENDCHAR
STARTCHAR U_50D3
ENCODING 20691
SWIDTH 1000 0
DWIDTH 13 0
BBX 12 12 0 -1
BITMAP
1100
17C0
2540
67C0
A000
3FF0
2440
27C0
2440
27C0
2280
2C60
ENDCHAR
STARTCHAR U_50D4
ENCODING 20692
SWIDTH 1000 0
DWIDTH 13 0
BBX 12 12 0 -1
BITMAP
2440
3FF0
4280
4FE0
CAA0
4CE0
4B20
4FE0
4040
5FF0
4240
41C0
ENDCHAR
STARTCHAR U_50D5
ENCODING 20693
SWIDTH 1000 0
DWIDTH 13 0
BBX 12 12 0 -1
BITMAP
3290
2AA0
5FF0
C440
4FE0
4100
47C0
4100
5FF0
4280
4440
5830
ENDCHAR
STARTCHAR U_50D6
ENCODING 20694
SWIDTH 1000 0
DWIDTH 13 0
BBX 12 12 0 -1
BITMAP
1100
1FF0
2100
2FF0
6420
A7E0
2240
2FF0
2000
27E0
2420
27E0
ENDCHAR
STARTCHAR U_50D7
ENCODING 20695
SWIDTH 1000 0
DWIDTH 13 0
BBX 12 12 0 -1
BITMAP
2420
36B0
4C60
5AD0
C000
5FF0
5110
4FE0
4120
4120
42A0
4C40
ENDCHAR
STARTCHAR U_50D8
ENCODING 20696
SWIDTH 1000 0
DWIDTH 13 0
BBX 12 12 0 -1
BITMAP
2440
2460
3540
4EF0
5F20
D120
5D20
55A0
5540
5D60
5150
5390
ENDCHAR
STARTCHAR U_50D9
ENCODING 20697
SWIDTH 1000 0
DWIDTH 13 0
BBX 12 12 0 -1
BITMAP
1440
1FE0
2440
3FF0
6100
AFE0
2920
2FE0
2920
2FE0
2440
2830
ENDCHAR
STARTCHAR U_50DA
ENCODING 20698
SWIDTH 1000 0
DWIDTH 13 0
BBX 12 12 0 -1
BITMAP
1100
1FF0
2AA0
2AC0
67E0
AC50
27C0
2440
27C0
2920
3110
2300
ENDCHAR
STARTCHAR U_50DB
ENCODING 20699
SWIDTH 1000 0
DWIDTH 13 0
BBX 12 12 0 -1
BITMAP
5280
5280
7FF0
D310
5E40
5240
5E40
5240
7F40
48A0
52A0
6110
ENDCHAR
STARTCHAR U_50DC
ENCODING 20700
SWIDTH 1000 0
DWIDTH 13 0
BBX 12 12 0 -1
BITMAP
1640
1290
2A60
2420
6BD0
B000
27E0
2420
27E0
2420
2240
2FF0
ENDCHAR
STARTCHAR U_50DD
ENCODING 20701
SWIDTH 1000 0
DWIDTH 13 0
BBX 12 12 0 -1
BITMAP
1FF0
2810
2FF0
69C0
A840
2FF0
2880
2FF0
2A20
3FF0
2220
2660
ENDCHAR
STARTCHAR U_50DE
ENCODING 20702
SWIDTH 1000 0
DWIDTH 13 0
BBX 12 12 0 -1
BITMAP
1070
1F90
2520
6FC0
A840
2FE0
2820
2FF0
2810
2950
2D50
3030
ENDCHAR
STARTCHAR U_50DF
ENCODING 20703
SWIDTH 1000 0
DWIDTH 13 0
BBX 12 12 0 -1
BITMAP
14A0
14A0
2AD0
24A0
6AD0
AFF0
2400
2FF0
2480
24A0
2A50
31B0
ENDCHAR
STARTCHAR U_50E0
ENCODING 20704
SWIDTH 1000 0
DWIDTH 13 0
BBX 12 12 0 -1
BITMAP
1060
1FA0
2540
2FF0
6540
A920
3110
2FE0
2920
2FE0
2920
2FE0
ENDCHAR
STARTCHAR U_50E1
ENCODING 20705
SWIDTH 1000 0
DWIDTH 13 0
BBX 12 12 0 -1
BITMAP
1100
1FF0
2920
2FE0
6920
AFE0
2140
2FE0
2500
2CA0
3450
23C0
ENDCHAR
STARTCHAR U_50E2
ENCODING 20706
SWIDTH 1000 0
DWIDTH 13 0
BBX 12 12 0 -1
BITMAP
2060
2F80
4920
4540
DFF0
5450
4EE0
5240
4D40
45F0
4840
5040
ENDCHAR
STARTCHAR U_50E3
ENCODING 20707
SWIDTH 1000 0
DWIDTH 13 0
BBX 12 12 0 -1
BITMAP
1440
1EF0
2440
3EF0
6440
AAA0
3110
2FE0
2820
2FE0
2820
2FE0
ENDCHAR
STARTCHAR U_50E4
ENCODING 20708
SWIDTH 1000 0
DWIDTH 13 0
BBX 12 12 0 -1
BITMAP
1770
1550
2770
2000
67F0
A490
27F0
2490
27F0
2080
27F0
2080
ENDCHAR
STARTCHAR U_50E5
ENCODING 20709
SWIDTH 1000 0
DWIDTH 13 0
BBX 12 12 0 -1
BITMAP
1080
17F0
2080
2FF0
6440
AEF0
2440
2EF0
2000
3FF0
2290
2CF0
ENDCHAR
STARTCHAR U_50E6
ENCODING 20710
SWIDTH 1000 0
DWIDTH 13 0
BBX 12 12 0 -1
BITMAP
2880
48A0
7EA0
C1F0
5E80
5280
5E80
4CC0
5B40
6950
4950
5A70
ENDCHAR
STARTCHAR U_50E7
ENCODING 20711
SWIDTH 1000 0
DWIDTH 13 0
BBX 12 12 0 -1
BITMAP
1420
1240
2FF0
2CB0
6AD0
AFF0
2000
27E0
2420
27E0
2420
27E0
ENDCHAR
STARTCHAR U_50E8
ENCODING 20712
SWIDTH 1000 0
DWIDTH 13 0
BBX 12 12 0 -1
BITMAP
1100
1FE0
2540
3FF0
6440
A7E0
2420
27E0
2420
27E0
2240
2C30
ENDCHAR
STARTCHAR U_50E9
ENCODING 20713
SWIDTH 1000 0
DWIDTH 13 0
BBX 12 12 0 -1
BITMAP
1EF0
2A90
2EF0
6A90
AEF0
2BD0
2A50
2BD0
2A50
2BD0
2A50
2CB0
ENDCHAR
STARTCHAR U_50EA
ENCODING 20714
SWIDTH 1000 0
DWIDTH 13 0
BBX 12 12 0 -1
BITMAP
17E0
1140
2FF0
2190
6680
AFF0
2A50
2A30
2FD0
2A50
2BD0
2830
ENDCHAR
STARTCHAR U_50EB
ENCODING 20715
SWIDTH 1000 0
DWIDTH 13 0
BBX 12 12 0 -1
BITMAP
2000
3FF0
2280
4EE0
4820
CEE0
4280
5FF0
4520
4D50
5450
43C0
ENDCHAR
STARTCHAR U_50EC
ENCODING 20716
SWIDTH 1000 0
DWIDTH 13 0
BBX 12 12 0 -1
BITMAP
1500
1480
27F0
2C80
67F0
A480
27F0
2480
27F0
2000
2550
2950
ENDCHAR
STARTCHAR U_50ED
ENCODING 20717
SWIDTH 1000 0
DWIDTH 13 0
BBX 12 12 0 -1
BITMAP
5DF0
4440
5540
DFF0
4C40
56D0
6570
4FC0
4840
4FC0
4840
4FC0
ENDCHAR
STARTCHAR U_50EE
ENCODING 20718
SWIDTH 1000 0
DWIDTH 13 0
BBX 12 12 0 -1
BITMAP
1100
17F0
2240
2FF0
6520
A7E0
2520
27E0
2100
27E0
2100
2FF0
ENDCHAR
STARTCHAR U_50EF
ENCODING 20719
SWIDTH 1000 0
DWIDTH 13 0
BBX 12 12 0 -1
BITMAP
1520
1340
2FF0
2540
6920
B440
27F0
2B40
2540
2BF0
3040
2040
ENDCHAR
STARTCHAR U_50F0
ENCODING 20720
SWIDTH 1000 0
DWIDTH 13 0
BBX 12 12 0 -1
BITMAP
1040
7DF0
1040
7DF0
5550
1040
38E0
5550
0200
0500
0880
7070
ENDCHAR
STARTCHAR U_50F1
ENCODING 20721
SWIDTH 1000 0
DWIDTH 13 0
BBX 12 12 0 -1
BITMAP
1080
1FF0
2810
2FF0
6940
ABF0
2A40
2FF0
2A40
2BF0
3240
33F0
ENDCHAR
STARTCHAR U_50F2
ENCODING 20722
SWIDTH 1000 0
DWIDTH 13 0
BBX 12 12 0 -1
BITMAP
2000
3FF0
2280
4FE0
4AA0
CFE0
4820
4EF0
52A0
4AF0
4420
5820
ENDCHAR
STARTCHAR U_50F3
ENCODING 20723
SWIDTH 1000 0
DWIDTH 13 0
BBX 12 12 0 -1
BITMAP
1FF0
1280
2FF0
2A90
6FF0
A520
2340
3FF0
2380
2540
2930
2100
ENDCHAR
STARTCHAR U_50F4
ENCODING 20724
SWIDTH 1000 0
DWIDTH 13 0
BBX 12 12 0 -1
BITMAP
2EF0
2A90
2EF0
4A90
4EF0
C810
4BD0
4A50
4BD0
4A50
4BD0
4830
ENDCHAR
STARTCHAR U_50F5
ENCODING 20725
SWIDTH 1000 0
DWIDTH 13 0
BBX 12 12 0 -1
BITMAP
2FF0
2000
27C0
2540
67C0
A540
3FF0
2540
2540
27C0
2540
3FF0
ENDCHAR
STARTCHAR U_50F6
ENCODING 20726
SWIDTH 1000 0
DWIDTH 13 0
BBX 12 12 0 -1
BITMAP
1FF0
1A90
2EF0
2280
6EF0
AA90
2EF0
2A90
2EF0
2A80
2290
21F0
ENDCHAR
STARTCHAR U_50F7
ENCODING 20727
SWIDTH 1000 0
DWIDTH 13 0
BBX 12 12 0 -1
BITMAP
2440
2FF0
2440
4A20
5FF0
4A20
CFE0
4100
5FF0
4540
4920
5110
ENDCHAR
STARTCHAR U_50F8
ENCODING 20728
SWIDTH 1000 0
DWIDTH 13 0
BBX 12 12 0 -1
BITMAP
1440
1EF0
2440
2EE0
7550
A440
27E0
2000
2FF0
24A0
2890
2180
ENDCHAR
STARTCHAR U_50F9
ENCODING 20729
SWIDTH 1000 0
DWIDTH 13 0
BBX 12 12 0 -1
BITMAP
1FF0
1240
2FF0
2A50
6FF0
A420
27E0
2420
27E0
2420
27E0
2810
ENDCHAR
STARTCHAR U_50FA
ENCODING 20730
SWIDTH 1000 0
DWIDTH 13 0
BBX 12 12 0 -1
BITMAP
13C0
1240
23C0
6000
AEF0
2A90
2EF0
2100
2FF0
2340
2520
2910
ENDCHAR
STARTCHAR U_50FB
ENCODING 20731
SWIDTH 1000 0
DWIDTH 13 0
BBX 12 12 0 -1
BITMAP
2080
3E40
53F0
52A0
DE40
51F0
5E40
5A40
6BF0
4A40
4E40
4040
ENDCHAR
STARTCHAR U_50FC
ENCODING 20732
SWIDTH 1000 0
DWIDTH 13 0
BBX 12 12 0 -1
BITMAP
2280
2FE0
4AA0
CFE0
4AA0
5FF0
4000
4FE0
4820
4FE0
4440
5FF0
ENDCHAR
STARTCHAR U_50FD
ENCODING 20733
SWIDTH 1000 0
DWIDTH 13 0
BBX 12 12 0 -1
BITMAP
3E40
2840
5ED0
4960
DC40
6AA0
4910
4240
4520
5520
6440
43C0
ENDCHAR
STARTCHAR U_50FE
ENCODING 20734
SWIDTH 1000 0
DWIDTH 13 0
BBX 12 12 0 -1
BITMAP
10E0
1F10
24A0
2FF0
6A90
A660
2BD0
2200
27E0
2A40
2180
2E70
ENDCHAR
STARTCHAR U_50FF
ENCODING 20735
SWIDTH 1000 0
DWIDTH 13 0
BBX 12 12 0 -1
BITMAP
1100
1FF0
2A90
2FE0
6280
A7E0
2280
3FF0
2920
37D0
2100
2FF0
ENDCHAR
STARTCHAR U_5100
ENCODING 20736
SWIDTH 1000 0
DWIDTH 13 0
BBX 12 12 0 -1
BITMAP
1220
17F0
2080
67F0
A080
2FF0
22A0
2FF0
2280
2EA0
2250
24B0
ENDCHAR
STARTCHAR U_5101
ENCODING 20737
SWIDTH 1000 0
DWIDTH 13 0
BBX 12 12 0 -1
BITMAP
2480
37E0
2480
4FE0
5480
67F0
A400
2EF0
2A90
2B90
2850
2820
ENDCHAR
STARTCHAR U_5102
ENCODING 20738
SWIDTH 1000 0
DWIDTH 13 0
BBX 12 12 0 -1
BITMAP
1140
17F0
2550
27F0
6550
AFF0
2800
2FF0
2A40
2A50
2B20
3210
ENDCHAR
STARTCHAR U_5103
ENCODING 20739
SWIDTH 1000 0
DWIDTH 13 0
BBX 12 12 0 -1
BITMAP
1100
1FF0
2A50
2BD0
6810
AFF0
2810
27E0
2420
27E0
2420
2FF0
ENDCHAR
STARTCHAR U_5104
ENCODING 20740
SWIDTH 1000 0
DWIDTH 13 0
BBX 12 12 0 -1
BITMAP
1100
1FF0
2240
3FF0
6420
A7E0
2420
27E0
2100
2AA0
3250
21C0
ENDCHAR
STARTCHAR U_5105
ENCODING 20741
SWIDTH 1000 0
DWIDTH 13 0
BBX 12 12 0 -1
BITMAP
1920
1540
2FF0
2810
67C0
A440
27C0
2FE0
2920
2FE0
2920
2FE0
ENDCHAR
STARTCHAR U_5106
ENCODING 20742
SWIDTH 1000 0
DWIDTH 13 0
BBX 12 12 0 -1
BITMAP
2A40
2A40
5F70
4AA0
DFA0
6120
5D20
55A0
5D40
4140
4AA0
4510
ENDCHAR
STARTCHAR U_5107
ENCODING 20743
SWIDTH 1000 0
DWIDTH 13 0
BBX 12 12 0 -1
BITMAP
17F0
1550
27F0
2000
6FF0
A000
27E0
2420
27E0
2290
2660
2330
ENDCHAR
STARTCHAR U_5108
ENCODING 20744
SWIDTH 1000 0
DWIDTH 13 0
BBX 12 12 0 -1
BITMAP
1100
1280
27C0
3830
6FE0
AD60
2BA0
2FE0
2440
27C0
2440
27C0
ENDCHAR
STARTCHAR U_5109
ENCODING 20745
SWIDTH 1000 0
DWIDTH 13 0
BBX 12 12 0 -1
BITMAP
1100
1280
2440
2BB0
7000
AEE0
2AA0
2EE0
2440
2440
2AA0
3110
ENDCHAR
STARTCHAR U_510A
ENCODING 20746
SWIDTH 1000 0
DWIDTH 13 0
BBX 12 12 0 -1
BITMAP
1440
1FF0
2440
2EE0
7550
A440
2FF0
2490
2480
24E0
2A80
31F0
ENDCHAR
STARTCHAR U_510B
ENCODING 20747
SWIDTH 1000 0
DWIDTH 13 0
BBX 12 12 0 -1
BITMAP
13C0
1440
27F0
2D20
6690
A7F0
2400
27E0
2400
2BE0
2A20
33E0
ENDCHAR
STARTCHAR U_510C
ENCODING 20748
SWIDTH 1000 0
DWIDTH 13 0
BBX 12 12 0 -1
BITMAP
1440
1F40
2970
2F90
6950
AF50
2450
3FA0
2820
2F20
2950
3690
ENDCHAR
STARTCHAR U_510D
ENCODING 20749
SWIDTH 1000 0
DWIDTH 13 0
BBX 12 12 0 -1
BITMAP
2540
2AA0
2D60
4AA0
CFE0
4440
4A20
77D0
4A80
4100
4280
5C70
ENDCHAR
STARTCHAR U_510E
ENCODING 20750
SWIDTH 1000 0
DWIDTH 13 0
BBX 12 12 0 -1
BITMAP
2480
2EC0
24A0
5FF0
C080
5F50
5550
5F60
5540
7FD0
4530
4410
ENDCHAR
STARTCHAR U_510F
ENCODING 20751
SWIDTH 1000 0
DWIDTH 13 0
BBX 12 12 0 -1
BITMAP
2400
2770
2450
4F20
DA50
4510
5920
4540
5FF0
4380
4540
5930
ENDCHAR
STARTCHAR U_5110
ENCODING 20752
SWIDTH 1000 0
DWIDTH 13 0
BBX 12 12 0 -1
BITMAP
2100
2FF0
2810
27E0
6540
A980
3FE0
2420
27E0
2420
27E0
2810
ENDCHAR
STARTCHAR U_5111
ENCODING 20753
SWIDTH 1000 0
DWIDTH 13 0
BBX 12 12 0 -1
BITMAP
17F0
1410
27F0
2410
67F0
A220
2550
2220
2550
2770
2220
2550
ENDCHAR
STARTCHAR U_5112
ENCODING 20754
SWIDTH 1000 0
DWIDTH 13 0
BBX 12 12 0 -1
BITMAP
17F0
1100
2FF0
2D50
6380
A540
2FF0
2100
2FF0
2A90
2A90
2AB0
ENDCHAR
STARTCHAR U_5113
ENCODING 20755
SWIDTH 1000 0
DWIDTH 13 0
BBX 12 12 0 -1
BITMAP
1080
17F0
2080
27E0
6420
BFF0
3210
2FE0
2540
2FE0
2100
3FF0
ENDCHAR
STARTCHAR U_5114
ENCODING 20756
SWIDTH 1000 0
DWIDTH 13 0
BBX 12 12 0 -1
BITMAP
1100
1FF0
2100
2FF0
6110
AFE0
2000
2FF0
2020
2FF0
2AA0
2E60
ENDCHAR
STARTCHAR U_5115
ENCODING 20757
SWIDTH 1000 0
DWIDTH 13 0
BBX 12 12 0 -1
BITMAP
1100
1FF0
2AA0
2540
6D60
B550
2420
27E0
2420
27E0
2820
3020
ENDCHAR
STARTCHAR U_5116
ENCODING 20758
SWIDTH 1000 0
DWIDTH 13 0
BBX 12 12 0 -1
BITMAP
2F40
2A40
2F70
4940
CF60
4A90
4F10
4000
4FE0
4AA0
4AA0
5FF0
ENDCHAR
STARTCHAR U_5117
ENCODING 20759
SWIDTH 1000 0
DWIDTH 13 0
BBX 12 12 0 -1
BITMAP
2AF0
2C20
4940
4F20
C8F0
5E50
6440
5F70
4540
4B40
51C0
6270
ENDCHAR
STARTCHAR U_5118
ENCODING 20760
SWIDTH 1000 0
DWIDTH 13 0
BBX 12 12 0 -1
BITMAP
17E0
1120
2FF0
2120
67E0
A100
2FE0
3250
2FE0
2AA0
2AA0
3FF0
ENDCHAR
STARTCHAR U_5119
ENCODING 20761
SWIDTH 1000 0
DWIDTH 13 0
BBX 12 12 0 -1
BITMAP
2080
33E0
2AA0
4FF0
C000
5BC0
4A40
4BE0
4A20
4BE0
5400
53F0
ENDCHAR
STARTCHAR U_511A
ENCODING 20762
SWIDTH 1000 0
DWIDTH 13 0
BBX 12 12 0 -1
BITMAP
1240
1FF0
2240
2FE0
6AA0
BFF0
3110
23C0
2440
2A80
2100
2E00
ENDCHAR
STARTCHAR U_511B
ENCODING 20763
SWIDTH 1000 0
DWIDTH 13 0
BBX 12 12 0 -1
BITMAP
2800
2FE0
3540
5FE0
C540
7FF0
4440
4FE0
5340
4DF0
4440
5840
ENDCHAR
STARTCHAR U_511C
ENCODING 20764
SWIDTH 1000 0
DWIDTH 13 0
BBX 12 12 0 -1
BITMAP
1100
1FF0
2A90
22A0
6FE0
AAA0
3FF0
2000
2FF0
2080
2280
2100
ENDCHAR
STARTCHAR U_511D
ENCODING 20765
SWIDTH 1000 0
DWIDTH 13 0
BBX 12 12 0 -1
BITMAP
2440
3560
2EC0
4440
CAA0
5FF0
5110
4100
5FF0
4540
4920
5110
ENDCHAR
STARTCHAR U_511E
ENCODING 20766
SWIDTH 1000 0
DWIDTH 13 0
BBX 12 12 0 -1
BITMAP
2020
3FF0
2540
5FF0
D110
5BB0
5550
5BB0
5110
5BB0
5550
5BB0
ENDCHAR
STARTCHAR U_511F
ENCODING 20767
SWIDTH 1000 0
DWIDTH 13 0
BBX 12 12 0 -1
BITMAP
2920
2540
2FF0
2A50
67E0
A420
27E0
2420
27E0
2420
27E0
2810
ENDCHAR
STARTCHAR U_5120
ENCODING 20768
SWIDTH 1000 0
DWIDTH 13 0
BBX 12 12 0 -1
BITMAP
12A0
1540
22A0
2FF0
6A90
A910
2FF0
2B60
2DA0
2B60
2920
2D90
ENDCHAR
STARTCHAR U_5121
ENCODING 20769
SWIDTH 1000 0
DWIDTH 13 0
BBX 12 12 0 -1
BITMAP
2FE0
2920
4FE0
4920
CFE0
4000
5FF0
5550
5FF0
5550
5FF0
5110
ENDCHAR
STARTCHAR U_5122
ENCODING 20770
SWIDTH 1000 0
DWIDTH 13 0
BBX 12 12 0 -1
BITMAP
11E0
1100
2FF0
29C0
6F10
ABF0
2AA0
2BE0
2AA0
2BE0
3550
29E0
ENDCHAR
STARTCHAR U_5123
ENCODING 20771
SWIDTH 1000 0
DWIDTH 13 0
BBX 12 12 0 -1
BITMAP
2080
2FF0
2940
4FE0
C940
4FF0
4AA0
4BE0
4AA0
53E0
5140
6630
ENDCHAR
STARTCHAR U_5124
ENCODING 20772
SWIDTH 1000 0
DWIDTH 13 0
BBX 12 12 0 -1
BITMAP
17E0
1420
27E0
2420
6FF0
A240
2FF0
2520
3950
2580
2340
2D30
ENDCHAR
STARTCHAR U_5125
ENCODING 20773
SWIDTH 1000 0
DWIDTH 13 0
BBX 12 12 0 -1
BITMAP
1100
1FF0
2100
2FF0
6A90
AFF0
2420
27E0
2420
27E0
2240
2C30
ENDCHAR
STARTCHAR U_5126
ENCODING 20774
SWIDTH 1000 0
DWIDTH 13 0
BBX 12 12 0 -1
BITMAP
2100
3FF0
5240
5FF0
D250
5FF0
5440
5770
5440
5770
5220
5550
ENDCHAR
STARTCHAR U_5127
ENCODING 20775
SWIDTH 1000 0
DWIDTH 13 0
BBX 12 12 0 -1
BITMAP
1440
1EF0
2440
2EF0
6440
AAB0
27E0
2420
27E0
2420
27E0
2C30
ENDCHAR
STARTCHAR U_5128
ENCODING 20776
SWIDTH 1000 0
DWIDTH 13 0
BBX 12 12 0 -1
BITMAP
2EF0
2880
2FF0
2AA0
7320
AFE0
2820
2FE0
2820
2FE0
2440
3830
ENDCHAR
STARTCHAR U_5129
ENCODING 20777
SWIDTH 1000 0
DWIDTH 13 0
BBX 12 12 0 -1
BITMAP
10F0
1E90
2AF0
2E90
6AF0
AA80
2EF0
2B10
2EB0
2B50
3290
2120
ENDCHAR
STARTCHAR U_512A
ENCODING 20778
SWIDTH 1000 0
DWIDTH 13 0
BBX 12 12 0 -1
BITMAP
17E0
1100
27C0
2540
6FF0
B490
2BA0
2400
2BE0
2240
2180
2660
ENDCHAR
STARTCHAR U_512B
ENCODING 20779
SWIDTH 1000 0
DWIDTH 13 0
BBX 12 12 0 -1
BITMAP
2100
2FE0
4440
DFF0
5010
47C0
4100
4760
5880
43C0
4CA0
4310
ENDCHAR
STARTCHAR U_512C
ENCODING 20780
SWIDTH 1000 0
DWIDTH 13 0
BBX 12 12 0 -1
BITMAP
29F0
3D10
49F0
DD10
49F0
7F10
55F0
5CA0
54A0
5CA0
5520
5530
ENDCHAR
STARTCHAR U_512D
ENCODING 20781
SWIDTH 1000 0
DWIDTH 13 0
BBX 12 12 0 -1
BITMAP
29E0
3F20
55E0
FF20
49E0
5D20
49E0
5CC0
6AC0
4940
4950
5270
ENDCHAR
STARTCHAR U_512E
ENCODING 20782
SWIDTH 1000 0
DWIDTH 13 0
BBX 12 12 0 -1
BITMAP
2FF0
2800
5770
D220
5FF0
5760
5AB0
5080
52E0
5280
5280
6FF0
ENDCHAR
STARTCHAR U_512F
ENCODING 20783
SWIDTH 1000 0
DWIDTH 13 0
BBX 12 12 0 -1
BITMAP
12A0
17F0
2080
2FF0
62A0
AFF0
3480
27E0
2480
27F0
2550
2AB0
ENDCHAR
STARTCHAR U_5130
ENCODING 20784
SWIDTH 1000 0
DWIDTH 13 0
BBX 12 12 0 -1
BITMAP
1240
1FF0
2240
27E0
6540
A7C0
2440
27E0
2420
27F0
2550
2AB0
ENDCHAR
STARTCHAR U_5131
ENCODING 20785
SWIDTH 1000 0
DWIDTH 13 0
BBX 12 12 0 -1
BITMAP
1480
1FE0
2A80
3FE0
6020
AEE0
2A80
2EE0
2A80
2EE0
2A90
2A70
ENDCHAR
STARTCHAR U_5132
ENCODING 20786
SWIDTH 1000 0
DWIDTH 13 0
BBX 12 12 0 -1
BITMAP
2840
2450
3EF0
4050
DEF0
4040
5E80
41F0
5E90
52F0
5E90
52F0
ENDCHAR
STARTCHAR U_5133
ENCODING 20787
SWIDTH 1000 0
DWIDTH 13 0
BBX 12 12 0 -1
BITMAP
13C0
1480
27E0
2420
67E0
AA90
2CF0
27E0
2520
27E0
2290
2CF0
ENDCHAR
STARTCHAR U_5134
ENCODING 20788
SWIDTH 1000 0
DWIDTH 13 0
BBX 12 12 0 -1
BITMAP
2100
3FF0
2AA0
4EE0
DFE0
4480
5FE0
4480
7FF0
5940
6A80
4C70
ENDCHAR
STARTCHAR U_5135
ENCODING 20789
SWIDTH 1000 0
DWIDTH 13 0
BBX 12 12 0 -1
BITMAP
2400
27E0
4A40
5180
D240
5FF0
5540
57C0
5100
5FF0
4AA0
5290
ENDCHAR
STARTCHAR U_5136
ENCODING 20790
SWIDTH 1000 0
DWIDTH 13 0
BBX 12 12 0 -1
BITMAP
1490
17F0
2280
27F0
6C80
B7F0
2480
2FF0
2A50
2FF0
2A50
2BD0
ENDCHAR
STARTCHAR U_5137
ENCODING 20791
SWIDTH 1000 0
DWIDTH 13 0
BBX 12 12 0 -1
BITMAP
1770
1000
2F70
2950
6080
AFF0
2A40
2FF0
2A50
2FF0
2AD0
3370
ENDCHAR
STARTCHAR U_5138
ENCODING 20792
SWIDTH 1000 0
DWIDTH 13 0
BBX 12 12 0 -1
BITMAP
2FF0
2A90
4FE0
C480
4940
55F0
5F40
49F0
5540
5DF0
5B40
6AF0
ENDCHAR
STARTCHAR U_5139
ENCODING 20793
SWIDTH 1000 0
DWIDTH 13 0
BBX 12 12 0 -1
BITMAP
2440
2EF0
5540
DFF0
4AA0
57E0
4420
47E0
4420
47E0
4240
4C30
ENDCHAR
STARTCHAR U_513A
ENCODING 20794
SWIDTH 1000 0
DWIDTH 13 0
BBX 12 12 0 -1
BITMAP
2AA0
3FA0
2AF0
4EA0
C5A0
5FF0
55A0
5FA0
44F0
5FA0
4AA0
51F0
ENDCHAR
STARTCHAR U_513B
ENCODING 20795
SWIDTH 1000 0
DWIDTH 13 0
BBX 12 12 0 -1
BITMAP
2920
3FF0
5010
C7C0
4440
4FE0
4920
4FE0
4100
5FF0
4AA0
5290
ENDCHAR
STARTCHAR U_513C
ENCODING 20796
SWIDTH 1000 0
DWIDTH 13 0
BBX 12 12 0 -1
BITMAP
2EE0
2AA0
5FF0
D680
52F0
5F90
5550
5720
5520
5750
5950
6190
ENDCHAR
STARTCHAR U_513D
ENCODING 20797
SWIDTH 1000 0
DWIDTH 13 0
BBX 12 12 0 -1
BITMAP
27C0
2540
47C0
C540
5FF0
5110
5FF0
4540
4FE0
4540
4540
4B20
ENDCHAR
STARTCHAR U_513E
ENCODING 20798
SWIDTH 1000 0
DWIDTH 13 0
BBX 12 12 0 -1
BITMAP
1100
1FF0
2540
6FE0
AAB0
2FE0
2280
2FF0
2280
26B0
3A40
2330
ENDCHAR
STARTCHAR U_513F
ENCODING 20799
SWIDTH 1000 0
DWIDTH 13 0
BBX 12 12 0 -1
BITMAP
1100
1100
1100
1100
1100
1100
1100
1100
2100
2110
4110
80F0
ENDCHAR
STARTCHAR U_5140
ENCODING 20800
SWIDTH 1000 0
DWIDTH 13 0
BBX 12 12 0 -1
BITMAP
0040
FFE0
1200
1200
1200
1200
1200
1200
2200
2220
4220
81E0
ENDCHAR
STARTCHAR U_5141
ENCODING 20801
SWIDTH 1000 0
DWIDTH 13 0
BBX 12 12 0 -1
BITMAP
0400
0800
1100
2080
7FC0
1240
1200
1200
1200
2220
2220
C1E0
ENDCHAR
STARTCHAR U_5142
ENCODING 20802
SWIDTH 1000 0
DWIDTH 13 0
BBX 12 12 0 -1
BITMAP
0400
0400
FFE0
2400
2400
7FE0
0A00
0A00
1200
1220
2220
C3E0
ENDCHAR
STARTCHAR U_5143
ENCODING 20803
SWIDTH 1000 0
DWIDTH 13 0
BBX 12 12 0 -1
BITMAP
0000
3F80
0000
0000
FFE0
1200
1200
1200
2200
2220
4220
81E0
ENDCHAR
STARTCHAR U_5144
ENCODING 20804
SWIDTH 1000 0
DWIDTH 13 0
BBX 12 12 0 -1
BITMAP
7F80
4080
4080
4080
7F80
5280
1200
1200
2200
2220
4220
81E0
ENDCHAR
STARTCHAR U_5145
ENCODING 20805
SWIDTH 1000 0
DWIDTH 13 0
BBX 12 12 0 -1
BITMAP
0400
0200
FFF0
0800
1080
3FC0
0940
0900
0900
1110
2110
C0F0
ENDCHAR
STARTCHAR U_5146
ENCODING 20806
SWIDTH 1000 0
DWIDTH 13 0
BBX 12 12 0 -1
BITMAP
0900
0900
4920
2940
2980
0900
19C0
6920
9100
1110
2110
C0F0
ENDCHAR
STARTCHAR U_5147
ENCODING 20807
SWIDTH 1000 0
DWIDTH 13 0
BBX 12 12 0 -1
BITMAP
0900
4520
4220
4520
58A0
4020
7FE0
0900
0900
1110
2110
C1F0
ENDCHAR
STARTCHAR U_5148
ENCODING 20808
SWIDTH 1000 0
DWIDTH 13 0
BBX 12 12 0 -1
BITMAP
1200
1200
3FC0
4200
0200
7FF0
0900
0900
1100
1110
2110
C0F0
ENDCHAR
STARTCHAR U_5149
ENCODING 20809
SWIDTH 1000 0
DWIDTH 13 0
BBX 12 12 0 -1
BITMAP
0400
4440
2480
0500
0400
FFE0
1200
1200
1200
2220
4220
81E0
ENDCHAR
STARTCHAR U_514A
ENCODING 20810
SWIDTH 1000 0
DWIDTH 13 0
BBX 12 12 0 -1
BITMAP
0900
1480
2440
4830
9090
3FC0
0040
0900
0900
1110
2110
C1F0
ENDCHAR
STARTCHAR U_514B
ENCODING 20811
SWIDTH 1000 0
DWIDTH 13 0
BBX 12 12 0 -1
BITMAP
0400
FFE0
0400
3F80
2080
2080
3F80
2A80
0A00
1220
2220
C1E0
ENDCHAR
STARTCHAR U_514C
ENCODING 20812
SWIDTH 1000 0
DWIDTH 13 0
BBX 12 12 0 -1
BITMAP
0A00
1100
2080
4040
BFB0
2080
2080
3F80
0A00
1210
2210
C1F0
ENDCHAR
STARTCHAR U_514D
ENCODING 20813
SWIDTH 1000 0
DWIDTH 13 0
BBX 12 12 0 -1
BITMAP
0800
1F00
2100
4200
BFC0
2440
2440
3FC0
2A40
0A10
1210
61F0
ENDCHAR
STARTCHAR U_514E
ENCODING 20814
SWIDTH 1000 0
DWIDTH 13 0
BBX 12 12 0 -1
BITMAP
00C0
3F00
0400
7FC0
4440
4440
7FC0
0600
0A80
1250
2210
C1F0
ENDCHAR
STARTCHAR U_514F
ENCODING 20815
SWIDTH 1000 0
DWIDTH 13 0
BBX 12 12 0 -1
BITMAP
7FF0
4200
4200
43C0
4200
7FF0
4500
4500
4500
4910
9110
A0F0
ENDCHAR
STARTCHAR U_5150
ENCODING 20816
SWIDTH 1000 0
DWIDTH 13 0
BBX 12 12 0 -1
BITMAP
27E0
2420
2420
27E0
2420
27E0
2000
0900
0900
1110
2110
C0F0
ENDCHAR
STARTCHAR U_5151
ENCODING 20817
SWIDTH 1000 0
DWIDTH 13 0
BBX 12 12 0 -1
BITMAP
4100
2200
1400
7F00
4100
4100
7F00
5500
1400
2440
2440
C3C0
ENDCHAR
STARTCHAR U_5152
ENCODING 20818
SWIDTH 1000 0
DWIDTH 13 0
BBX 12 12 0 -1
BITMAP
0C00
71E0
4020
79E0
4020
4020
7FE0
0900
0910
1110
2110
C0F0
ENDCHAR
STARTCHAR U_5153
ENCODING 20819
SWIDTH 1000 0
DWIDTH 13 0
BBX 12 12 0 -1
BITMAP
FBF0
1080
5280
5280
9480
FFF0
5080
5180
5980
5290
8490
8870
ENDCHAR
STARTCHAR U_5154
ENCODING 20820
SWIDTH 1000 0
DWIDTH 13 0
BBX 12 12 0 -1
BITMAP
1000
3F00
2200
7FC0
C440
4440
7FC0
0A00
0A80
12A0
2220
C1E0
ENDCHAR
STARTCHAR U_5155
ENCODING 20821
SWIDTH 1000 0
DWIDTH 13 0
BBX 12 12 0 -1
BITMAP
7BC0
4A40
4A40
4E40
4040
4040
7FC0
0A00
1200
1220
2220
C1E0
ENDCHAR
STARTCHAR U_5156
ENCODING 20822
SWIDTH 1000 0
DWIDTH 13 0
BBX 12 12 0 -1
BITMAP
0400
FFE0
0000
2480
4840
9100
3F80
1280
1200
1220
2220
C1E0
ENDCHAR
STARTCHAR U_5157
ENCODING 20823
SWIDTH 1000 0
DWIDTH 13 0
BBX 12 12 0 -1
BITMAP
0200
FFF0
0880
1040
3FA0
D090
1080
1F80
0900
1110
2110
C0F0
ENDCHAR
STARTCHAR U_5158
ENCODING 20824
SWIDTH 1000 0
DWIDTH 13 0
BBX 12 12 0 -1
BITMAP
0080
F880
0100
0120
FBE0
5000
53E0
5220
5220
53E0
9010
8FF0
ENDCHAR
STARTCHAR U_5159
ENCODING 20825
SWIDTH 1000 0
DWIDTH 13 0
BBX 12 12 0 -1
BITMAP
1080
1080
FC80
1080
7FF0
4480
4480
7C80
2880
2890
4810
87F0
ENDCHAR
STARTCHAR U_515A
ENCODING 20826
SWIDTH 1000 0
DWIDTH 13 0
BBX 12 12 0 -1
BITMAP
2480
1500
FFE0
8020
BFA0
2080
2080
3F80
0A00
1220
2220
C1E0
ENDCHAR
STARTCHAR U_515B
ENCODING 20827
SWIDTH 1000 0
DWIDTH 13 0
BBX 12 12 0 -1
BITMAP
1060
1380
F880
1080
7C80
47F0
4480
7C80
2880
2890
4810
87F0
ENDCHAR
STARTCHAR U_515C
ENCODING 20828
SWIDTH 1000 0
DWIDTH 13 0
BBX 12 12 0 -1
BITMAP
2400
DEC0
9240
9E40
9240
FFC0
9240
1200
1200
1220
2220
C1E0
ENDCHAR
STARTCHAR U_515D
ENCODING 20829
SWIDTH 1000 0
DWIDTH 13 0
BBX 12 12 0 -1
BITMAP
1040
7D40
1120
7E10
45E0
44A0
7CA0
2920
2920
2A50
4810
87F0
ENDCHAR
STARTCHAR U_515E
ENCODING 20830
SWIDTH 1000 0
DWIDTH 13 0
BBX 12 12 0 -1
BITMAP
20C0
2700
F900
21E0
FF00
8900
89E0
FF00
5120
50E0
5010
8FF0
ENDCHAR
STARTCHAR U_515F
ENCODING 20831
SWIDTH 1000 0
DWIDTH 13 0
BBX 12 12 0 -1
BITMAP
2080
A280
FBE0
A280
2480
FBF0
5140
5140
5540
5950
5250
8430
ENDCHAR
STARTCHAR U_5160
ENCODING 20832
SWIDTH 1000 0
DWIDTH 13 0
BBX 12 12 0 -1
BITMAP
2240
2440
EF50
2960
2F40
6940
AF30
0000
0900
0910
3110
C0F0
ENDCHAR
STARTCHAR U_5161
ENCODING 20833
SWIDTH 1000 0
DWIDTH 13 0
BBX 12 12 0 -1
BITMAP
2000
FBE0
2080
FBE0
8A20
8A20
FBE0
5220
5220
53F0
9010
8FF0
ENDCHAR
STARTCHAR U_5162
ENCODING 20834
SWIDTH 1000 0
DWIDTH 13 0
BBX 12 12 0 -1
BITMAP
2080
FBF0
2080
FBE0
8A20
8A20
FBE0
5080
5580
5A90
A290
8C70
ENDCHAR
STARTCHAR U_5163
ENCODING 20835
SWIDTH 1000 0
DWIDTH 13 0
BBX 12 12 0 -1
BITMAP
27F0
FC00
27E0
24A0
F7E0
94A0
97E0
F480
2BE0
6890
A090
9FF0
ENDCHAR
STARTCHAR U_5164
ENCODING 20836
SWIDTH 1000 0
DWIDTH 13 0
BBX 12 12 0 -1
BITMAP
2080
A7F0
AD40
77E0
2540
FFF0
5550
55F0
5550
55F0
5A20
8FF0
ENDCHAR
STARTCHAR U_5165
ENCODING 20837
SWIDTH 1000 0
DWIDTH 13 0
BBX 12 12 0 -1
BITMAP
1800
0400
0400
0400
0A00
0A00
0A00
1100
1100
2080
4040
8030
ENDCHAR
STARTCHAR U_5166
ENCODING 20838
SWIDTH 1000 0
DWIDTH 13 0
BBX 12 12 0 -1
BITMAP
0800
8400
8200
8200
8500
8500
8880
8880
9040
A030
8000
FFF0
ENDCHAR
STARTCHAR U_5167
ENCODING 20839
SWIDTH 1000 0
DWIDTH 13 0
BBX 12 12 0 -1
BITMAP
0400
0400
0400
7FE0
4420
4420
4A20
49A0
50A0
6020
4020
4060
ENDCHAR
STARTCHAR U_5168
ENCODING 20840
SWIDTH 1000 0
DWIDTH 13 0
BBX 12 12 0 -1
BITMAP
0400
0A00
1100
2080
4040
BFB0
0400
0400
3F80
0400
0400
FFE0
ENDCHAR
STARTCHAR U_5169
ENCODING 20841
SWIDTH 1000 0
DWIDTH 13 0
BBX 12 12 0 -1
BITMAP
0000
FFF0
0400
0400
7FE0
4420
5520
5520
6EA0
4420
4420
4440
ENDCHAR
STARTCHAR U_516A
ENCODING 20842
SWIDTH 1000 0
DWIDTH 13 0
BBX 12 12 0 -1
BITMAP
0600
0900
1080
2F40
C030
7CA0
44A0
7D40
4540
7D40
44A0
44A0
ENDCHAR
STARTCHAR U_516B
ENCODING 20843
SWIDTH 1000 0
DWIDTH 13 0
BBX 12 12 0 -1
BITMAP
0200
1200
1200
1200
1200
1100
2100
2080
4080
4040
8020
0000
ENDCHAR
STARTCHAR U_516C
ENCODING 20844
SWIDTH 1000 0
DWIDTH 13 0
BBX 12 12 0 -1
BITMAP
0100
1100
1080
2080
2440
4420
8410
0800
0900
1080
3FC0
1040
ENDCHAR
STARTCHAR U_516D
ENCODING 20845
SWIDTH 1000 0
DWIDTH 13 0
BBX 12 12 0 -1
BITMAP
0800
0400
0400
FFE0
0000
1100
1080
2040
2040
4020
8020
0000
ENDCHAR
STARTCHAR U_516E
ENCODING 20846
SWIDTH 1000 0
DWIDTH 13 0
BBX 12 12 0 -1
BITMAP
0900
0900
1080
2040
5F20
8410
0800
1F80
0080
0080
0500
0200
ENDCHAR
STARTCHAR U_516F
ENCODING 20847
SWIDTH 1000 0
DWIDTH 13 0
BBX 12 12 0 -1
BITMAP
4020
2040
1880
0900
FFE0
0420
0420
0420
0420
04A0
0440
0400
ENDCHAR
STARTCHAR U_5170
ENCODING 20848
SWIDTH 1000 0
DWIDTH 13 0
BBX 12 12 0 -1
BITMAP
2040
1040
1080
7FE0
0000
0000
0000
3FC0
0000
0000
0000
FFF0
ENDCHAR
STARTCHAR U_5171
ENCODING 20849
SWIDTH 1000 0
DWIDTH 13 0
BBX 12 12 0 -1
BITMAP
1100
1100
1100
FFE0
1100
1100
1100
FFE0
1100
2080
4040
8020
ENDCHAR
STARTCHAR U_5172
ENCODING 20850
SWIDTH 1000 0
DWIDTH 13 0
BBX 12 12 0 -1
BITMAP
7FE0
0400
3FC0
0400
0400
7FE0
0000
0A00
0900
1080
2040
C030
ENDCHAR
STARTCHAR U_5173
ENCODING 20851
SWIDTH 1000 0
DWIDTH 13 0
BBX 12 12 0 -1
BITMAP
2080
1100
0A00
7FC0
0400
0400
FFE0
0400
0A00
1100
2080
C060
ENDCHAR
STARTCHAR U_5174
ENCODING 20852
SWIDTH 1000 0
DWIDTH 13 0
BBX 12 12 0 -1
BITMAP
8840
4440
2480
2500
0000
FFE0
0000
1100
2080
4040
8020
0000
ENDCHAR
STARTCHAR U_5175
ENCODING 20853
SWIDTH 1000 0
DWIDTH 13 0
BBX 12 12 0 -1
BITMAP
0180
3E00
2000
3FE0
2200
2200
2200
FFE0
0000
1100
2080
C060
ENDCHAR
STARTCHAR U_5176
ENCODING 20854
SWIDTH 1000 0
DWIDTH 13 0
BBX 12 12 0 -1
BITMAP
1080
1080
7FE0
1080
1F80
1080
1F80
1080
FFF0
0900
1080
6060
ENDCHAR
STARTCHAR U_5177
ENCODING 20855
SWIDTH 1000 0
DWIDTH 13 0
BBX 12 12 0 -1
BITMAP
3F80
2080
3F80
2080
3F80
2080
3F80
2080
FFE0
1100
2080
C060
ENDCHAR
STARTCHAR U_5178
ENCODING 20856
SWIDTH 1000 0
DWIDTH 13 0
BBX 12 12 0 -1
BITMAP
0A00
0A00
7FC0
4A40
4A40
7FC0
4A40
4A40
FFF0
1100
2080
C060
ENDCHAR
STARTCHAR U_5179
ENCODING 20857
SWIDTH 1000 0
DWIDTH 13 0
BBX 12 12 0 -1
BITMAP
1080
0900
FFE0
2100
2100
4A40
FBC0
1080
2100
4A20
FBE0
0820
ENDCHAR
STARTCHAR U_517A
ENCODING 20858
SWIDTH 1000 0
DWIDTH 13 0
BBX 12 12 0 -1
BITMAP
0900
1080
2040
DFB0
0880
0880
3280
C100
7A40
4B90
4A10
79E0
ENDCHAR
STARTCHAR U_517B
ENCODING 20859
SWIDTH 1000 0
DWIDTH 13 0
BBX 12 12 0 -1
BITMAP
1080
0900
7FE0
0400
3FC0
0400
FFF0
1080
2940
4920
0900
1100
ENDCHAR
STARTCHAR U_517C
ENCODING 20860
SWIDTH 1000 0
DWIDTH 13 0
BBX 12 12 0 -1
BITMAP
2100
1200
FFE0
1200
7F80
1280
FFE0
1280
7F80
1200
5280
9260
ENDCHAR
STARTCHAR U_517D
ENCODING 20861
SWIDTH 1000 0
DWIDTH 13 0
BBX 12 12 0 -1
BITMAP
1100
7FC0
4440
7FC0
4440
7FC0
0000
FFE0
0000
3F80
2080
3F80
ENDCHAR
STARTCHAR U_517E
ENCODING 20862
SWIDTH 1000 0
DWIDTH 13 0
BBX 12 12 0 -1
BITMAP
1080
3FC0
2440
3FC0
2440
3FC0
1080
7FE0
1080
FFF0
1080
6060
ENDCHAR
STARTCHAR U_517F
ENCODING 20863
SWIDTH 1000 0
DWIDTH 13 0
BBX 12 12 0 -1
BITMAP
1080
0900
FFF0
2100
FBC0
2140
FB50
2430
0200
7FE0
0880
3FC0
ENDCHAR
STARTCHAR U_5180
ENCODING 20864
SWIDTH 1000 0
DWIDTH 13 0
BBX 12 12 0 -1
BITMAP
0A40
FB80
0A20
FFE0
2480
3F80
2480
7FE0
0900
FFE0
0900
70E0
ENDCHAR
STARTCHAR U_5181
ENCODING 20865
SWIDTH 1000 0
DWIDTH 13 0
BBX 12 12 0 -1
BITMAP
97E0
5420
27E0
FD40
A7E0
FD40
A7F0
FE80
26A0
FA40
2320
2220
ENDCHAR
STARTCHAR U_5182
ENCODING 20866
SWIDTH 1000 0
DWIDTH 13 0
BBX 12 12 0 -1
BITMAP
7FE0
4020
4020
4020
4020
4020
4020
4020
4020
4020
40A0
4040
ENDCHAR
STARTCHAR U_5183
ENCODING 20867
SWIDTH 1000 0
DWIDTH 13 0
BBX 12 12 0 -1
BITMAP
0000
7FE0
4020
4020
5FA0
4020
4020
5FA0
4020
4020
40A0
4040
ENDCHAR
STARTCHAR U_5184
ENCODING 20868
SWIDTH 1000 0
DWIDTH 13 0
BBX 12 12 0 -1
BITMAP
0000
3FC0
2040
2040
7FE0
2040
2040
2040
FFF0
2040
2140
2080
ENDCHAR
STARTCHAR U_5185
ENCODING 20869
SWIDTH 1000 0
DWIDTH 13 0
BBX 12 12 0 -1
BITMAP
0800
0800
FFC0
8840
8840
8840
8C40
9240
A140
8040
8140
8080
ENDCHAR
STARTCHAR U_5186
ENCODING 20870
SWIDTH 1000 0
DWIDTH 13 0
BBX 12 12 0 -1
BITMAP
0000
7FE0
4420
4420
4420
7FE0
4020
4020
4020
4020
40A0
4040
ENDCHAR
STARTCHAR U_5187
ENCODING 20871
SWIDTH 1000 0
DWIDTH 13 0
BBX 12 12 0 -1
BITMAP
0400
0400
FFF0
0800
1000
3FC0
5040
9040
1040
1040
1140
1080
ENDCHAR
STARTCHAR U_5188
ENCODING 20872
SWIDTH 1000 0
DWIDTH 13 0
BBX 12 12 0 -1
BITMAP
7FE0
4020
40A0
48A0
4520
4220
4520
48A0
50A0
4020
40A0
4040
ENDCHAR
STARTCHAR U_5189
ENCODING 20873
SWIDTH 1000 0
DWIDTH 13 0
BBX 12 12 0 -1
BITMAP
0200
0200
3FE0
2220
3FE0
2220
2220
FFF0
2020
2020
20A0
2040
ENDCHAR
STARTCHAR U_518A
ENCODING 20874
SWIDTH 1000 0
DWIDTH 13 0
BBX 12 12 0 -1
BITMAP
0000
7FE0
4920
4920
4920
FFF0
4920
4920
4920
4920
40A0
4040
ENDCHAR
STARTCHAR U_518B
ENCODING 20875
SWIDTH 1000 0
DWIDTH 13 0
BBX 12 12 0 -1
BITMAP
0000
FFE0
8020
8020
9F20
9120
9120
9F20
8020
8020
80A0
8040
ENDCHAR
STARTCHAR U_518C
ENCODING 20876
SWIDTH 1000 0
DWIDTH 13 0
BBX 12 12 0 -1
BITMAP
3DE0
2520
2520
2520
2520
FFF0
2520
2520
2520
4520
4520
8A60
ENDCHAR
STARTCHAR U_518D
ENCODING 20877
SWIDTH 1000 0
DWIDTH 13 0
BBX 12 12 0 -1
BITMAP
FFF0
0400
7FC0
4440
4440
7FC0
4440
4440
FFF0
4040
4040
40C0
ENDCHAR
STARTCHAR U_518E
ENCODING 20878
SWIDTH 1000 0
DWIDTH 13 0
BBX 12 12 0 -1
BITMAP
3F80
2080
2080
3C80
2480
2480
FFE0
8020
8020
8020
80A0
8040
ENDCHAR
STARTCHAR U_518F
ENCODING 20879
SWIDTH 1000 0
DWIDTH 13 0
BBX 12 12 0 -1
BITMAP
FFE0
8020
8020
8920
90A0
A0A0
9F20
9120
9120
9F20
80A0
8040
ENDCHAR
STARTCHAR U_5190
ENCODING 20880
SWIDTH 1000 0
DWIDTH 13 0
BBX 12 12 0 -1
BITMAP
7FE0
4020
5FA0
4020
5FA0
4020
3FC0
2040
3FC0
2040
3FC0
2040
ENDCHAR
STARTCHAR U_5191
ENCODING 20881
SWIDTH 1000 0
DWIDTH 13 0
BBX 12 12 0 -1
BITMAP
0400
7FE0
4420
7FE0
4420
7FE0
2040
2F40
2040
2F40
2040
20C0
ENDCHAR
STARTCHAR U_5192
ENCODING 20882
SWIDTH 1000 0
DWIDTH 13 0
BBX 12 12 0 -1
BITMAP
FF80
8080
BE80
8080
FF80
4100
7F00
4100
7F00
4100
7F00
4100
ENDCHAR
STARTCHAR U_5193
ENCODING 20883
SWIDTH 1000 0
DWIDTH 13 0
BBX 12 12 0 -1
BITMAP
0900
7FE0
0900
3FC0
0900
FFF0
1480
1F80
1480
FFF0
1080
1080
ENDCHAR
STARTCHAR U_5194
ENCODING 20884
SWIDTH 1000 0
DWIDTH 13 0
BBX 12 12 0 -1
BITMAP
3FC0
2040
2F40
2040
0F00
0000
F3E0
9080
97F0
F080
9080
0180
ENDCHAR
STARTCHAR U_5195
ENCODING 20885
SWIDTH 1000 0
DWIDTH 13 0
BBX 12 12 0 -1
BITMAP
7F80
4080
5E80
4080
5E80
2A00
7F80
A480
3F80
0A20
1220
E1E0
ENDCHAR
STARTCHAR U_5196
ENCODING 20886
SWIDTH 1000 0
DWIDTH 13 0
BBX 12 12 0 -1
BITMAP
0000
7FF0
4020
8040
0000
0000
0000
0000
0000
0000
0000
0000
ENDCHAR
STARTCHAR U_5197
ENCODING 20887
SWIDTH 1000 0
DWIDTH 13 0
BBX 12 12 0 -1
BITMAP
FFE0
8020
8020
0000
1E00
1200
1200
1200
2200
2220
4220
81E0
ENDCHAR
STARTCHAR U_5198
ENCODING 20888
SWIDTH 1000 0
DWIDTH 13 0
BBX 12 12 0 -1
BITMAP
0400
0400
7FF0
4410
8420
0400
0500
0900
0900
1110
2110
C0F0
ENDCHAR
STARTCHAR U_5199
ENCODING 20889
SWIDTH 1000 0
DWIDTH 13 0
BBX 12 12 0 -1
BITMAP
FFF0
9020
9000
1F80
1000
2000
3FC0
0040
FE40
0040
0040
0180
ENDCHAR
STARTCHAR U_519A
ENCODING 20890
SWIDTH 1000 0
DWIDTH 13 0
BBX 12 12 0 -1
BITMAP
0000
7FF0
8010
0400
0400
0400
4420
4420
4420
4420
7FE0
4020
ENDCHAR
STARTCHAR U_519B
ENCODING 20891
SWIDTH 1000 0
DWIDTH 13 0
BBX 12 12 0 -1
BITMAP
FFE0
8820
8820
3F80
1000
2400
7FC0
0400
0400
FFE0
0400
0400
ENDCHAR
STARTCHAR U_519C
ENCODING 20892
SWIDTH 1000 0
DWIDTH 13 0
BBX 12 12 0 -1
BITMAP
0400
0400
7FE0
8820
0A00
1240
1280
3100
D100
1080
1440
1820
ENDCHAR
STARTCHAR U_519D
ENCODING 20893
SWIDTH 1000 0
DWIDTH 13 0
BBX 12 12 0 -1
BITMAP
0000
7FF0
4020
8000
1F80
1080
1F80
1080
1F80
1080
1080
FFF0
ENDCHAR
STARTCHAR U_519E
ENCODING 20894
SWIDTH 1000 0
DWIDTH 13 0
BBX 12 12 0 -1
BITMAP
0000
7FE0
8020
0400
2480
1500
7FE0
0D00
1480
2440
C430
0400
ENDCHAR
STARTCHAR U_519F
ENCODING 20895
SWIDTH 1000 0
DWIDTH 13 0
BBX 12 12 0 -1
BITMAP
0000
7FE0
8420
3F80
2080
3F80
2080
3F80
0000
7FA0
4020
3FE0
ENDCHAR
STARTCHAR U_51A0
ENCODING 20896
SWIDTH 1000 0
DWIDTH 13 0
BBX 12 12 0 -1
BITMAP
7FF0
4010
4050
3C40
01F0
7E40
2940
2940
2840
28D0
4810
87F0
ENDCHAR
STARTCHAR U_51A1
ENCODING 20897
SWIDTH 1000 0
DWIDTH 13 0
BBX 12 12 0 -1
BITMAP
7FF0
4020
9F80
0000
7FE0
0840
1480
6B00
1500
6980
1540
6230
ENDCHAR
STARTCHAR U_51A2
ENCODING 20898
SWIDTH 1000 0
DWIDTH 13 0
BBX 12 12 0 -1
BITMAP
FFE0
8020
BFA0
0800
1400
2440
4A80
1700
6A80
1240
6220
0C00
ENDCHAR
STARTCHAR U_51A3
ENCODING 20899
SWIDTH 1000 0
DWIDTH 13 0
BBX 12 12 0 -1
BITMAP
0000
7FE0
8020
7FC0
2400
3DE0
24A0
3CA0
2640
7CC0
0520
0610
ENDCHAR
STARTCHAR U_51A4
ENCODING 20900
SWIDTH 1000 0
DWIDTH 13 0
BBX 12 12 0 -1
BITMAP
FFE0
8820
9F20
2200
7FC0
2440
3FC0
2640
0A80
0A50
3210
C1F0
ENDCHAR
STARTCHAR U_51A5
ENCODING 20901
SWIDTH 1000 0
DWIDTH 13 0
BBX 12 12 0 -1
BITMAP
FFE0
8020
BFA0
2080
3F80
2080
3F80
0400
FFE0
1100
2080
C060
ENDCHAR
STARTCHAR U_51A6
ENCODING 20902
SWIDTH 1000 0
DWIDTH 13 0
BBX 12 12 0 -1
BITMAP
0000
7FE0
8020
3C80
00E0
FE80
29E0
2940
2880
2950
4A30
87F0
ENDCHAR
STARTCHAR U_51A7
ENCODING 20903
SWIDTH 1000 0
DWIDTH 13 0
BBX 12 12 0 -1
BITMAP
7FF0
4010
90A0
1080
7BE0
1080
3980
35C0
52A0
52A0
9490
1080
ENDCHAR
STARTCHAR U_51A8
ENCODING 20904
SWIDTH 1000 0
DWIDTH 13 0
BBX 12 12 0 -1
BITMAP
7FF0
4010
BFA0
0000
1F80
1080
7FE0
4220
7FE0
4220
4220
7FE0
ENDCHAR
STARTCHAR U_51A9
ENCODING 20905
SWIDTH 1000 0
DWIDTH 13 0
BBX 12 12 0 -1
BITMAP
FFF0
8010
39C0
2040
39C0
2040
3FC0
0800
1FF0
2250
D550
1520
ENDCHAR
STARTCHAR U_51AA
ENCODING 20906
SWIDTH 1000 0
DWIDTH 13 0
BBX 12 12 0 -1
BITMAP
7FF0
4510
5FD0
1040
1FC0
1040
7FF0
0A80
3FE0
5250
12C0
0200
ENDCHAR
STARTCHAR U_51AB
ENCODING 20907
SWIDTH 1000 0
DWIDTH 13 0
BBX 12 12 0 -1
BITMAP
8000
4000
2000
0000
1000
2000
2000
C000
4000
4000
4000
4000
ENDCHAR
STARTCHAR U_51AC
ENCODING 20908
SWIDTH 1000 0
DWIDTH 13 0
BBX 12 12 0 -1
BITMAP
1000
1F80
1100
2A00
4400
8600
1980
E460
0200
1800
0600
0100
ENDCHAR
STARTCHAR U_51AD
ENCODING 20909
SWIDTH 1000 0
DWIDTH 13 0
BBX 12 12 0 -1
BITMAP
0400
0400
FFE0
0A00
1100
2080
4C40
8230
1100
0800
0600
0200
ENDCHAR
STARTCHAR U_51AE
ENCODING 20910
SWIDTH 1000 0
DWIDTH 13 0
BBX 12 12 0 -1
BITMAP
0000
4000
27E0
2100
0900
1100
2100
E100
2100
2100
2100
2FF0
ENDCHAR
STARTCHAR U_51AF
ENCODING 20911
SWIDTH 1000 0
DWIDTH 13 0
BBX 12 12 0 -1
BITMAP
0FC0
4040
2240
1240
1240
27F0
2010
C010
4FD0
4010
4010
0060
ENDCHAR
STARTCHAR U_51B0
ENCODING 20912
SWIDTH 1000 0
DWIDTH 13 0
BBX 12 12 0 -1
BITMAP
0100
4100
2120
0D40
2580
2540
4540
C940
4920
5110
4500
0200
ENDCHAR
STARTCHAR U_51B1
ENCODING 20913
SWIDTH 1000 0
DWIDTH 13 0
BBX 12 12 0 -1
BITMAP
0000
4FF0
2200
0200
13C0
2440
2440
4840
CF80
4080
4080
5FF0
ENDCHAR
STARTCHAR U_51B2
ENCODING 20914
SWIDTH 1000 0
DWIDTH 13 0
BBX 12 12 0 -1
BITMAP
0100
8100
4100
4FE0
1920
2920
2920
CFE0
4920
4100
4100
0100
ENDCHAR
STARTCHAR U_51B3
ENCODING 20915
SWIDTH 1000 0
DWIDTH 13 0
BBX 12 12 0 -1
BITMAP
0200
8200
4FC0
0240
2240
4240
5FE0
8200
8500
8880
9040
2020
ENDCHAR
STARTCHAR U_51B4
ENCODING 20916
SWIDTH 1000 0
DWIDTH 13 0
BBX 12 12 0 -1
BITMAP
0FF0
4040
2240
2440
27F0
08C0
1140
2240
C240
4440
5940
0080
ENDCHAR
STARTCHAR U_51B5
ENCODING 20917
SWIDTH 1000 0
DWIDTH 13 0
BBX 12 12 0 -1
BITMAP
8FE0
4820
4820
1820
2FE0
2AA0
4280
C280
4280
4490
4890
1070
ENDCHAR
STARTCHAR U_51B6
ENCODING 20918
SWIDTH 1000 0
DWIDTH 13 0
BBX 12 12 0 -1
BITMAP
0200
8200
4400
4840
2FE0
2020
4FC0
C840
4840
4840
4FC0
0840
ENDCHAR
STARTCHAR U_51B7
ENCODING 20919
SWIDTH 1000 0
DWIDTH 13 0
BBX 12 12 0 -1
BITMAP
0200
8300
4480
4840
3230
2100
5FC0
C040
4480
4300
4100
0080
ENDCHAR
STARTCHAR U_51B8
ENCODING 20920
SWIDTH 1000 0
DWIDTH 13 0
BBX 12 12 0 -1
BITMAP
0100
4920
2520
2540
0100
17E0
2100
C100
5FF0
4100
4100
0100
ENDCHAR
STARTCHAR U_51B9
ENCODING 20921
SWIDTH 1000 0
DWIDTH 13 0
BBX 12 12 0 -1
BITMAP
4240
2220
27F0
0200
1200
23E0
2540
4540
C880
4940
5220
0410
ENDCHAR
STARTCHAR U_51BA
ENCODING 20922
SWIDTH 1000 0
DWIDTH 13 0
BBX 12 12 0 -1
BITMAP
4FE0
2820
2FE0
0900
0900
1FF0
2900
C900
4880
4A90
4C50
0830
ENDCHAR
STARTCHAR U_51BB
ENCODING 20923
SWIDTH 1000 0
DWIDTH 13 0
BBX 12 12 0 -1
BITMAP
0200
9FE0
4400
2500
2900
0FE0
4100
C540
4920
5120
4500
4200
ENDCHAR
STARTCHAR U_51BC
ENCODING 20924
SWIDTH 1000 0
DWIDTH 13 0
BBX 12 12 0 -1
BITMAP
4080
2480
27E0
0480
1080
2FF0
2240
C240
4240
4450
4450
1830
ENDCHAR
STARTCHAR U_51BD
ENCODING 20925
SWIDTH 1000 0
DWIDTH 13 0
BBX 12 12 0 -1
BITMAP
8020
5F20
44A0
06A0
2AA0
2AA0
56A0
C2A0
44A0
4420
48A0
1040
ENDCHAR
STARTCHAR U_51BE
ENCODING 20926
SWIDTH 1000 0
DWIDTH 13 0
BBX 12 12 0 -1
BITMAP
4100
2280
2240
0420
0BD0
2000
27E0
2420
C420
4420
47E0
0420
ENDCHAR
STARTCHAR U_51BF
ENCODING 20927
SWIDTH 1000 0
DWIDTH 13 0
BBX 12 12 0 -1
BITMAP
0100
47E0
2120
2FF0
0120
17E0
2100
C7E0
4100
4FF0
4100
0100
ENDCHAR
STARTCHAR U_51C0
ENCODING 20928
SWIDTH 1000 0
DWIDTH 13 0
BBX 12 12 0 -1
BITMAP
8400
47C0
4880
1FE0
2120
2FF0
2120
CFE0
4100
4100
4500
0200
ENDCHAR
STARTCHAR U_51C1
ENCODING 20929
SWIDTH 1000 0
DWIDTH 13 0
BBX 12 12 0 -1
BITMAP
0100
5FF0
2100
2FE0
0920
1920
2FE0
C300
4580
4940
5130
0100
ENDCHAR
STARTCHAR U_51C2
ENCODING 20930
SWIDTH 1000 0
DWIDTH 13 0
BBX 12 12 0 -1
BITMAP
0400
47C0
2440
2880
1FE0
2920
2920
CFE0
4280
4290
4490
1870
ENDCHAR
STARTCHAR U_51C3
ENCODING 20931
SWIDTH 1000 0
DWIDTH 13 0
BBX 12 12 0 -1
BITMAP
0100
4280
2440
2830
07C0
1100
2FE0
C100
4540
4520
4910
1210
ENDCHAR
STARTCHAR U_51C4
ENCODING 20932
SWIDTH 1000 0
DWIDTH 13 0
BBX 12 12 0 -1
BITMAP
8200
4FF0
4240
0FF0
0240
2FC0
2240
DFF0
4480
4480
4340
0C30
ENDCHAR
STARTCHAR U_51C5
ENCODING 20933
SWIDTH 1000 0
DWIDTH 13 0
BBX 12 12 0 -1
BITMAP
8FF0
4910
4910
0FF0
2910
2BD0
4A50
CA50
4BD0
4810
4FF0
0810
ENDCHAR
STARTCHAR U_51C6
ENCODING 20934
SWIDTH 1000 0
DWIDTH 13 0
BBX 12 12 0 -1
BITMAP
8280
4480
4FF0
0480
1480
27E0
2480
C7E0
4480
4480
47F0
0400
ENDCHAR
STARTCHAR U_51C7
ENCODING 20935
SWIDTH 1000 0
DWIDTH 13 0
BBX 12 12 0 -1
BITMAP
0840
8940
4940
5D40
2A20
4A90
5C80
6900
A900
8920
8A70
8B90
ENDCHAR
STARTCHAR U_51C8
ENCODING 20936
SWIDTH 1000 0
DWIDTH 13 0
BBX 12 12 0 -1
BITMAP
00C0
8F20
4A40
4500
0FC0
2140
5FF0
C140
4FC0
4100
4500
4200
ENDCHAR
STARTCHAR U_51C9
ENCODING 20937
SWIDTH 1000 0
DWIDTH 13 0
BBX 12 12 0 -1
BITMAP
0100
8100
4FF0
4000
07E0
2420
2420
C7E0
4540
4920
5110
0300
ENDCHAR
STARTCHAR U_51CA
ENCODING 20938
SWIDTH 1000 0
DWIDTH 13 0
BBX 12 12 0 -1
BITMAP
0100
4FF0
2100
27E0
0100
2FF0
2420
C7E0
4420
47E0
4420
0460
ENDCHAR
STARTCHAR U_51CB
ENCODING 20939
SWIDTH 1000 0
DWIDTH 13 0
BBX 12 12 0 -1
BITMAP
0FE0
8920
4FE0
4920
0FE0
2820
2BA0
CAA0
53A0
52A0
6020
4060
ENDCHAR
STARTCHAR U_51CC
ENCODING 20940
SWIDTH 1000 0
DWIDTH 13 0
BBX 12 12 0 -1
BITMAP
8200
4FC0
4200
0200
2FE0
4840
D7A0
4480
5B00
4300
04C0
3830
ENDCHAR
STARTCHAR U_51CD
ENCODING 20941
SWIDTH 1000 0
DWIDTH 13 0
BBX 12 12 0 -1
BITMAP
4080
2FF0
2080
07F0
1490
17F0
2490
67F0
22C0
24A0
2890
0080
ENDCHAR
STARTCHAR U_51CE
ENCODING 20942
SWIDTH 1000 0
DWIDTH 13 0
BBX 12 12 0 -1
BITMAP
4100
2280
2440
0820
17D0
2100
2100
DFF0
4920
4540
4540
1FF0
ENDCHAR
STARTCHAR U_51CF
ENCODING 20943
SWIDTH 1000 0
DWIDTH 13 0
BBX 12 12 0 -1
BITMAP
00A0
8090
5FF0
1080
3E80
50A0
5EA0
92A0
9EC0
90D0
2130
4610
ENDCHAR
STARTCHAR U_51D0
ENCODING 20944
SWIDTH 1000 0
DWIDTH 13 0
BBX 12 12 0 -1
BITMAP
0000
5FF0
2240
2FF0
0A50
2A50
4FF0
C100
4FE0
4100
4100
1FF0
ENDCHAR
STARTCHAR U_51D1
ENCODING 20945
SWIDTH 1000 0
DWIDTH 13 0
BBX 12 12 0 -1
BITMAP
4100
2FE0
2100
0FE0
1200
2FF0
2820
D390
4100
5FE0
4440
1830
ENDCHAR
STARTCHAR U_51D2
ENCODING 20946
SWIDTH 1000 0
DWIDTH 13 0
BBX 12 12 0 -1
BITMAP
0100
4920
2FE0
2000
1FF0
1000
2FE0
2820
CFE0
4440
4280
1FF0
ENDCHAR
STARTCHAR U_51D3
ENCODING 20947
SWIDTH 1000 0
DWIDTH 13 0
BBX 12 12 0 -1
BITMAP
0000
5FF0
2280
2FE0
0AA0
1FE0
2100
2FF0
C180
4340
4530
1920
ENDCHAR
STARTCHAR U_51D4
ENCODING 20948
SWIDTH 1000 0
DWIDTH 13 0
BBX 12 12 0 -1
BITMAP
0100
4280
2540
2930
07E0
2420
27E0
C420
4BE0
4A20
53E0
0220
ENDCHAR
STARTCHAR U_51D5
ENCODING 20949
SWIDTH 1000 0
DWIDTH 13 0
BBX 12 12 0 -1
BITMAP
0FF0
4810
27E0
2420
07E0
1420
27E0
C080
5FF0
4240
4420
0820
ENDCHAR
STARTCHAR U_51D6
ENCODING 20950
SWIDTH 1000 0
DWIDTH 13 0
BBX 12 12 0 -1
BITMAP
4480
27F0
2C80
17F0
2480
C7F0
4480
47F0
0200
FFF0
0200
0200
ENDCHAR
STARTCHAR U_51D7
ENCODING 20951
SWIDTH 1000 0
DWIDTH 13 0
BBX 12 12 0 -1
BITMAP
0920
4920
2FE0
2500
0480
27F0
2880
DFE0
4880
4FE0
4880
4FF0
ENDCHAR
STARTCHAR U_51D8
ENCODING 20952
SWIDTH 1000 0
DWIDTH 13 0
BBX 12 12 0 -1
BITMAP
8A10
4AE0
5F80
0A80
2EF0
2AA0
4EA0
CAA0
5FA0
4AA0
5120
2220
ENDCHAR
STARTCHAR U_51D9
ENCODING 20953
SWIDTH 1000 0
DWIDTH 13 0
BBX 12 12 0 -1
BITMAP
07F0
4550
27F0
2080
07F0
1080
2FF0
C220
47F0
4080
4FF0
0080
ENDCHAR
STARTCHAR U_51DA
ENCODING 20954
SWIDTH 1000 0
DWIDTH 13 0
BBX 12 12 0 -1
BITMAP
0240
4FF0
2240
2760
0AD0
1250
27E0
2000
CFF0
42C0
44A0
1990
ENDCHAR
STARTCHAR U_51DB
ENCODING 20955
SWIDTH 1000 0
DWIDTH 13 0
BBX 12 12 0 -1
BITMAP
0100
9FF0
4AA0
4BA0
0820
2FE0
2000
C7C0
4000
5FF0
4920
1310
ENDCHAR
STARTCHAR U_51DC
ENCODING 20956
SWIDTH 1000 0
DWIDTH 13 0
BBX 12 12 0 -1
BITMAP
0100
9FF0
4AA0
4BA0
0820
2FE0
2040
C780
4100
5FF0
4920
1310
ENDCHAR
STARTCHAR U_51DD
ENCODING 20957
SWIDTH 1000 0
DWIDTH 13 0
BBX 12 12 0 -1
BITMAP
89F0
4C20
4840
0F40
21F0
2E40
54C0
DF70
4540
4B40
52C0
0070
ENDCHAR
STARTCHAR U_51DE
ENCODING 20958
SWIDTH 1000 0
DWIDTH 13 0
BBX 12 12 0 -1
BITMAP
AF70
AA50
6A50
2F50
2D70
6F40
AA40
AA50
0F70
0000
2520
4890
ENDCHAR
STARTCHAR U_51DF
ENCODING 20959
SWIDTH 1000 0
DWIDTH 13 0
BBX 12 12 0 -1
BITMAP
0100
9FF0
4100
5FF0
1290
3FF0
2820
CFE0
4820
4FE0
4280
1C60
ENDCHAR
STARTCHAR U_51E0
ENCODING 20960
SWIDTH 1000 0
DWIDTH 13 0
BBX 12 12 0 -1
BITMAP
1F00
1100
1100
1100
1100
1100
1100
1100
2110
2110
4110
80F0
ENDCHAR
STARTCHAR U_51E1
ENCODING 20961
SWIDTH 1000 0
DWIDTH 13 0
BBX 12 12 0 -1
BITMAP
1F80
1080
1080
1480
1280
1280
1280
1080
1090
2090
4090
8070
ENDCHAR
STARTCHAR U_51E2
ENCODING 20962
SWIDTH 1000 0
DWIDTH 13 0
BBX 12 12 0 -1
BITMAP
0400
0800
1F00
1100
1100
1100
1100
1100
2110
2110
4110
80F0
ENDCHAR
STARTCHAR U_51E3
ENCODING 20963
SWIDTH 1000 0
DWIDTH 13 0
BBX 12 12 0 -1
BITMAP
0400
0400
1F00
1100
1100
1100
1100
1100
2110
2110
4110
80F0
ENDCHAR
STARTCHAR U_51E4
ENCODING 20964
SWIDTH 1000 0
DWIDTH 13 0
BBX 12 12 0 -1
BITMAP
3FC0
2040
2F40
2140
2940
2540
2240
2240
2550
2950
4030
8010
ENDCHAR
STARTCHAR U_51E5
ENCODING 20965
SWIDTH 1000 0
DWIDTH 13 0
BBX 12 12 0 -1
BITMAP
3FE0
2020
2020
3FE0
2000
2780
2480
2480
2480
4890
4890
9070
ENDCHAR
STARTCHAR U_51E6
ENCODING 20966
SWIDTH 1000 0
DWIDTH 13 0
BBX 12 12 0 -1
BITMAP
2000
21C0
3D40
4540
4540
A540
2940
2950
1250
2C30
4300
80F0
ENDCHAR
STARTCHAR U_51E7
ENCODING 20967
SWIDTH 1000 0
DWIDTH 13 0
BBX 12 12 0 -1
BITMAP
7FC0
4040
4440
4440
5F40
5540
5540
5540
5540
5750
4430
8410
ENDCHAR
STARTCHAR U_51E8
ENCODING 20968
SWIDTH 1000 0
DWIDTH 13 0
BBX 12 12 0 -1
BITMAP
7FC0
4040
5F40
4040
4040
7FC0
4440
4840
5240
5F50
4130
8010
ENDCHAR
STARTCHAR U_51E9
ENCODING 20969
SWIDTH 1000 0
DWIDTH 13 0
BBX 12 12 0 -1
BITMAP
7FC0
4040
4440
4440
5F40
4440
4E40
5540
6540
4450
4430
8010
ENDCHAR
STARTCHAR U_51EA
ENCODING 20970
SWIDTH 1000 0
DWIDTH 13 0
BBX 12 12 0 -1
BITMAP
7FC0
4040
4440
4440
4440
5740
5440
5440
5440
5450
BFB0
8010
ENDCHAR
STARTCHAR U_51EB
ENCODING 20971
SWIDTH 1000 0
DWIDTH 13 0
BBX 12 12 0 -1
BITMAP
0800
7F00
5100
4B00
4000
7FC0
0040
3E40
2280
2220
4220
81E0
ENDCHAR
STARTCHAR U_51EC
ENCODING 20972
SWIDTH 1000 0
DWIDTH 13 0
BBX 12 12 0 -1
BITMAP
3FC0
2040
2F40
2040
2F40
2940
2F40
2940
2940
4F50
4030
8010
ENDCHAR
STARTCHAR U_51ED
ENCODING 20973
SWIDTH 1000 0
DWIDTH 13 0
BBX 12 12 0 -1
BITMAP
1060
2F80
2100
6FF0
A100
27E0
2000
0F80
0880
0890
1090
6070
ENDCHAR
STARTCHAR U_51EE
ENCODING 20974
SWIDTH 1000 0
DWIDTH 13 0
BBX 12 12 0 -1
BITMAP
3FC0
2040
2F40
2440
2F40
2940
2F40
2940
2F40
4950
4030
8010
ENDCHAR
STARTCHAR U_51EF
ENCODING 20975
SWIDTH 1000 0
DWIDTH 13 0
BBX 12 12 0 -1
BITMAP
2000
ABC0
AA40
FA40
0240
FA40
0A40
FA40
8240
8450
F450
8870
ENDCHAR
STARTCHAR U_51F0
ENCODING 20976
SWIDTH 1000 0
DWIDTH 13 0
BBX 12 12 0 -1
BITMAP
3FC0
2240
2F40
2940
2F40
2940
3FC0
2240
4FD0
4230
5FD0
8010
ENDCHAR
STARTCHAR U_51F1
ENCODING 20977
SWIDTH 1000 0
DWIDTH 13 0
BBX 12 12 0 -1
BITMAP
23C0
AA40
AA40
FA40
0240
FA40
0240
FA40
8A40
FA50
5450
F870
ENDCHAR
STARTCHAR U_51F2
ENCODING 20978
SWIDTH 1000 0
DWIDTH 13 0
BBX 12 12 0 -1
BITMAP
3FE0
2920
3FA0
2A20
3FA0
2AA0
3FE0
2AA0
3FA0
5B20
6A90
8A50
ENDCHAR
STARTCHAR U_51F3
ENCODING 20979
SWIDTH 1000 0
DWIDTH 13 0
BBX 12 12 0 -1
BITMAP
7A80
5140
2080
5F40
8030
1F00
1100
FFF0
0000
1F00
1120
E1E0
ENDCHAR
STARTCHAR U_51F4
ENCODING 20980
SWIDTH 1000 0
DWIDTH 13 0
BBX 12 12 0 -1
BITMAP
8FF0
6900
0FE0
2900
CFF0
5550
5550
1F80
1080
1080
1090
E0F0
ENDCHAR
STARTCHAR U_51F5
ENCODING 20981
SWIDTH 1000 0
DWIDTH 13 0
BBX 12 12 0 -1
BITMAP
0000
4010
4010
4010
4010
4010
4010
4010
4010
4010
FFF0
4010
ENDCHAR
STARTCHAR U_51F6
ENCODING 20982
SWIDTH 1000 0
DWIDTH 13 0
BBX 12 12 0 -1
BITMAP
0100
9120
8A20
8420
8620
8A20
9120
A120
8020
FFE0
8020
0000
ENDCHAR
STARTCHAR U_51F7
ENCODING 20983
SWIDTH 1000 0
DWIDTH 13 0
BBX 12 12 0 -1
BITMAP
0200
0200
4210
4F90
4210
4210
4210
5FD0
4010
4010
7FF0
4010
ENDCHAR
STARTCHAR U_51F8
ENCODING 20984
SWIDTH 1000 0
DWIDTH 13 0
BBX 12 12 0 -1
BITMAP
1F00
1100
1100
1100
1100
F1E0
8020
8020
8020
8020
FFE0
8020
ENDCHAR
STARTCHAR U_51F9
ENCODING 20985
SWIDTH 1000 0
DWIDTH 13 0
BBX 12 12 0 -1
BITMAP
0000
78F0
4890
4890
4890
4890
4F90
4010
4010
4010
7FF0
4010
ENDCHAR
STARTCHAR U_51FA
ENCODING 20986
SWIDTH 1000 0
DWIDTH 13 0
BBX 12 12 0 -1
BITMAP
0400
4440
4440
4440
7FC0
4440
0400
8420
8420
8420
FFE0
8020
ENDCHAR
STARTCHAR U_51FB
ENCODING 20987
SWIDTH 1000 0
DWIDTH 13 0
BBX 12 12 0 -1
BITMAP
0400
0400
7FC0
0400
0400
FFE0
0400
4440
4440
4440
7FC0
4040
ENDCHAR
STARTCHAR U_51FC
ENCODING 20988
SWIDTH 1000 0
DWIDTH 13 0
BBX 12 12 0 -1
BITMAP
0400
8420
8420
B4A0
9520
9620
A520
C4A0
9420
8820
FFE0
8020
ENDCHAR
STARTCHAR U_51FD
ENCODING 20989
SWIDTH 1000 0
DWIDTH 13 0
BBX 12 12 0 -1
BITMAP
3FC0
0080
0100
1240
4AA0
4B20
4320
52A0
6260
4420
7FE0
4020
ENDCHAR
STARTCHAR U_51FE
ENCODING 20990
SWIDTH 1000 0
DWIDTH 13 0
BBX 12 12 0 -1
BITMAP
1FC0
0080
0100
BA10
ABD0
AA50
AB50
BA90
8350
8A50
8410
FFF0
ENDCHAR
STARTCHAR U_51FF
ENCODING 20991
SWIDTH 1000 0
DWIDTH 13 0
BBX 12 12 0 -1
BITMAP
0900
4920
2940
FFF0
0880
4520
5FA0
4220
5FA0
4220
7FE0
4020
ENDCHAR
STARTCHAR U_5200
ENCODING 20992
SWIDTH 1000 0
DWIDTH 13 0
BBX 12 12 0 -1
BITMAP
0000
3FE0
0420
0420
0420
0420
0420
0820
0820
1020
2140
4080
ENDCHAR
STARTCHAR U_5201
ENCODING 20993
SWIDTH 1000 0
DWIDTH 13 0
BBX 12 12 0 -1
BITMAP
0040
7FE0
0040
0040
0240
0440
0840
3040
C040
0040
0280
0100
ENDCHAR
STARTCHAR U_5202
ENCODING 20994
SWIDTH 1000 0
DWIDTH 13 0
BBX 12 12 0 -1
BITMAP
0020
0020
0120
0120
0120
0120
0120
0120
0020
0020
00A0
0040
ENDCHAR
STARTCHAR U_5203
ENCODING 20995
SWIDTH 1000 0
DWIDTH 13 0
BBX 12 12 0 -1
BITMAP
0040
7FE0
0440
0440
2440
2440
4840
0840
1040
1040
2280
C100
ENDCHAR
STARTCHAR U_5204
ENCODING 20996
SWIDTH 1000 0
DWIDTH 13 0
BBX 12 12 0 -1
BITMAP
7FE0
0820
4820
2820
1820
0820
0C20
0A20
11A0
1070
20A0
4040
ENDCHAR
STARTCHAR U_5205
ENCODING 20997
SWIDTH 1000 0
DWIDTH 13 0
BBX 12 12 0 -1
BITMAP
0080
7FC0
0880
0880
0880
48A0
4890
9090
1080
2080
4500
8200
ENDCHAR
STARTCHAR U_5206
ENCODING 20998
SWIDTH 1000 0
DWIDTH 13 0
BBX 12 12 0 -1
BITMAP
0200
1200
1100
2080
4040
BFB0
0880
0880
0880
1080
2500
4200
ENDCHAR
STARTCHAR U_5207
ENCODING 20999
SWIDTH 1000 0
DWIDTH 13 0
BBX 12 12 0 -1
BITMAP
2000
2FF0
2110
2110
3910
E110
2110
2A10
3210
2210
04A0
0840
ENDCHAR
STARTCHAR U_5208
ENCODING 21000
SWIDTH 1000 0
DWIDTH 13 0
BBX 12 12 0 -1
BITMAP
0020
0820
8920
4920
2920
1120
1120
2920
2520
4420
80A0
0040
ENDCHAR
STARTCHAR U_5209
ENCODING 21001
SWIDTH 1000 0
DWIDTH 13 0
BBX 12 12 0 -1
BITMAP
2010
3F10
4050
8050
7E50
0450
0850
1050
2050
4110
4150
3F20
ENDCHAR
STARTCHAR U_520A
ENCODING 21002
SWIDTH 1000 0
DWIDTH 13 0
BBX 12 12 0 -1
BITMAP
0020
7C20
10A0
10A0
10A0
FEA0
10A0
10A0
10A0
1020
10A0
1040
ENDCHAR
STARTCHAR U_520B
ENCODING 21003
SWIDTH 1000 0
DWIDTH 13 0
BBX 12 12 0 -1
BITMAP
0410
0E10
7010
1090
1090
FE90
1090
1090
1090
2010
4050
8020
ENDCHAR
STARTCHAR U_520C
ENCODING 21004
SWIDTH 1000 0
DWIDTH 13 0
BBX 12 12 0 -1
BITMAP
0410
0410
0450
7F50
0450
4450
2450
2450
0450
0410
1450
0820
ENDCHAR
STARTCHAR U_520D
ENCODING 21005
SWIDTH 1000 0
DWIDTH 13 0
BBX 12 12 0 -1
BITMAP
0800
1000
1F80
2200
4440
BFE0
0040
0040
3FC0
0040
0040
7FC0
ENDCHAR
STARTCHAR U_520E
ENCODING 21006
SWIDTH 1000 0
DWIDTH 13 0
BBX 12 12 0 -1
BITMAP
2010
2010
7E50
AA50
2A50
4A50
9250
1250
2250
4210
8A50
0420
ENDCHAR
STARTCHAR U_520F
ENCODING 21007
SWIDTH 1000 0
DWIDTH 13 0
BBX 12 12 0 -1
BITMAP
4020
7C20
8020
3920
0120
F920
0920
0920
0820
0A20
0AA0
0640
ENDCHAR
STARTCHAR U_5210
ENCODING 21008
SWIDTH 1000 0
DWIDTH 13 0
BBX 12 12 0 -1
BITMAP
0010
3E10
2250
2A50
2A50
7F50
2250
2250
2250
4210
4A50
8420
ENDCHAR
STARTCHAR U_5211
ENCODING 21009
SWIDTH 1000 0
DWIDTH 13 0
BBX 12 12 0 -1
BITMAP
0210
7F10
2450
2450
2450
FF50
2450
2450
2450
4410
4450
8420
ENDCHAR
STARTCHAR U_5212
ENCODING 21010
SWIDTH 1000 0
DWIDTH 13 0
BBX 12 12 0 -1
BITMAP
1010
1410
1250
1350
7C50
1050
1450
1450
0810
0910
1550
6220
ENDCHAR
STARTCHAR U_5213
ENCODING 21011
SWIDTH 1000 0
DWIDTH 13 0
BBX 12 12 0 -1
BITMAP
0010
7E10
0050
0050
FF50
2450
2450
2450
2450
4510
4650
8420
ENDCHAR
STARTCHAR U_5214
ENCODING 21012
SWIDTH 1000 0
DWIDTH 13 0
BBX 12 12 0 -1
BITMAP
1020
7C20
14A0
14A0
14A0
FEA0
10A0
10A0
2820
2420
44A0
8240
ENDCHAR
STARTCHAR U_5215
ENCODING 21013
SWIDTH 1000 0
DWIDTH 13 0
BBX 12 12 0 -1
BITMAP
3FC0
0440
0840
1040
6180
0000
FDF0
2490
2490
2490
4510
9A60
ENDCHAR
STARTCHAR U_5216
ENCODING 21014
SWIDTH 1000 0
DWIDTH 13 0
BBX 12 12 0 -1
BITMAP
3E10
2210
2290
3E90
2290
2290
3E90
2290
2290
4210
4A10
8470
ENDCHAR
STARTCHAR U_5217
ENCODING 21015
SWIDTH 1000 0
DWIDTH 13 0
BBX 12 12 0 -1
BITMAP
FE10
1010
1090
3C90
2490
4490
A490
1890
0890
1010
2010
4070
ENDCHAR
STARTCHAR U_5218
ENCODING 21016
SWIDTH 1000 0
DWIDTH 13 0
BBX 12 12 0 -1
BITMAP
2020
1020
FD20
0120
0920
4920
3120
1120
2920
4420
84A0
0040
ENDCHAR
STARTCHAR U_5219
ENCODING 21017
SWIDTH 1000 0
DWIDTH 13 0
BBX 12 12 0 -1
BITMAP
F820
8820
A920
A920
A920
A920
A920
A920
2120
5020
48A0
8840
ENDCHAR
STARTCHAR U_521A
ENCODING 21018
SWIDTH 1000 0
DWIDTH 13 0
BBX 12 12 0 -1
BITMAP
7F10
4110
4550
6950
5950
4950
5550
5550
6550
4110
4510
4270
ENDCHAR
STARTCHAR U_521B
ENCODING 21019
SWIDTH 1000 0
DWIDTH 13 0
BBX 12 12 0 -1
BITMAP
0810
0C10
1250
2150
7E50
A250
2250
2A50
2450
2110
2110
1F30
ENDCHAR
STARTCHAR U_521C
ENCODING 21020
SWIDTH 1000 0
DWIDTH 13 0
BBX 12 12 0 -1
BITMAP
1410
1410
7F50
1550
3F50
5450
7F50
1550
1550
2710
2410
4470
ENDCHAR
STARTCHAR U_521D
ENCODING 21021
SWIDTH 1000 0
DWIDTH 13 0
BBX 12 12 0 -1
BITMAP
4020
27F0
F920
1120
2520
6920
B120
2920
2220
2220
2540
2880
ENDCHAR
STARTCHAR U_521E
ENCODING 21022
SWIDTH 1000 0
DWIDTH 13 0
BBX 12 12 0 -1
BITMAP
7C10
4410
4490
7C90
4490
4490
7C90
4490
4490
4410
FE10
0070
ENDCHAR
STARTCHAR U_521F
ENCODING 21023
SWIDTH 1000 0
DWIDTH 13 0
BBX 12 12 0 -1
BITMAP
7E20
1220
12A0
12A0
22A0
4AA0
84A0
7EA0
42A0
4220
42A0
7E40
ENDCHAR
STARTCHAR U_5220
ENCODING 21024
SWIDTH 1000 0
DWIDTH 13 0
BBX 12 12 0 -1
BITMAP
7710
5550
5550
5550
5550
FFD0
5550
5550
5550
5510
9510
BB70
ENDCHAR
STARTCHAR U_5221
ENCODING 21025
SWIDTH 1000 0
DWIDTH 13 0
BBX 12 12 0 -1
BITMAP
7E10
4210
4250
7E50
4850
4850
7F50
4850
4810
4510
6310
C170
ENDCHAR
STARTCHAR U_5222
ENCODING 21026
SWIDTH 1000 0
DWIDTH 13 0
BBX 12 12 0 -1
BITMAP
1020
1820
24A0
42A0
90A0
08A0
3CA0
04A0
28A0
1020
08A0
0040
ENDCHAR
STARTCHAR U_5223
ENCODING 21027
SWIDTH 1000 0
DWIDTH 13 0
BBX 12 12 0 -1
BITMAP
1010
1010
2050
2450
4250
FF50
0150
7E50
4250
4210
4250
7E20
ENDCHAR
STARTCHAR U_5224
ENCODING 21028
SWIDTH 1000 0
DWIDTH 13 0
BBX 12 12 0 -1
BITMAP
1020
9220
54A0
18A0
FEA0
10A0
10A0
FEA0
20A0
2020
40A0
8040
ENDCHAR
STARTCHAR U_5225
ENCODING 21029
SWIDTH 1000 0
DWIDTH 13 0
BBX 12 12 0 -1
BITMAP
7E10
4210
4290
4290
7E90
2090
3E90
2290
2290
4210
4210
8C70
ENDCHAR
STARTCHAR U_5226
ENCODING 21030
SWIDTH 1000 0
DWIDTH 13 0
BBX 12 12 0 -1
BITMAP
1010
1010
7C90
1090
1090
FC90
1090
2090
4890
8410
FE50
0220
ENDCHAR
STARTCHAR U_5227
ENCODING 21031
SWIDTH 1000 0
DWIDTH 13 0
BBX 12 12 0 -1
BITMAP
13F0
1090
7890
1090
1090
FC90
1090
1090
2490
4510
FE50
0220
ENDCHAR
STARTCHAR U_5228
ENCODING 21032
SWIDTH 1000 0
DWIDTH 13 0
BBX 12 12 0 -1
BITMAP
2010
2010
3E90
4290
FA90
4A90
7A90
4290
4690
4010
4210
3E70
ENDCHAR
STARTCHAR U_5229
ENCODING 21033
SWIDTH 1000 0
DWIDTH 13 0
BBX 12 12 0 -1
BITMAP
0C10
7090
1090
1090
FE90
1090
3890
3490
5290
9010
1010
1070
ENDCHAR
STARTCHAR U_522A
ENCODING 21034
SWIDTH 1000 0
DWIDTH 13 0
BBX 12 12 0 -1
BITMAP
7F10
5510
5550
5550
5550
FFD0
5550
5550
5550
5510
5110
4770
ENDCHAR
STARTCHAR U_522B
ENCODING 21035
SWIDTH 1000 0
DWIDTH 13 0
BBX 12 12 0 -1
BITMAP
7C10
4410
4490
7C90
1090
1090
FC90
2490
2490
4410
5410
8870
ENDCHAR
STARTCHAR U_522C
ENCODING 21036
SWIDTH 1000 0
DWIDTH 13 0
BBX 12 12 0 -1
BITMAP
2020
2820
FC20
2120
2120
3D20
E120
1120
1C20
3020
CAA0
0440
ENDCHAR
STARTCHAR U_522D
ENCODING 21037
SWIDTH 1000 0
DWIDTH 13 0
BBX 12 12 0 -1
BITMAP
FC10
0890
1090
2890
4490
8090
FC90
2090
2090
2010
3C10
C070
ENDCHAR
STARTCHAR U_522E
ENCODING 21038
SWIDTH 1000 0
DWIDTH 13 0
BBX 12 12 0 -1
BITMAP
0410
F810
1090
1090
FE90
1090
7C90
4490
4490
4410
7C10
4470
ENDCHAR
STARTCHAR U_522F
ENCODING 21039
SWIDTH 1000 0
DWIDTH 13 0
BBX 12 12 0 -1
BITMAP
FE10
0010
7C90
4490
4490
7C90
4490
4490
7C90
0010
1E50
E020
ENDCHAR
STARTCHAR U_5230
ENCODING 21040
SWIDTH 1000 0
DWIDTH 13 0
BBX 12 12 0 -1
BITMAP
0010
FE10
1090
2490
7E90
1090
1090
7E90
1090
1010
1E10
E070
ENDCHAR
STARTCHAR U_5231
ENCODING 21041
SWIDTH 1000 0
DWIDTH 13 0
BBX 12 12 0 -1
BITMAP
5040
57E0
5140
FD40
5360
5550
FD40
5140
5240
9240
9440
1980
ENDCHAR
STARTCHAR U_5232
ENCODING 21042
SWIDTH 1000 0
DWIDTH 13 0
BBX 12 12 0 -1
BITMAP
2010
2010
FC90
2090
2090
FC90
2090
F890
2090
2010
3C10
C070
ENDCHAR
STARTCHAR U_5233
ENCODING 21043
SWIDTH 1000 0
DWIDTH 13 0
BBX 12 12 0 -1
BITMAP
1010
FE90
2490
4290
BD90
0090
FE90
2090
7C90
0410
0410
1870
ENDCHAR
STARTCHAR U_5234
ENCODING 21044
SWIDTH 1000 0
DWIDTH 13 0
BBX 12 12 0 -1
BITMAP
FC10
2410
2E10
4290
8A90
0490
1090
FE90
1010
3810
5450
9220
ENDCHAR
STARTCHAR U_5235
ENCODING 21045
SWIDTH 1000 0
DWIDTH 13 0
BBX 12 12 0 -1
BITMAP
FF10
2410
2490
3C90
2490
3C90
2490
2490
3C90
C410
0410
0470
ENDCHAR
STARTCHAR U_5236
ENCODING 21046
SWIDTH 1000 0
DWIDTH 13 0
BBX 12 12 0 -1
BITMAP
1010
5010
7E90
9090
FE90
1090
7E90
5290
5290
5210
5610
1070
ENDCHAR
STARTCHAR U_5237
ENCODING 21047
SWIDTH 1000 0
DWIDTH 13 0
BBX 12 12 0 -1
BITMAP
3F10
2110
2150
3F50
2450
3F50
5550
5550
5550
5510
9710
0470
ENDCHAR
STARTCHAR U_5238
ENCODING 21048
SWIDTH 1000 0
DWIDTH 13 0
BBX 12 12 0 -1
BITMAP
4480
2900
0800
7FC0
1000
FFE0
2080
DF40
1120
1100
2500
4200
ENDCHAR
STARTCHAR U_5239
ENCODING 21049
SWIDTH 1000 0
DWIDTH 13 0
BBX 12 12 0 -1
BITMAP
4410
2810
3890
5490
1090
FE90
1090
5490
5290
9210
1010
3070
ENDCHAR
STARTCHAR U_523A
ENCODING 21050
SWIDTH 1000 0
DWIDTH 13 0
BBX 12 12 0 -1
BITMAP
1010
FE90
1090
7E90
5290
5290
5690
3090
5C90
9210
1110
1070
ENDCHAR
STARTCHAR U_523B
ENCODING 21051
SWIDTH 1000 0
DWIDTH 13 0
BBX 12 12 0 -1
BITMAP
2010
1010
FE90
2090
4890
7890
1290
2490
4890
9810
2410
4270
ENDCHAR
STARTCHAR U_523C
ENCODING 21052
SWIDTH 1000 0
DWIDTH 13 0
BBX 12 12 0 -1
BITMAP
27F0
2090
7890
2290
2290
FE90
2290
2090
4910
4910
FD50
4220
ENDCHAR
STARTCHAR U_523D
ENCODING 21053
SWIDTH 1000 0
DWIDTH 13 0
BBX 12 12 0 -1
BITMAP
1010
2810
4490
8290
3890
0090
FC90
2090
2090
4810
4C10
F470
ENDCHAR
STARTCHAR U_523E
ENCODING 21054
SWIDTH 1000 0
DWIDTH 13 0
BBX 12 12 0 -1
BITMAP
1020
1020
7C20
1120
5520
3920
1120
FD20
1120
2820
24A0
C440
ENDCHAR
STARTCHAR U_523F
ENCODING 21055
SWIDTH 1000 0
DWIDTH 13 0
BBX 12 12 0 -1
BITMAP
1020
9220
92A0
FEA0
20A0
3EA0
44A0
A8A0
28A0
1020
20A0
C040
ENDCHAR
STARTCHAR U_5240
ENCODING 21056
SWIDTH 1000 0
DWIDTH 13 0
BBX 12 12 0 -1
BITMAP
1010
9290
FE90
0290
7C90
0490
0490
7C90
4090
4010
5C10
E070
ENDCHAR
STARTCHAR U_5241
ENCODING 21057
SWIDTH 1000 0
DWIDTH 13 0
BBX 12 12 0 -1
BITMAP
3C10
2410
2450
2450
4750
8850
7F50
1850
2C50
4A10
8910
0870
ENDCHAR
STARTCHAR U_5242
ENCODING 21058
SWIDTH 1000 0
DWIDTH 13 0
BBX 12 12 0 -1
BITMAP
1010
0810
FF50
2250
1C50
2250
E550
2450
2450
2410
4410
8470
ENDCHAR
STARTCHAR U_5243
ENCODING 21059
SWIDTH 1000 0
DWIDTH 13 0
BBX 12 12 0 -1
BITMAP
2210
1410
7F50
0950
3F50
4850
7F50
1950
2950
4910
8B10
0870
ENDCHAR
STARTCHAR U_5244
ENCODING 21060
SWIDTH 1000 0
DWIDTH 13 0
BBX 12 12 0 -1
BITMAP
0410
FE10
5490
A890
A890
5490
0090
FE90
1090
1010
1E10
E070
ENDCHAR
STARTCHAR U_5245
ENCODING 21061
SWIDTH 1000 0
DWIDTH 13 0
BBX 12 12 0 -1
BITMAP
FE10
0010
7C10
4490
4490
7C90
0090
4490
2490
2810
FE50
4020
ENDCHAR
STARTCHAR U_5246
ENCODING 21062
SWIDTH 1000 0
DWIDTH 13 0
BBX 12 12 0 -1
BITMAP
1010
0810
7E90
4290
7E90
4290
7E90
4290
4890
4410
5A10
E070
ENDCHAR
STARTCHAR U_5247
ENCODING 21063
SWIDTH 1000 0
DWIDTH 13 0
BBX 12 12 0 -1
BITMAP
7C10
4490
4490
7C90
4490
7C90
4490
4490
7C90
2810
4410
8270
ENDCHAR
STARTCHAR U_5248
ENCODING 21064
SWIDTH 1000 0
DWIDTH 13 0
BBX 12 12 0 -1
BITMAP
7C10
4410
7C90
4490
0090
7C90
4490
7C90
4490
7C10
4450
4820
ENDCHAR
STARTCHAR U_5249
ENCODING 21065
SWIDTH 1000 0
DWIDTH 13 0
BBX 12 12 0 -1
BITMAP
0810
4A50
4A50
4A50
AD50
9950
0850
7F50
0850
0810
0810
FF70
ENDCHAR
STARTCHAR U_524A
ENCODING 21066
SWIDTH 1000 0
DWIDTH 13 0
BBX 12 12 0 -1
BITMAP
2020
A420
6920
2120
FD20
8520
FD20
8520
FD20
8420
9420
88E0
ENDCHAR
STARTCHAR U_524B
ENCODING 21067
SWIDTH 1000 0
DWIDTH 13 0
BBX 12 12 0 -1
BITMAP
1020
FEA0
10A0
7EA0
42A0
42A0
7EA0
28A0
2820
2860
4810
87F0
ENDCHAR
STARTCHAR U_524C
ENCODING 21068
SWIDTH 1000 0
DWIDTH 13 0
BBX 12 12 0 -1
BITMAP
1010
FE10
1090
FE90
9290
9290
FE90
3090
5890
9410
9210
1070
ENDCHAR
STARTCHAR U_524D
ENCODING 21069
SWIDTH 1000 0
DWIDTH 13 0
BBX 12 12 0 -1
BITMAP
2100
1200
FFE0
0000
7840
4A40
7A40
4A40
7A40
4A40
4840
58C0
ENDCHAR
STARTCHAR U_524E
ENCODING 21070
SWIDTH 1000 0
DWIDTH 13 0
BBX 12 12 0 -1
BITMAP
6C10
1010
2890
5490
1490
FE90
1090
3890
5490
9210
1010
1070
ENDCHAR
STARTCHAR U_524F
ENCODING 21071
SWIDTH 1000 0
DWIDTH 13 0
BBX 12 12 0 -1
BITMAP
4400
2BF0
0890
FC90
2A90
2A90
FE90
2A90
2890
2910
4910
8A20
ENDCHAR
STARTCHAR U_5250
ENCODING 21072
SWIDTH 1000 0
DWIDTH 13 0
BBX 12 12 0 -1
BITMAP
7E10
4210
4250
7E50
1050
FF50
9150
9950
A510
C310
8110
8370
ENDCHAR
STARTCHAR U_5251
ENCODING 21073
SWIDTH 1000 0
DWIDTH 13 0
BBX 12 12 0 -1
BITMAP
0810
0810
1690
2290
5C90
8090
1290
4A90
2410
0810
1E10
E070
ENDCHAR
STARTCHAR U_5252
ENCODING 21074
SWIDTH 1000 0
DWIDTH 13 0
BBX 12 12 0 -1
BITMAP
2810
2810
FE90
2890
FE90
0090
7E90
4290
7E90
4210
7E10
4270
ENDCHAR
STARTCHAR U_5253
ENCODING 21075
SWIDTH 1000 0
DWIDTH 13 0
BBX 12 12 0 -1
BITMAP
FA00
23F0
FA50
3050
6890
A130
0000
7FE0
0420
0420
18A0
E040
ENDCHAR
STARTCHAR U_5254
ENCODING 21076
SWIDTH 1000 0
DWIDTH 13 0
BBX 12 12 0 -1
BITMAP
7E10
4210
7E90
4290
7E90
2090
7E90
AA90
4A90
9210
2210
CC70
ENDCHAR
STARTCHAR U_5255
ENCODING 21077
SWIDTH 1000 0
DWIDTH 13 0
BBX 12 12 0 -1
BITMAP
2810
2890
EE90
2890
2890
EE90
2890
2890
EE90
2810
2810
2870
ENDCHAR
STARTCHAR U_5256
ENCODING 21078
SWIDTH 1000 0
DWIDTH 13 0
BBX 12 12 0 -1
BITMAP
2010
1010
FE90
4490
2890
FE90
0090
7C90
4490
4410
7C10
4470
ENDCHAR
STARTCHAR U_5257
ENCODING 21079
SWIDTH 1000 0
DWIDTH 13 0
BBX 12 12 0 -1
BITMAP
2010
2810
2C90
F490
2A90
DE90
2090
2490
FC10
2810
1210
EE70
ENDCHAR
STARTCHAR U_5258
ENCODING 21080
SWIDTH 1000 0
DWIDTH 13 0
BBX 12 12 0 -1
BITMAP
4410
FE90
4490
7C90
4490
4490
7C90
4490
FE90
2810
4450
8220
ENDCHAR
STARTCHAR U_5259
ENCODING 21081
SWIDTH 1000 0
DWIDTH 13 0
BBX 12 12 0 -1
BITMAP
8800
4BC0
FD40
4940
4940
4B60
FD50
4950
4940
4A40
4A40
8CC0
ENDCHAR
STARTCHAR U_525A
ENCODING 21082
SWIDTH 1000 0
DWIDTH 13 0
BBX 12 12 0 -1
BITMAP
0810
7F10
0850
3E50
2A50
7F50
0950
FFD0
0950
7F50
0810
3870
ENDCHAR
STARTCHAR U_525B
ENCODING 21083
SWIDTH 1000 0
DWIDTH 13 0
BBX 12 12 0 -1
BITMAP
FF10
8110
C550
A950
9150
FF50
9150
9150
D550
D510
FD10
8370
ENDCHAR
STARTCHAR U_525C
ENCODING 21084
SWIDTH 1000 0
DWIDTH 13 0
BBX 12 12 0 -1
BITMAP
1010
0810
FE90
A290
7E90
AA90
AA90
EA90
2E90
2810
4A50
8C20
ENDCHAR
STARTCHAR U_525D
ENCODING 21085
SWIDTH 1000 0
DWIDTH 13 0
BBX 12 12 0 -1
BITMAP
2010
3C10
4490
7890
0890
FE90
9290
5490
3890
5410
9210
3170
ENDCHAR
STARTCHAR U_525E
ENCODING 21086
SWIDTH 1000 0
DWIDTH 13 0
BBX 12 12 0 -1
BITMAP
1010
FE10
1050
2850
4450
FF50
0250
3A50
2A50
3A10
0250
0620
ENDCHAR
STARTCHAR U_525F
ENCODING 21087
SWIDTH 1000 0
DWIDTH 13 0
BBX 12 12 0 -1
BITMAP
EE10
AA10
4010
AA50
9150
0050
EE50
AA50
4450
AA10
9110
0070
ENDCHAR
STARTCHAR U_5260
ENCODING 21088
SWIDTH 1000 0
DWIDTH 13 0
BBX 12 12 0 -1
BITMAP
2010
1010
FE10
0090
7C90
4490
7C90
1090
5490
9210
5250
2020
ENDCHAR
STARTCHAR U_5261
ENCODING 21089
SWIDTH 1000 0
DWIDTH 13 0
BBX 12 12 0 -1
BITMAP
1010
5410
5890
9890
2490
D290
5490
5890
9090
2810
4450
8220
ENDCHAR
STARTCHAR U_5262
ENCODING 21090
SWIDTH 1000 0
DWIDTH 13 0
BBX 12 12 0 -1
BITMAP
0010
7F10
1050
3950
4A50
B450
3450
5E50
1550
6410
0450
1820
ENDCHAR
STARTCHAR U_5263
ENCODING 21091
SWIDTH 1000 0
DWIDTH 13 0
BBX 12 12 0 -1
BITMAP
1010
2810
4490
8290
3C90
0890
7E90
4A90
7E10
0810
1450
6220
ENDCHAR
STARTCHAR U_5264
ENCODING 21092
SWIDTH 1000 0
DWIDTH 13 0
BBX 12 12 0 -1
BITMAP
0810
7F10
2210
1450
0850
1450
E350
3E50
2250
3E10
4250
8220
ENDCHAR
STARTCHAR U_5265
ENCODING 21093
SWIDTH 1000 0
DWIDTH 13 0
BBX 12 12 0 -1
BITMAP
7E10
0210
3E50
0250
7F50
0950
4A50
2C50
2A10
4910
8850
1820
ENDCHAR
STARTCHAR U_5266
ENCODING 21094
SWIDTH 1000 0
DWIDTH 13 0
BBX 12 12 0 -1
BITMAP
1020
1020
FE20
28A0
54A0
FEA0
54A0
7CA0
54A0
7C20
10A0
0E40
ENDCHAR
STARTCHAR U_5267
ENCODING 21095
SWIDTH 1000 0
DWIDTH 13 0
BBX 12 12 0 -1
BITMAP
3F10
2110
3F50
2550
2450
3F50
2450
3F50
3110
5110
5F50
9120
ENDCHAR
STARTCHAR U_5268
ENCODING 21096
SWIDTH 1000 0
DWIDTH 13 0
BBX 12 12 0 -1
BITMAP
0810
7F10
0850
3E50
0850
3E50
0850
FF50
2050
5E10
9250
1E30
ENDCHAR
STARTCHAR U_5269
ENCODING 21097
SWIDTH 1000 0
DWIDTH 13 0
BBX 12 12 0 -1
BITMAP
0210
7C10
1050
FF50
5450
D650
5450
D750
3850
5410
9210
1070
ENDCHAR
STARTCHAR U_526A
ENCODING 21098
SWIDTH 1000 0
DWIDTH 13 0
BBX 12 12 0 -1
BITMAP
1100
0A00
FFE0
4840
7A40
4A40
7A40
48C0
0000
FFC0
1040
6380
ENDCHAR
STARTCHAR U_526B
ENCODING 21099
SWIDTH 1000 0
DWIDTH 13 0
BBX 12 12 0 -1
BITMAP
0810
7F10
5250
7F50
5250
5E50
4050
5E50
4A10
4410
8B50
B120
ENDCHAR
STARTCHAR U_526C
ENCODING 21100
SWIDTH 1000 0
DWIDTH 13 0
BBX 12 12 0 -1
BITMAP
0810
4A10
4A50
7E50
0050
FF50
0850
7F50
5550
5510
5550
4320
ENDCHAR
STARTCHAR U_526D
ENCODING 21101
SWIDTH 1000 0
DWIDTH 13 0
BBX 12 12 0 -1
BITMAP
7F10
4110
7F50
4050
7F50
4A50
5150
7F50
4450
5F10
8450
BF20
ENDCHAR
STARTCHAR U_526E
ENCODING 21102
SWIDTH 1000 0
DWIDTH 13 0
BBX 12 12 0 -1
BITMAP
7C10
4490
5C90
5490
5490
FE90
8290
BA90
AA90
AA10
BA50
8620
ENDCHAR
STARTCHAR U_526F
ENCODING 21103
SWIDTH 1000 0
DWIDTH 13 0
BBX 12 12 0 -1
BITMAP
FE10
0010
7C90
4490
7C90
0090
FE90
9290
FE90
9210
FE50
8220
ENDCHAR
STARTCHAR U_5270
ENCODING 21104
SWIDTH 1000 0
DWIDTH 13 0
BBX 12 12 0 -1
BITMAP
0C10
7010
1050
FF50
5450
D750
5450
D650
3910
5410
9250
1020
ENDCHAR
STARTCHAR U_5271
ENCODING 21105
SWIDTH 1000 0
DWIDTH 13 0
BBX 12 12 0 -1
BITMAP
1000
29F0
4490
BA90
1190
7E90
5490
7C90
5510
1110
2A50
C420
ENDCHAR
STARTCHAR U_5272
ENCODING 21106
SWIDTH 1000 0
DWIDTH 13 0
BBX 12 12 0 -1
BITMAP
1010
FF10
8950
7E50
0850
3E50
0850
FF50
0850
7E10
4250
7E20
ENDCHAR
STARTCHAR U_5273
ENCODING 21107
SWIDTH 1000 0
DWIDTH 13 0
BBX 12 12 0 -1
BITMAP
4210
FF10
4250
5250
2850
4650
8250
3C50
0050
7E10
4250
7E20
ENDCHAR
STARTCHAR U_5274
ENCODING 21108
SWIDTH 1000 0
DWIDTH 13 0
BBX 12 12 0 -1
BITMAP
9210
9210
FE90
0090
FE90
0090
FE90
8290
FE90
4410
2850
FE20
ENDCHAR
STARTCHAR U_5275
ENCODING 21109
SWIDTH 1000 0
DWIDTH 13 0
BBX 12 12 0 -1
BITMAP
0810
1410
2A50
7F50
A250
3E50
2250
3E50
4010
7E10
A250
3E20
ENDCHAR
STARTCHAR U_5276
ENCODING 21110
SWIDTH 1000 0
DWIDTH 13 0
BBX 12 12 0 -1
BITMAP
7E10
4410
FC50
0850
FF50
5150
B650
2850
5C50
AA10
4950
9820
ENDCHAR
STARTCHAR U_5277
ENCODING 21111
SWIDTH 1000 0
DWIDTH 13 0
BBX 12 12 0 -1
BITMAP
0810
7F50
2250
1450
7FD0
5450
5F50
4450
5F50
4410
4450
BF20
ENDCHAR
STARTCHAR U_5278
ENCODING 21112
SWIDTH 1000 0
DWIDTH 13 0
BBX 12 12 0 -1
BITMAP
1010
FE10
5450
7C50
5450
7C50
1450
FA50
0A50
FE10
4870
1810
ENDCHAR
STARTCHAR U_5279
ENCODING 21113
SWIDTH 1000 0
DWIDTH 13 0
BBX 12 12 0 -1
BITMAP
EE20
2220
AAA0
36A0
68A0
94A0
22A0
C8A0
32A0
C420
18A0
E040
ENDCHAR
STARTCHAR U_527A
ENCODING 21114
SWIDTH 1000 0
DWIDTH 13 0
BBX 12 12 0 -1
BITMAP
1080
7D70
11C0
FC40
54A0
9310
3FF0
2000
2FE0
2220
4420
98C0
ENDCHAR
STARTCHAR U_527B
ENCODING 21115
SWIDTH 1000 0
DWIDTH 13 0
BBX 12 12 0 -1
BITMAP
4910
4910
7F50
0050
7750
5550
7750
5550
7750
5510
5550
BB20
ENDCHAR
STARTCHAR U_527C
ENCODING 21116
SWIDTH 1000 0
DWIDTH 13 0
BBX 12 12 0 -1
BITMAP
1010
2450
3A50
5550
F750
1450
2250
4950
3550
0A10
0450
7820
ENDCHAR
STARTCHAR U_527D
ENCODING 21117
SWIDTH 1000 0
DWIDTH 13 0
BBX 12 12 0 -1
BITMAP
FE10
2810
FE90
AA90
FE90
0090
7C90
0090
FE90
5410
9250
3120
ENDCHAR
STARTCHAR U_527E
ENCODING 21118
SWIDTH 1000 0
DWIDTH 13 0
BBX 12 12 0 -1
BITMAP
FF10
8010
9E50
9250
9E50
8050
F750
D550
D550
F710
8050
FF20
ENDCHAR
STARTCHAR U_527F
ENCODING 21119
SWIDTH 1000 0
DWIDTH 13 0
BBX 12 12 0 -1
BITMAP
4A20
9420
4AA0
FEA0
92A0
FEA0
92A0
FEA0
10A0
FE20
5220
9160
ENDCHAR
STARTCHAR U_5280
ENCODING 21120
SWIDTH 1000 0
DWIDTH 13 0
BBX 12 12 0 -1
BITMAP
FE10
2410
1850
FF50
2A50
4850
FE50
AA50
FE50
AA10
BA50
8620
ENDCHAR
STARTCHAR U_5281
ENCODING 21121
SWIDTH 1000 0
DWIDTH 13 0
BBX 12 12 0 -1
BITMAP
1010
2450
3F50
6450
BF50
2450
3F50
2450
3F50
0010
2950
54A0
ENDCHAR
STARTCHAR U_5282
ENCODING 21122
SWIDTH 1000 0
DWIDTH 13 0
BBX 12 12 0 -1
BITMAP
FF90
C410
AA50
FFD0
9250
D550
D550
D550
FD50
9290
A290
C470
ENDCHAR
STARTCHAR U_5283
ENCODING 21123
SWIDTH 1000 0
DWIDTH 13 0
BBX 12 12 0 -1
BITMAP
1020
7CA0
14A0
7EA0
14A0
FFA0
54A0
7CA0
54A0
7C20
00A0
FE40
ENDCHAR
STARTCHAR U_5284
ENCODING 21124
SWIDTH 1000 0
DWIDTH 13 0
BBX 12 12 0 -1
BITMAP
1080
1FF0
2940
4620
1820
24A0
5EA0
00A0
3EA0
2220
22A0
3E40
ENDCHAR
STARTCHAR U_5285
ENCODING 21125
SWIDTH 1000 0
DWIDTH 13 0
BBX 12 12 0 -1
BITMAP
7F10
5510
7F50
2050
7F50
9150
7D50
5550
7D50
1110
1D10
7220
ENDCHAR
STARTCHAR U_5286
ENCODING 21126
SWIDTH 1000 0
DWIDTH 13 0
BBX 12 12 0 -1
BITMAP
0810
7F10
5250
7F50
5550
7FD0
5550
7F50
5450
5610
B550
54A0
ENDCHAR
STARTCHAR U_5287
ENCODING 21127
SWIDTH 1000 0
DWIDTH 13 0
BBX 12 12 0 -1
BITMAP
0F10
0810
7F90
4A10
5F50
4050
5F50
4D50
5650
6E10
9510
8CB0
ENDCHAR
STARTCHAR U_5288
ENCODING 21128
SWIDTH 1000 0
DWIDTH 13 0
BBX 12 12 0 -1
BITMAP
7C80
47F0
7D20
47F0
7C80
A7F0
BC80
0080
7FE0
0820
1020
61C0
ENDCHAR
STARTCHAR U_5289
ENCODING 21129
SWIDTH 1000 0
DWIDTH 13 0
BBX 12 12 0 -1
BITMAP
3E10
CA10
AA90
D290
9490
2890
FE90
1090
FE90
5410
5810
FE70
ENDCHAR
STARTCHAR U_528A
ENCODING 21130
SWIDTH 1000 0
DWIDTH 13 0
BBX 12 12 0 -1
BITMAP
1810
2410
7E50
8150
FF50
A550
A550
FF50
4250
7E10
4250
7E20
ENDCHAR
STARTCHAR U_528B
ENCODING 21131
SWIDTH 1000 0
DWIDTH 13 0
BBX 12 12 0 -1
BITMAP
7C10
4410
7C90
0090
EE90
AA90
EE90
1090
FE90
3810
5410
9270
ENDCHAR
STARTCHAR U_528C
ENCODING 21132
SWIDTH 1000 0
DWIDTH 13 0
BBX 12 12 0 -1
BITMAP
2E10
2810
7F50
0550
7FD0
4450
7D50
5550
7A50
5290
A590
88B0
ENDCHAR
STARTCHAR U_528D
ENCODING 21133
SWIDTH 1000 0
DWIDTH 13 0
BBX 12 12 0 -1
BITMAP
0810
1450
2250
5D50
0050
7750
5550
7750
2250
2210
5510
88B0
ENDCHAR
STARTCHAR U_528E
ENCODING 21134
SWIDTH 1000 0
DWIDTH 13 0
BBX 12 12 0 -1
BITMAP
1000
29F0
4450
BA50
0050
EE50
AA50
EE50
4450
4490
AA90
9120
ENDCHAR
STARTCHAR U_528F
ENCODING 21135
SWIDTH 1000 0
DWIDTH 13 0
BBX 12 12 0 -1
BITMAP
4910
2A50
7F50
4150
BE50
2250
3E50
7F50
4950
7F10
4950
7F20
ENDCHAR
STARTCHAR U_5290
ENCODING 21136
SWIDTH 1000 0
DWIDTH 13 0
BBX 12 12 0 -1
BITMAP
2210
FF90
2250
7F50
C850
7F50
4850
7F50
2250
1410
0850
7720
ENDCHAR
STARTCHAR U_5291
ENCODING 21137
SWIDTH 1000 0
DWIDTH 13 0
BBX 12 12 0 -1
BITMAP
0810
FF90
3550
6A50
AB50
AAD0
2150
3F50
2150
3F10
2110
C170
ENDCHAR
STARTCHAR U_5292
ENCODING 21138
SWIDTH 1000 0
DWIDTH 13 0
BBX 12 12 0 -1
BITMAP
1000
28F0
4650
B850
0150
EED0
AA50
EE50
0050
4490
4A90
B120
ENDCHAR
STARTCHAR U_5293
ENCODING 21139
SWIDTH 1000 0
DWIDTH 13 0
BBX 12 12 0 -1
BITMAP
0810
3E10
2250
3E50
2250
7F50
4950
7F50
4910
FF90
2410
4470
ENDCHAR
STARTCHAR U_5294
ENCODING 21140
SWIDTH 1000 0
DWIDTH 13 0
BBX 12 12 0 -1
BITMAP
1000
29E0
46A0
B8A0
01A0
EEE0
AAB0
EEA0
44A0
4520
AB20
1240
ENDCHAR
STARTCHAR U_5295
ENCODING 21141
SWIDTH 1000 0
DWIDTH 13 0
BBX 12 12 0 -1
BITMAP
3310
4450
7FD0
5550
BF50
2550
3350
2950
3F50
1210
1250
6120
ENDCHAR
STARTCHAR U_5296
ENCODING 21142
SWIDTH 1000 0
DWIDTH 13 0
BBX 12 12 0 -1
BITMAP
1E10
6410
3F50
2150
7FD0
56D0
7550
3F50
2950
3F90
1A90
E730
ENDCHAR
STARTCHAR U_5297
ENCODING 21143
SWIDTH 1000 0
DWIDTH 13 0
BBX 12 12 0 -1
BITMAP
AA10
FF90
2250
7F50
5550
BFD0
2150
3F50
2150
3F10
1410
6330
ENDCHAR
STARTCHAR U_5298
ENCODING 21144
SWIDTH 1000 0
DWIDTH 13 0
BBX 12 12 0 -1
BITMAP
0410
7F90
5250
7F50
5750
7AD0
5450
7750
5450
7710
9410
F7B0
ENDCHAR
STARTCHAR U_5299
ENCODING 21145
SWIDTH 1000 0
DWIDTH 13 0
BBX 12 12 0 -1
BITMAP
2010
7E10
2450
FF50
6450
DE50
5550
EE50
AA50
EE10
4450
EE20
ENDCHAR
STARTCHAR U_529A
ENCODING 21146
SWIDTH 1000 0
DWIDTH 13 0
BBX 12 12 0 -1
BITMAP
7E10
4250
7E50
5450
4850
7F50
5550
7F50
6950
7F10
8950
BE20
ENDCHAR
STARTCHAR U_529B
ENCODING 21147
SWIDTH 1000 0
DWIDTH 13 0
BBX 12 12 0 -1
BITMAP
0800
0800
0800
FFC0
0840
0840
1040
1040
2040
2040
4280
8100
ENDCHAR
STARTCHAR U_529C
ENCODING 21148
SWIDTH 1000 0
DWIDTH 13 0
BBX 12 12 0 -1
BITMAP
2100
2100
2100
7D00
2500
2500
2500
2500
2510
2510
5510
88F0
ENDCHAR
STARTCHAR U_529D
ENCODING 21149
SWIDTH 1000 0
DWIDTH 13 0
BBX 12 12 0 -1
BITMAP
0100
F100
1100
97E0
5120
2120
2120
2120
5220
8420
08A0
1040
ENDCHAR
STARTCHAR U_529E
ENCODING 21150
SWIDTH 1000 0
DWIDTH 13 0
BBX 12 12 0 -1
BITMAP
0400
0400
0400
7FC0
0440
2460
2450
4850
0840
1040
2280
4100
ENDCHAR
STARTCHAR U_529F
ENCODING 21151
SWIDTH 1000 0
DWIDTH 13 0
BBX 12 12 0 -1
BITMAP
0100
0100
F900
27E0
2120
2120
2120
2A20
F220
0420
0820
30C0
ENDCHAR
STARTCHAR U_52A0
ENCODING 21152
SWIDTH 1000 0
DWIDTH 13 0
BBX 12 12 0 -1
BITMAP
1000
1000
FEF0
1290
1290
1290
1290
2290
2290
2290
42F0
8C90
ENDCHAR
STARTCHAR U_52A1
ENCODING 21153
SWIDTH 1000 0
DWIDTH 13 0
BBX 12 12 0 -1
BITMAP
0800
1F80
3100
4A00
0600
F9E0
0400
7FC0
0440
0840
1040
6180
ENDCHAR
STARTCHAR U_52A2
ENCODING 21154
SWIDTH 1000 0
DWIDTH 13 0
BBX 12 12 0 -1
BITMAP
0080
FE80
2080
21F0
3C90
2490
2490
2490
2490
4510
4550
9A20
ENDCHAR
STARTCHAR U_52A3
ENCODING 21155
SWIDTH 1000 0
DWIDTH 13 0
BBX 12 12 0 -1
BITMAP
0400
2480
4460
8580
0600
F800
0400
7FC0
0840
0840
1040
6180
ENDCHAR
STARTCHAR U_52A4
ENCODING 21156
SWIDTH 1000 0
DWIDTH 13 0
BBX 12 12 0 -1
BITMAP
0C80
7080
4080
43F0
7C90
4890
4890
4890
4910
4910
8AA0
8C40
ENDCHAR
STARTCHAR U_52A5
ENCODING 21157
SWIDTH 1000 0
DWIDTH 13 0
BBX 12 12 0 -1
BITMAP
0000
4080
2080
F880
03F0
7090
5090
5090
5490
5910
5250
8420
ENDCHAR
STARTCHAR U_52A6
ENCODING 21158
SWIDTH 1000 0
DWIDTH 13 0
BBX 12 12 0 -1
BITMAP
0200
3FE0
0220
0420
18C0
2040
FDF0
2490
2490
2490
4510
9A60
ENDCHAR
STARTCHAR U_52A7
ENCODING 21159
SWIDTH 1000 0
DWIDTH 13 0
BBX 12 12 0 -1
BITMAP
0040
0E40
7040
11F0
7C50
1050
1050
FE50
1090
1090
5150
2220
ENDCHAR
STARTCHAR U_52A8
ENCODING 21160
SWIDTH 1000 0
DWIDTH 13 0
BBX 12 12 0 -1
BITMAP
0080
7880
0080
03F0
F890
2090
2090
4890
4D10
F510
4250
0420
ENDCHAR
STARTCHAR U_52A9
ENCODING 21161
SWIDTH 1000 0
DWIDTH 13 0
BBX 12 12 0 -1
BITMAP
0100
7900
4900
4BE0
7920
4920
7920
4920
4920
5E20
E4A0
0840
ENDCHAR
STARTCHAR U_52AA
ENCODING 21162
SWIDTH 1000 0
DWIDTH 13 0
BBX 12 12 0 -1
BITMAP
2000
2BE0
FE20
4940
3180
2A80
4460
8400
7FC0
0840
1040
6180
ENDCHAR
STARTCHAR U_52AB
ENCODING 21163
SWIDTH 1000 0
DWIDTH 13 0
BBX 12 12 0 -1
BITMAP
1080
1080
7C80
13F0
1090
FE90
1090
2890
2510
7D10
2210
0460
ENDCHAR
STARTCHAR U_52AC
ENCODING 21164
SWIDTH 1000 0
DWIDTH 13 0
BBX 12 12 0 -1
BITMAP
4080
4080
7C80
87E0
F4A0
54A0
54A0
5520
7520
5520
0A20
1440
ENDCHAR
STARTCHAR U_52AD
ENCODING 21165
SWIDTH 1000 0
DWIDTH 13 0
BBX 12 12 0 -1
BITMAP
0100
FD00
4900
4BE0
8920
1120
F920
8920
8A20
8A20
FCA0
8840
ENDCHAR
STARTCHAR U_52AE
ENCODING 21166
SWIDTH 1000 0
DWIDTH 13 0
BBX 12 12 0 -1
BITMAP
1080
5080
7E80
91F0
1090
FE90
1090
1890
1490
2290
4110
0E60
ENDCHAR
STARTCHAR U_52AF
ENCODING 21167
SWIDTH 1000 0
DWIDTH 13 0
BBX 12 12 0 -1
BITMAP
0080
0080
FE80
13F0
2090
3C90
6490
A490
2490
3D10
2150
0220
ENDCHAR
STARTCHAR U_52B0
ENCODING 21168
SWIDTH 1000 0
DWIDTH 13 0
BBX 12 12 0 -1
BITMAP
2080
2080
4080
FBF0
8890
8890
F890
8890
8910
8910
FA50
0420
ENDCHAR
STARTCHAR U_52B1
ENCODING 21169
SWIDTH 1000 0
DWIDTH 13 0
BBX 12 12 0 -1
BITMAP
0040
7F40
4040
7EF0
5050
5E50
5250
5290
5290
5290
A510
A260
ENDCHAR
STARTCHAR U_52B2
ENCODING 21170
SWIDTH 1000 0
DWIDTH 13 0
BBX 12 12 0 -1
BITMAP
0100
F900
1100
33E0
4920
8520
F920
2120
2120
2220
3AA0
C440
ENDCHAR
STARTCHAR U_52B3
ENCODING 21171
SWIDTH 1000 0
DWIDTH 13 0
BBX 12 12 0 -1
BITMAP
1100
FFE0
1100
0000
FFE0
8820
0800
7FC0
0840
0840
1040
6180
ENDCHAR
STARTCHAR U_52B4
ENCODING 21172
SWIDTH 1000 0
DWIDTH 13 0
BBX 12 12 0 -1
BITMAP
4840
2460
1280
7FF0
4410
8420
7FC0
0440
0840
0840
1140
6080
ENDCHAR
STARTCHAR U_52B5
ENCODING 21173
SWIDTH 1000 0
DWIDTH 13 0
BBX 12 12 0 -1
BITMAP
2440
1480
7FE0
0400
FFF0
0900
34C0
C430
1FA0
0480
0A80
3100
ENDCHAR
STARTCHAR U_52B6
ENCODING 21174
SWIDTH 1000 0
DWIDTH 13 0
BBX 12 12 0 -1
BITMAP
0E40
7040
4040
7EF0
4050
4050
5E50
5250
5290
5E90
8150
0220
ENDCHAR
STARTCHAR U_52B7
ENCODING 21175
SWIDTH 1000 0
DWIDTH 13 0
BBX 12 12 0 -1
BITMAP
4480
2880
FE80
11F0
1090
7E90
1090
1090
FE90
1110
2150
C220
ENDCHAR
STARTCHAR U_52B8
ENCODING 21176
SWIDTH 1000 0
DWIDTH 13 0
BBX 12 12 0 -1
BITMAP
1040
1040
7E40
11F0
FE50
1050
1050
7E50
1090
1090
1D50
E220
ENDCHAR
STARTCHAR U_52B9
ENCODING 21177
SWIDTH 1000 0
DWIDTH 13 0
BBX 12 12 0 -1
BITMAP
1040
0840
FE40
25F0
2450
4250
A450
1490
0890
1490
2150
C220
ENDCHAR
STARTCHAR U_52BA
ENCODING 21178
SWIDTH 1000 0
DWIDTH 13 0
BBX 12 12 0 -1
BITMAP
1080
2480
7C80
15F0
5090
7C90
9090
1090
FE90
1110
1150
1220
ENDCHAR
STARTCHAR U_52BB
ENCODING 21179
SWIDTH 1000 0
DWIDTH 13 0
BBX 12 12 0 -1
BITMAP
0080
7E80
4080
7FF0
4890
7E90
4890
4890
7E90
4110
7F50
0220
ENDCHAR
STARTCHAR U_52BC
ENCODING 21180
SWIDTH 1000 0
DWIDTH 13 0
BBX 12 12 0 -1
BITMAP
1080
1080
FE80
11F0
7C90
0090
7C90
4490
4490
4510
7D50
4620
ENDCHAR
STARTCHAR U_52BD
ENCODING 21181
SWIDTH 1000 0
DWIDTH 13 0
BBX 12 12 0 -1
BITMAP
7F10
1090
1E90
2290
6490
1C10
1270
6200
1FE0
0220
04A0
1840
ENDCHAR
STARTCHAR U_52BE
ENCODING 21182
SWIDTH 1000 0
DWIDTH 13 0
BBX 12 12 0 -1
BITMAP
2080
1080
FE80
23E0
48A0
F0A0
10A0
24A0
C8A0
1520
2220
C4C0
ENDCHAR
STARTCHAR U_52BF
ENCODING 21183
SWIDTH 1000 0
DWIDTH 13 0
BBX 12 12 0 -1
BITMAP
2100
FFC0
2140
3540
E340
2560
6C20
0400
7FC0
0840
1040
6180
ENDCHAR
STARTCHAR U_52C0
ENCODING 21184
SWIDTH 1000 0
DWIDTH 13 0
BBX 12 12 0 -1
BITMAP
1080
FE80
1080
7DF0
4490
4490
7C90
2890
2890
2910
4D10
8A60
ENDCHAR
STARTCHAR U_52C1
ENCODING 21185
SWIDTH 1000 0
DWIDTH 13 0
BBX 12 12 0 -1
BITMAP
0080
FC80
5480
A9F0
A890
5490
FC90
2090
2090
2110
FD10
0260
ENDCHAR
STARTCHAR U_52C2
ENCODING 21186
SWIDTH 1000 0
DWIDTH 13 0
BBX 12 12 0 -1
BITMAP
5080
5080
7E80
91F0
1090
FE90
0090
7C90
4510
4510
7E10
4460
ENDCHAR
STARTCHAR U_52C3
ENCODING 21187
SWIDTH 1000 0
DWIDTH 13 0
BBX 12 12 0 -1
BITMAP
2100
FD00
23E0
FD20
8520
7920
0920
1120
F920
1220
52A0
2440
ENDCHAR
STARTCHAR U_52C4
ENCODING 21188
SWIDTH 1000 0
DWIDTH 13 0
BBX 12 12 0 -1
BITMAP
2080
3E80
4080
FDF0
5490
4490
FE90
4490
5490
7D10
0550
1A20
ENDCHAR
STARTCHAR U_52C5
ENCODING 21189
SWIDTH 1000 0
DWIDTH 13 0
BBX 12 12 0 -1
BITMAP
1080
1080
FE80
11F0
7C90
5490
7C90
1090
3890
5510
9210
1420
ENDCHAR
STARTCHAR U_52C6
ENCODING 21190
SWIDTH 1000 0
DWIDTH 13 0
BBX 12 12 0 -1
BITMAP
4080
2080
F880
8BF0
F890
8890
F890
A110
9110
A910
CA50
8420
ENDCHAR
STARTCHAR U_52C7
ENCODING 21191
SWIDTH 1000 0
DWIDTH 13 0
BBX 12 12 0 -1
BITMAP
7F80
0900
7FC0
4440
7FC0
4440
7FC0
4440
FFE0
0820
1020
E0C0
ENDCHAR
STARTCHAR U_52C8
ENCODING 21192
SWIDTH 1000 0
DWIDTH 13 0
BBX 12 12 0 -1
BITMAP
FC80
2880
1080
FDF0
A490
A490
FC90
A490
FC90
A510
AD50
0220
ENDCHAR
STARTCHAR U_52C9
ENCODING 21193
SWIDTH 1000 0
DWIDTH 13 0
BBX 12 12 0 -1
BITMAP
2100
3900
4900
7FE0
D520
5520
7D20
2920
2A20
2CD0
4810
87F0
ENDCHAR
STARTCHAR U_52CA
ENCODING 21194
SWIDTH 1000 0
DWIDTH 13 0
BBX 12 12 0 -1
BITMAP
2100
F900
27E0
F920
8920
8920
F920
5220
5440
5010
8FE0
0000
ENDCHAR
STARTCHAR U_52CB
ENCODING 21195
SWIDTH 1000 0
DWIDTH 13 0
BBX 12 12 0 -1
BITMAP
F880
8880
F880
03F0
F890
8890
A890
A890
A890
B090
4910
8660
ENDCHAR
STARTCHAR U_52CC
ENCODING 21196
SWIDTH 1000 0
DWIDTH 13 0
BBX 12 12 0 -1
BITMAP
5480
1080
FE80
11F0
FE90
2490
4290
BC90
2510
2110
2D50
3220
ENDCHAR
STARTCHAR U_52CD
ENCODING 21197
SWIDTH 1000 0
DWIDTH 13 0
BBX 12 12 0 -1
BITMAP
2080
1080
FE80
01F0
7C90
4490
7C90
1090
5490
9310
1110
3660
ENDCHAR
STARTCHAR U_52CE
ENCODING 21198
SWIDTH 1000 0
DWIDTH 13 0
BBX 12 12 0 -1
BITMAP
2080
F880
23F0
FC90
0090
6890
A490
2110
FD10
2110
3A50
C420
ENDCHAR
STARTCHAR U_52CF
ENCODING 21199
SWIDTH 1000 0
DWIDTH 13 0
BBX 12 12 0 -1
BITMAP
2040
1040
FE40
45F0
2850
FE50
0050
7C50
4490
4490
7D50
4620
ENDCHAR
STARTCHAR U_52D0
ENCODING 21200
SWIDTH 1000 0
DWIDTH 13 0
BBX 12 12 0 -1
BITMAP
FE80
0880
1080
FFF0
1090
1090
5090
2090
FE90
AB10
AA10
FF60
ENDCHAR
STARTCHAR U_52D1
ENCODING 21201
SWIDTH 1000 0
DWIDTH 13 0
BBX 12 12 0 -1
BITMAP
1080
1080
FE80
11F0
5490
BA90
9290
1890
3490
5310
9150
1220
ENDCHAR
STARTCHAR U_52D2
ENCODING 21202
SWIDTH 1000 0
DWIDTH 13 0
BBX 12 12 0 -1
BITMAP
2480
FE80
2480
3FF0
1090
7E90
5290
7E90
1090
7F10
1110
1260
ENDCHAR
STARTCHAR U_52D3
ENCODING 21203
SWIDTH 1000 0
DWIDTH 13 0
BBX 12 12 0 -1
BITMAP
9080
9480
F9F0
9490
DC90
2090
FC90
8490
FC90
8510
FD10
8660
ENDCHAR
STARTCHAR U_52D4
ENCODING 21204
SWIDTH 1000 0
DWIDTH 13 0
BBX 12 12 0 -1
BITMAP
0080
FE80
2080
FFF0
AA90
BA90
AA90
BA90
AA90
AA90
FF10
0220
ENDCHAR
STARTCHAR U_52D5
ENCODING 21205
SWIDTH 1000 0
DWIDTH 13 0
BBX 12 12 0 -1
BITMAP
1880
E080
2080
FDF0
A490
FC90
A490
FC90
2090
FC90
2110
FE60
ENDCHAR
STARTCHAR U_52D6
ENCODING 21206
SWIDTH 1000 0
DWIDTH 13 0
BBX 12 12 0 -1
BITMAP
FE80
8280
BA80
83F0
BA90
4490
4490
7C90
4490
7C90
4510
7E60
ENDCHAR
STARTCHAR U_52D7
ENCODING 21207
SWIDTH 1000 0
DWIDTH 13 0
BBX 12 12 0 -1
BITMAP
1FE0
1020
1FE0
1020
1FE0
3C80
27F0
3C90
2490
3C90
2510
7E60
ENDCHAR
STARTCHAR U_52D8
ENCODING 21208
SWIDTH 1000 0
DWIDTH 13 0
BBX 12 12 0 -1
BITMAP
2480
FF80
2480
3DF0
2490
3C90
2490
FE90
5490
5690
4110
7E60
ENDCHAR
STARTCHAR U_52D9
ENCODING 21209
SWIDTH 1000 0
DWIDTH 13 0
BBX 12 12 0 -1
BITMAP
0080
FDF0
2B20
10C0
FC40
15B0
3A80
57E0
9120
1120
1220
34C0
ENDCHAR
STARTCHAR U_52DA
ENCODING 21210
SWIDTH 1000 0
DWIDTH 13 0
BBX 12 12 0 -1
BITMAP
5480
FE80
5480
41F0
7C90
0090
7C90
5490
5490
5490
2950
4620
ENDCHAR
STARTCHAR U_52DB
ENCODING 21211
SWIDTH 1000 0
DWIDTH 13 0
BBX 12 12 0 -1
BITMAP
7880
4880
4880
FDF0
8490
FC90
8490
FC90
8490
FD10
4910
8660
ENDCHAR
STARTCHAR U_52DC
ENCODING 21212
SWIDTH 1000 0
DWIDTH 13 0
BBX 12 12 0 -1
BITMAP
2880
4480
9280
29F0
7C90
0090
EE90
2290
AA90
6690
AA90
4520
ENDCHAR
STARTCHAR U_52DD
ENCODING 21213
SWIDTH 1000 0
DWIDTH 13 0
BBX 12 12 0 -1
BITMAP
7AA0
4AA0
4FF0
7900
4FF0
4A40
7D30
4FE0
4920
4920
8A20
9CC0
ENDCHAR
STARTCHAR U_52DE
ENCODING 21214
SWIDTH 1000 0
DWIDTH 13 0
BBX 12 12 0 -1
BITMAP
0840
2D60
2940
14A0
2310
7FF0
4410
5FD0
0440
0840
0840
3180
ENDCHAR
STARTCHAR U_52DF
ENCODING 21215
SWIDTH 1000 0
DWIDTH 13 0
BBX 12 12 0 -1
BITMAP
0880
7FF0
0880
1FC0
1040
1FC0
1040
FFF0
2420
5FD0
0840
3180
ENDCHAR
STARTCHAR U_52E0
ENCODING 21216
SWIDTH 1000 0
DWIDTH 13 0
BBX 12 12 0 -1
BITMAP
F740
5540
BB40
55F0
9950
1450
6650
B950
0650
3850
0690
7920
ENDCHAR
STARTCHAR U_52E1
ENCODING 21217
SWIDTH 1000 0
DWIDTH 13 0
BBX 12 12 0 -1
BITMAP
FE80
2880
FE80
ABF0
FE90
0090
7C90
0090
FE90
5090
5550
B220
ENDCHAR
STARTCHAR U_52E2
ENCODING 21218
SWIDTH 1000 0
DWIDTH 13 0
BBX 12 12 0 -1
BITMAP
1080
FC80
11E0
FCA0
55A0
BAA0
10B0
6A00
1FE0
0420
0820
70C0
ENDCHAR
STARTCHAR U_52E3
ENCODING 21219
SWIDTH 1000 0
DWIDTH 13 0
BBX 12 12 0 -1
BITMAP
1040
7F40
1040
7EF0
1050
FF50
4250
7250
4E50
4290
7E90
8120
ENDCHAR
STARTCHAR U_52E4
ENCODING 21220
SWIDTH 1000 0
DWIDTH 13 0
BBX 12 12 0 -1
BITMAP
4880
FC80
4880
FFE0
A4A0
FCA0
20A0
FCA0
20A0
FD20
2220
FCC0
ENDCHAR
STARTCHAR U_52E5
ENCODING 21221
SWIDTH 1000 0
DWIDTH 13 0
BBX 12 12 0 -1
BITMAP
3BC0
0A40
7BC0
46E0
7CA0
0FE0
2890
17F0
0200
3FE0
0420
78E0
ENDCHAR
STARTCHAR U_52E6
ENCODING 21222
SWIDTH 1000 0
DWIDTH 13 0
BBX 12 12 0 -1
BITMAP
5480
A880
5480
7DF0
5490
7C90
5490
7C90
1090
FE90
5490
9320
ENDCHAR
STARTCHAR U_52E7
ENCODING 21223
SWIDTH 1000 0
DWIDTH 13 0
BBX 12 12 0 -1
BITMAP
2040
3E40
51F0
FE50
4850
FE50
4850
7E90
4890
7E90
4910
7F20
ENDCHAR
STARTCHAR U_52E8
ENCODING 21224
SWIDTH 1000 0
DWIDTH 13 0
BBX 12 12 0 -1
BITMAP
2040
3E40
4440
FF40
49F0
7F50
3050
5250
AC50
5C90
AAB0
5910
ENDCHAR
STARTCHAR U_52E9
ENCODING 21225
SWIDTH 1000 0
DWIDTH 13 0
BBX 12 12 0 -1
BITMAP
5440
FF40
55F0
5C50
4050
7E50
4250
7E50
4250
7E50
2890
4520
ENDCHAR
STARTCHAR U_52EA
ENCODING 21226
SWIDTH 1000 0
DWIDTH 13 0
BBX 12 12 0 -1
BITMAP
FC40
2040
FE40
45F0
BA50
2850
FE50
8250
BA50
AA90
BAD0
8720
ENDCHAR
STARTCHAR U_52EB
ENCODING 21227
SWIDTH 1000 0
DWIDTH 13 0
BBX 12 12 0 -1
BITMAP
0440
7840
5440
FEF0
3850
5650
FE50
5250
7E50
5250
7E90
4320
ENDCHAR
STARTCHAR U_52EC
ENCODING 21228
SWIDTH 1000 0
DWIDTH 13 0
BBX 12 12 0 -1
BITMAP
9280
5480
FE80
11F0
FE90
2890
5490
AA90
7910
1110
5550
B220
ENDCHAR
STARTCHAR U_52ED
ENCODING 21229
SWIDTH 1000 0
DWIDTH 13 0
BBX 12 12 0 -1
BITMAP
1080
7C80
29F0
FE90
5490
7C90
5490
7C90
1090
7D10
1150
FF20
ENDCHAR
STARTCHAR U_52EE
ENCODING 21230
SWIDTH 1000 0
DWIDTH 13 0
BBX 12 12 0 -1
BITMAP
1C40
1040
7EF0
5250
7C50
5050
7E50
4850
6A50
5C90
AA90
9120
ENDCHAR
STARTCHAR U_52EF
ENCODING 21231
SWIDTH 1000 0
DWIDTH 13 0
BBX 12 12 0 -1
BITMAP
1040
FF40
4240
5BF0
4250
7E50
2450
3C50
2490
3C90
0110
7E60
ENDCHAR
STARTCHAR U_52F0
ENCODING 21232
SWIDTH 1000 0
DWIDTH 13 0
BBX 12 12 0 -1
BITMAP
2000
FBE0
2AA0
4BE0
5AA0
53E0
FC00
54C0
55A0
5690
94A0
A8E0
ENDCHAR
STARTCHAR U_52F1
ENCODING 21233
SWIDTH 1000 0
DWIDTH 13 0
BBX 12 12 0 -1
BITMAP
2440
FF40
2440
7EF0
5250
7E50
5250
FF50
9550
FB50
8190
8120
ENDCHAR
STARTCHAR U_52F2
ENCODING 21234
SWIDTH 1000 0
DWIDTH 13 0
BBX 12 12 0 -1
BITMAP
7C40
1040
FEF0
5450
7C50
5450
7C90
1090
7D60
1000
FEA0
4490
ENDCHAR
STARTCHAR U_52F3
ENCODING 21235
SWIDTH 1000 0
DWIDTH 13 0
BBX 12 12 0 -1
BITMAP
7E40
0840
7F40
55F0
5550
7F50
0850
7E50
0850
7E90
5510
AA60
ENDCHAR
STARTCHAR U_52F4
ENCODING 21236
SWIDTH 1000 0
DWIDTH 13 0
BBX 12 12 0 -1
BITMAP
1C40
1040
FF40
B4F0
9E50
AA50
BE50
AA50
BE90
9490
B310
DD60
ENDCHAR
STARTCHAR U_52F5
ENCODING 21237
SWIDTH 1000 0
DWIDTH 13 0
BBX 12 12 0 -1
BITMAP
FF40
9440
BF40
94F0
BE50
AA50
BE50
AA50
BF50
A990
BD90
A120
ENDCHAR
STARTCHAR U_52F6
ENCODING 21238
SWIDTH 1000 0
DWIDTH 13 0
BBX 12 12 0 -1
BITMAP
1480
2E80
5AF0
AFA0
6AA0
AE40
2AA0
2B10
7FE0
0820
1120
60C0
ENDCHAR
STARTCHAR U_52F7
ENCODING 21239
SWIDTH 1000 0
DWIDTH 13 0
BBX 12 12 0 -1
BITMAP
1040
FF40
AA40
EEF0
1450
FF50
1450
7F50
1450
FF50
5290
E120
ENDCHAR
STARTCHAR U_52F8
ENCODING 21240
SWIDTH 1000 0
DWIDTH 13 0
BBX 12 12 0 -1
BITMAP
1440
FFC0
1440
7770
5550
7750
4850
FF50
4850
7E90
4890
7F20
ENDCHAR
STARTCHAR U_52F9
ENCODING 21241
SWIDTH 1000 0
DWIDTH 13 0
BBX 12 12 0 -1
BITMAP
2000
2000
3FE0
4020
8020
0020
0020
0020
0020
0020
00A0
0040
ENDCHAR
STARTCHAR U_52FA
ENCODING 21242
SWIDTH 1000 0
DWIDTH 13 0
BBX 12 12 0 -1
BITMAP
2000
2000
3FE0
4020
8020
0820
0620
0220
0020
0020
0140
0080
ENDCHAR
STARTCHAR U_52FB
ENCODING 21243
SWIDTH 1000 0
DWIDTH 13 0
BBX 12 12 0 -1
BITMAP
2000
2000
3FE0
4020
8020
1F20
0020
0020
3FA0
0020
00A0
0040
ENDCHAR
STARTCHAR U_52FC
ENCODING 21244
SWIDTH 1000 0
DWIDTH 13 0
BBX 12 12 0 -1
BITMAP
2000
2000
3FE0
4820
8820
3E20
0AA0
0AA0
0BA0
1020
20A0
4040
ENDCHAR
STARTCHAR U_52FD
ENCODING 21245
SWIDTH 1000 0
DWIDTH 13 0
BBX 12 12 0 -1
BITMAP
2000
2000
3FE0
4020
8820
0820
0820
1420
2220
4020
0140
0080
ENDCHAR
STARTCHAR U_52FE
ENCODING 21246
SWIDTH 1000 0
DWIDTH 13 0
BBX 12 12 0 -1
BITMAP
2000
2000
3FE0
4020
8420
0820
0A20
1120
3EA0
1020
00A0
0040
ENDCHAR
STARTCHAR U_52FF
ENCODING 21247
SWIDTH 1000 0
DWIDTH 13 0
BBX 12 12 0 -1
BITMAP
2000
2000
3FE0
44A0
84A0
0920
0920
1220
2220
4420
08A0
3040
ENDCHAR
STARTCHAR U_5300
ENCODING 21248
SWIDTH 1000 0
DWIDTH 13 0
BBX 12 12 0 -1
BITMAP
2000
2000
3FE0
4020
9820
0620
0020
0320
3C20
0020
0040
0380
ENDCHAR
STARTCHAR U_5301
ENCODING 21249
SWIDTH 1000 0
DWIDTH 13 0
BBX 12 12 0 -1
BITMAP
2000
2000
3FC0
2240
5240
4A40
8640
0540
08C0
30B0
C280
0100
ENDCHAR
STARTCHAR U_5302
ENCODING 21250
SWIDTH 1000 0
DWIDTH 13 0
BBX 12 12 0 -1
BITMAP
0800
0800
1FF0
2010
5090
9310
1C10
1090
1090
0F90
0020
00C0
ENDCHAR
STARTCHAR U_5303
ENCODING 21251
SWIDTH 1000 0
DWIDTH 13 0
BBX 12 12 0 -1
BITMAP
1000
1000
3FE0
4220
A220
2220
2520
28A0
2020
3FA0
0020
00C0
ENDCHAR
STARTCHAR U_5304
ENCODING 21252
SWIDTH 1000 0
DWIDTH 13 0
BBX 12 12 0 -1
BITMAP
1000
1000
3FE0
4020
8820
7FA0
2020
2020
2020
3F20
00A0
0040
ENDCHAR
STARTCHAR U_5305
ENCODING 21253
SWIDTH 1000 0
DWIDTH 13 0
BBX 12 12 0 -1
BITMAP
2000
2000
3FC0
4040
BE40
2240
2240
3E40
2180
2020
2020
1FE0
ENDCHAR
STARTCHAR U_5306
ENCODING 21254
SWIDTH 1000 0
DWIDTH 13 0
BBX 12 12 0 -1
BITMAP
2000
2000
3FC0
4A40
4A40
B240
1E40
2240
4540
8840
1040
6180
ENDCHAR
STARTCHAR U_5307
ENCODING 21255
SWIDTH 1000 0
DWIDTH 13 0
BBX 12 12 0 -1
BITMAP
1000
1FF0
2010
4810
8F90
1090
2910
4510
0210
0C10
3050
0020
ENDCHAR
STARTCHAR U_5308
ENCODING 21256
SWIDTH 1000 0
DWIDTH 13 0
BBX 12 12 0 -1
BITMAP
1000
1000
3FE0
4120
AAA0
24A0
2AA0
31A0
20A0
3FA0
00A0
0040
ENDCHAR
STARTCHAR U_5309
ENCODING 21257
SWIDTH 1000 0
DWIDTH 13 0
BBX 12 12 0 -1
BITMAP
1000
1FF0
2010
5F90
0410
2490
1510
7FD0
0410
0410
0450
0420
ENDCHAR
STARTCHAR U_530A
ENCODING 21258
SWIDTH 1000 0
DWIDTH 13 0
BBX 12 12 0 -1
BITMAP
2000
2020
3FF0
4420
94A0
0D20
7FE0
0620
1520
24A0
4420
04C0
ENDCHAR
STARTCHAR U_530B
ENCODING 21259
SWIDTH 1000 0
DWIDTH 13 0
BBX 12 12 0 -1
BITMAP
1000
1FF0
2010
4810
0F90
1210
7FD0
0210
1290
1290
1F90
0060
ENDCHAR
STARTCHAR U_530C
ENCODING 21260
SWIDTH 1000 0
DWIDTH 13 0
BBX 12 12 0 -1
BITMAP
2000
3FF0
4410
4A10
9110
2E90
4070
1F10
1110
1110
1F10
0060
ENDCHAR
ENDFONT
